{
.appVersion = "1268";
DisplayStrings = (
"/ohorngrave",
"/Otildeacute"
);
classes = (
{
automatic = 1;

glyphs = (
{
color = 6;
glyphname = A;
lastChange = "2019-10-16 17:45:36 +0000";
layers = (
{
anchors = (
{
name = abovecomb;
position = "{570, 908}";
},
{
name = bottom;
position = "{568, -46}";
},
{
name = bottomright;
position = "{839, 4}";
},
{
name = gram;
position = "{979, 355}";
},
{
name = greekcap;
position = "{360, 603}";
},
{
name = polyomicron;
position = "{369, 605}";
},
{
name = top;
position = "{569, 921}";
}
);
hints = (
{
horizontal = 1;
origin = "{0, 7}";
type = Anchor;
options = 4;
},
{
horizontal = 1;
origin = "{0, 1}";
target = "{1, 2}";
type = TTStem;
options = 4;
},
{
horizontal = 1;
origin = "{1, 0}";
target = "{0, 6}";
type = TTStem;
options = 4;
}
);
layerId = "BA196CD0-EE58-4274-B8DF-4393D3617A29";
paths = (
{
closed = 1;
nodes = (
"341 -1 LINE",
"384 135 LINE",
"755 135 LINE",
"787 -1 LINE",
"946 -1 LINE",
"622 849 LINE",
"515 849 LINE",
"190 -1 LINE"
);
},
{
closed = 1;
nodes = (
"567 711 LINE",
"720 266 LINE",
"417 266 LINE"
);
}
);
width = 1136;
},
{
anchors = (
{
name = abovecomb;
position = "{497, 935}";
},
{
name = bottom;
position = "{487, -50}";
},
{
name = dotbelow;
position = "{496, -76}";
},
{
name = dotbelowcomb;
position = "{493, 109}";
},
{
name = gram;
position = "{897, 393}";
},
{
name = greekcap;
position = "{280, 656}";
},
{
name = ogonek;
position = "{780, 39}";
},
{
name = polyomicron;
position = "{280, 653}";
},
{
name = top;
position = "{490, 928}";
}
);
layerId = "BBDB329E-CE83-4304-A6B1-53EA5ACC004E";
paths = (
{
closed = 1;
nodes = (
"291 -2 LINE",
"331 128 LINE",
"644 128 LINE",
"675 -2 LINE",
"894 -2 LINE",
"558 850 LINE",
"417 850 LINE",
"80 -2 LINE"
);
},
{
closed = 1;
nodes = (
"486 656 LINE",
"594 313 LINE",
"382 313 LINE"
);
}
);
width = 974;
}
);
unicode = 0041;
},
{
glyphname = "Alpha-latin";
lastChange = "2019-09-17 01:33:35 +0000";
layers = (
{
anchors = (
{
name = bottom;
position = "{403, 0}";
},
{
name = ogonek;
position = "{564, 29}";
},
{
name = top;
position = "{392, 577}";
}
);
hints = (
{
horizontal = 1;
origin = "{0, 11}";
target = "{1, 7}";
type = TTStem;
options = 4;
},
{
horizontal = 1;
origin = "{1, 1}";
target = "{0, 2}";
type = TTStem;
options = 4;
},
{
horizontal = 1;
origin = "{0, 15}";
type = Anchor;
options = 4;
}
);
layerId = "BA196CD0-EE58-4274-B8DF-4393D3617A29";
paths = (
{
closed = 1;
nodes = (
"502 663 OFFCURVE",
"462 687 OFFCURVE",
"382 674 CURVE SMOOTH",
"240 651 OFFCURVE",
"157 542 OFFCURVE",
"110 387 CURVE SMOOTH",
"89 318 OFFCURVE",
"80 261 OFFCURVE",
"80 214 CURVE SMOOTH",
"80 13 OFFCURVE",
"244 -24 OFFCURVE",
"371 -14 CURVE SMOOTH",
"451 -8 OFFCURVE",
"523 17 OFFCURVE",
"561 82 CURVE",
"561 0 LINE",
"669 0 LINE",
"669 75 OFFCURVE",
"649 60 OFFCURVE",
"649 329 CURVE SMOOTH",
"649 605 OFFCURVE",
"682 600 OFFCURVE",
"682 673 CURVE",
"587 673 LINE",
"563 602 LINE"
);
},
{
closed = 1;
nodes = (
"300 616 OFFCURVE",
"415 603 CURVE SMOOTH",
"520 591 OFFCURVE",
"560 406 OFFCURVE",
"544 299 CURVE SMOOTH",
"528 191 OFFCURVE",
"450 152 OFFCURVE",
"359 150 CURVE SMOOTH",
"245 148 OFFCURVE",
"182 212 OFFCURVE",
"176 282 CURVE SMOOTH",
"166 395 OFFCURVE"
);
}
);
width = 762;
},
{
anchors = (
{
name = bottom;
position = "{350, 0}";
},
{
name = ogonek;
position = "{511, 29}";
},
{
name = top;
position = "{339, 577}";
}
);
layerId = "BBDB329E-CE83-4304-A6B1-53EA5ACC004E";
paths = (
{
closed = 1;
nodes = (
"451 688 OFFCURVE",
"410 704 OFFCURVE",
"362 704 CURVE SMOOTH",
"350 704 OFFCURVE",
"338 703 OFFCURVE",
"325 701 CURVE SMOOTH",
"205 683 OFFCURVE",
"79 551 OFFCURVE",
"31 395 CURVE SMOOTH",
"10 327 OFFCURVE",
"0 266 OFFCURVE",
"0 214 CURVE SMOOTH",
"0 43 OFFCURVE",
"108 -41 OFFCURVE",
"318 -41 CURVE SMOOTH",
"382 -41 OFFCURVE",
"439 -23 OFFCURVE",
"481 11 CURVE",
"481 -27 LINE",
"642 -27 LINE",
"649 54 OFFCURVE",
"623 95 OFFCURVE",
"623 329 CURVE SMOOTH",
"623 602 OFFCURVE",
"664 605 OFFCURVE",
"655 700 CURVE",
"515 700 LINE",
"498 649 LINE"
);
},
{
closed = 1;
nodes = (
"171 451 OFFCURVE",
"273 574 OFFCURVE",
"333 583 CURVE",
"341 585 OFFCURVE",
"350 586 OFFCURVE",
"362 586 CURVE SMOOTH",
"434 586 OFFCURVE",
"470 525 OFFCURVE",
"470 396 CURVE SMOOTH",
"470 368 OFFCURVE",
"468 336 OFFCURVE",
"464 302 CURVE SMOOTH",
"450 171 OFFCURVE",
"451 165 OFFCURVE",
"306 165 CURVE SMOOTH",
"200 165 OFFCURVE",
"130 218 OFFCURVE",
"130 296 CURVE SMOOTH",
"130 311 OFFCURVE",
"133 328 OFFCURVE",
"138 344 CURVE SMOOTH"
);
}
);
width = 656;
}
);
unicode = 2C6D;
},
{
color = 6;
glyphname = B;
lastChange = "2019-10-16 12:24:43 +0000";
layers = (
{
anchors = (
{
name = bottom;
position = "{486, -52}";
},
{
name = stroke;
position = "{259, 233}";
},
{
name = top;
position = "{488, 898}";
},
{
name = top_hook;
position = "{63, 589}";
}
);
hints = (
{
horizontal = 1;
origin = "{0, 14}";
target = "{1, 11}";
type = TTStem;
options = 4;
},
{
horizontal = 1;
origin = "{1, 0}";
target = "{2, 8}";
type = TTStem;
options = 4;
},
{
horizontal = 1;
origin = "{2, 0}";
target = "{0, 13}";
type = TTStem;
options = 4;
}
);
layerId = "BA196CD0-EE58-4274-B8DF-4393D3617A29";
paths = (
{
closed = 1;
nodes = (
"486 0 LINE SMOOTH",
"671 0 OFFCURVE",
"780 34 OFFCURVE",
"785 231 CURVE SMOOTH",
"790 398 OFFCURVE",
"731 467 OFFCURVE",
"585 490 CURVE",
"664 503 OFFCURVE",
"719 557 OFFCURVE",
"713 655 CURVE SMOOTH",
"706 774 OFFCURVE",
"617 847 OFFCURVE",
"447 847 CURVE SMOOTH",
"190 847 LINE",
"190 0 LINE"
);
},
{
closed = 1;
nodes = (
"302 440 LINE",
"480 440 LINE SMOOTH",
"560 440 OFFCURVE",
"600 418 OFFCURVE",
"613 403 CURVE SMOOTH",
"642 373 OFFCURVE",
"662 362 OFFCURVE",
"662 304 CURVE SMOOTH",
"662 205 OFFCURVE",
"600 164 OFFCURVE",
"480 164 CURVE SMOOTH",
"302 164 LINE"
);
},
{
closed = 1;
nodes = (
"302 762 LINE",
"467 762 LINE SMOOTH",
"575 762 OFFCURVE",
"617 715 OFFCURVE",
"617 643 CURVE SMOOTH",
"617 573 OFFCURVE",
"575 541 OFFCURVE",
"467 541 CURVE SMOOTH",
"302 541 LINE"
);
}
);
width = 975;
},
{
anchors = (
{
name = bottom;
position = "{479, 0}";
},
{
name = stroke;
position = "{257, 233}";
},
{
name = top;
position = "{471, 976}";
},
{
name = top_hook;
position = "{49, 560}";
}
);
layerId = "BBDB329E-CE83-4304-A6B1-53EA5ACC004E";
paths = (
{
closed = 1;
nodes = (
"477 -2 LINE SMOOTH",
"656 -2 OFFCURVE",
"801 28 OFFCURVE",
"795 251 CURVE SMOOTH",
"792 370 OFFCURVE",
"746 424 OFFCURVE",
"653 462 CURVE",
"700 496 OFFCURVE",
"725 553 OFFCURVE",
"725 627 CURVE SMOOTH",
"725 770 OFFCURVE",
"619 852 OFFCURVE",
"440 852 CURVE SMOOTH",
"162 852 LINE",
"162 -2 LINE"
);
},
{
closed = 1;
nodes = (
"329 378 LINE",
"471 378 LINE SMOOTH",
"525 378 OFFCURVE",
"557 367 OFFCURVE",
"580 351 CURVE SMOOTH",
"611 330 OFFCURVE",
"617 306 OFFCURVE",
"617 295 CURVE SMOOTH",
"617 229 OFFCURVE",
"589 216 OFFCURVE",
"471 216 CURVE SMOOTH",
"329 216 LINE"
);
},
{
closed = 1;
nodes = (
"329 722 LINE",
"458 722 LINE SMOOTH",
"541 722 OFFCURVE",
"585 684 OFFCURVE",
"585 615 CURVE SMOOTH",
"585 553 OFFCURVE",
"548 524 OFFCURVE",
"458 524 CURVE SMOOTH",
"329 524 LINE"
);
}
);
width = 957;
}
);
unicode = 0042;
},
{
color = 6;
glyphname = C;
lastChange = "2019-10-14 17:09:05 +0000";
layers = (
{
anchors = (
{
name = bottom;
position = "{589, -24}";
},
{
name = center;
position = "{587, 476}";
},
{
name = top;
position = "{629, 917}";
},
{
name = top_hook;
position = "{784, 813}";
},
{
name = topleft;
position = "{204, 844}";
}
);
hints = (
{
horizontal = 1;
origin = "{0, 8}";
target = "{0, 15}";
type = TTStem;
options = 4;
},
{
horizontal = 1;
origin = "{0, 21}";
target = "{0, 2}";
type = TTStem;
options = 4;
}
);
layerId = "BA196CD0-EE58-4274-B8DF-4393D3617A29";
paths = (
{
closed = 1;
nodes = (
"735 842 OFFCURVE",
"703 860 OFFCURVE",
"604 847 CURVE SMOOTH",
"328 813 OFFCURVE",
"229 617 OFFCURVE",
"202 474 CURVE SMOOTH",
"153 218 OFFCURVE",
"252 8 OFFCURVE",
"467 -13 CURVE SMOOTH",
"562 -22 OFFCURVE",
"746 -7 OFFCURVE",
"809 12 CURVE",
"807 246 LINE",
"752 229 OFFCURVE",
"718 207 OFFCURVE",
"622 203 CURVE SMOOTH",
"435 196 OFFCURVE",
"298 285 OFFCURVE",
"333 474 CURVE SMOOTH",
"360 622 OFFCURVE",
"493 733 OFFCURVE",
"611 741 CURVE SMOOTH",
"659 744 OFFCURVE",
"733 733 OFFCURVE",
"797 722 CURVE",
"813 830 LINE"
);
}
);
width = 1003;
},
{
anchors = (
{
name = bottom;
position = "{559, -59}";
},
{
name = center;
position = "{630, 436}";
},
{
name = top;
position = "{534, 943}";
},
{
name = top_hook;
position = "{773, 804}";
}
);
layerId = "BBDB329E-CE83-4304-A6B1-53EA5ACC004E";
paths = (
{
closed = 1;
nodes = (
"737 855 OFFCURVE",
"636 861 OFFCURVE",
"575 858 CURVE SMOOTH",
"395 849 OFFCURVE",
"212 730 OFFCURVE",
"168 444 CURVE SMOOTH",
"130 199 OFFCURVE",
"275 -2 OFFCURVE",
"443 -2 CURVE SMOOTH",
"445 -2 OFFCURVE",
"570 -1 OFFCURVE",
"811 -2 CURVE",
"801 286 LINE",
"731 250 OFFCURVE",
"652 243 OFFCURVE",
"591 243 CURVE SMOOTH",
"411 243 OFFCURVE",
"364 315 OFFCURVE",
"375 452 CURVE SMOOTH",
"384 567 OFFCURVE",
"439 653 OFFCURVE",
"580 669 CURVE SMOOTH",
"648 677 OFFCURVE",
"702 668 OFFCURVE",
"794 648 CURVE",
"829 839 LINE"
);
}
);
width = 991;
}
);
unicode = 0043;
},
{
color = 6;
glyphname = D;
lastChange = "2019-10-14 17:09:05 +0000";
layers = (
{
anchors = (
{
name = bottom;
position = "{495, -56}";
},
{
name = center;
position = "{277, 423}";
},
{
name = dash;
position = "{327, 427}";
},
{
name = hook_top;
position = "{180, 788}";
},
{
name = top;
position = "{497, 915}";
}
);
hints = (
{
horizontal = 1;
origin = "{0, 8}";
target = "{1, 8}";
type = TTStem;
options = 4;
},
{
horizontal = 1;
origin = "{1, 0}";
target = "{0, 7}";
type = TTStem;
options = 4;
}
);
layerId = "BA196CD0-EE58-4274-B8DF-4393D3617A29";
paths = (
{
closed = 1;
nodes = (
"420 0 LINE SMOOTH",
"659 0 OFFCURVE",
"942 66 OFFCURVE",
"893 420 CURVE SMOOTH",
"865 629 OFFCURVE",
"739 849 OFFCURVE",
"420 849 CURVE SMOOTH",
"190 849 LINE",
"190 0 LINE"
);
},
{
closed = 1;
nodes = (
"308 714 LINE",
"442 714 LINE SMOOTH",
"669 714 OFFCURVE",
"729 571 OFFCURVE",
"747 444 CURVE SMOOTH",
"769 295 OFFCURVE",
"727 215 OFFCURVE",
"442 215 CURVE SMOOTH",
"308 215 LINE"
);
}
);
width = 1089;
},
{
anchors = (
{
name = bottom;
position = "{526, -75}";
},
{
name = center;
position = "{258, 396}";
},
{
name = dash;
position = "{276, 395}";
},
{
name = hook_top;
position = "{178, 760}";
},
{
name = top;
position = "{490, 912}";
}
);
layerId = "BBDB329E-CE83-4304-A6B1-53EA5ACC004E";
paths = (
{
closed = 1;
nodes = (
"413 -1 LINE SMOOTH",
"720 -1 OFFCURVE",
"889 29 OFFCURVE",
"889 428 CURVE SMOOTH",
"889 718 OFFCURVE",
"736 850 OFFCURVE",
"413 850 CURVE SMOOTH",
"162 850 LINE",
"162 -1 LINE"
);
},
{
closed = 1;
nodes = (
"342 680 LINE",
"439 680 LINE SMOOTH",
"639 680 OFFCURVE",
"735 597 OFFCURVE",
"735 430 CURVE SMOOTH",
"735 297 OFFCURVE",
"655 245 OFFCURVE",
"439 245 CURVE SMOOTH",
"342 245 LINE"
);
}
);
width = 1051;
}
);
unicode = 0044;
},
{
color = 6;
glyphname = E;
lastChange = "2019-10-14 17:09:05 +0000";
layers = (
{
anchors = (
{
name = bottom;
position = "{513, -44}";
},
{
name = ogonek;
position = "{486, 10}";
},
{
name = top;
position = "{474, 924}";
},
{
name = topleft;
position = "{127, 791}";
}
);
hints = (
{
horizontal = 1;
origin = "{0, 11}";
target = "{0, 2}";
type = TTStem;
options = 4;
},
{
horizontal = 1;
place = "{689, 68.5}";
type = TTStem;
options = 4;
}
);
layerId = "BA196CD0-EE58-4274-B8DF-4393D3617A29";
paths = (
{
closed = 1;
nodes = (
"735 0 LINE",
"698 171 LINE",
"322 171 LINE",
"322 374 LINE",
"599 392 LINE",
"599 508 LINE",
"322 496 LINE",
"322 720 LINE",
"695 741 LINE",
"718 847 LINE",
"217 832 LINE",
"190 0 LINE"
);
}
);
width = 925;
},
{
anchors = (
{
name = bottom;
position = "{467, -151}";
},
{
name = ogonek;
position = "{469, 0}";
},
{
name = top;
position = "{458, 969}";
},
{
name = topleft;
position = "{80, 765}";
}
);
layerId = "BBDB329E-CE83-4304-A6B1-53EA5ACC004E";
paths = (
{
closed = 1;
nodes = (
"757 0 LINE",
"707 222 LINE",
"350 222 LINE",
"350 362 LINE",
"617 379 LINE",
"617 528 LINE",
"350 516 LINE",
"350 696 LINE",
"703 715 LINE",
"742 854 LINE",
"191 836 LINE",
"162 0 LINE"
);
}
);
width = 919;
}
);
unicode = 0045;
},
{
color = 6;
glyphname = F;
lastChange = "2019-10-14 17:09:05 +0000";
layers = (
{
anchors = (
{
name = bottom;
position = "{429, 0}";
},
{
name = bottom_hook;
position = "{234, -29}";
},
{
name = top;
position = "{429, 922}";
},
{
name = topleft;
position = "{90, 800}";
}
);
hints = (
{
horizontal = 1;
origin = "{0, 9}";
type = Anchor;
options = 4;
},
{
horizontal = 1;
place = "{366, 102}";
type = TTStem;
options = 4;
},
{
horizontal = 1;
place = "{702, 68.5}";
type = TTStem;
options = 4;
}
);
layerId = "BA196CD0-EE58-4274-B8DF-4393D3617A29";
paths = (
{
closed = 1;
nodes = (
"344 0 LINE",
"328 437 LINE",
"616 437 LINE",
"616 553 LINE",
"323 553 LINE",
"341 754 LINE",
"667 773 LINE",
"667 847 LINE",
"234 834 LINE",
"190 0 LINE"
);
}
);
width = 857;
},
{
anchors = (
{
name = bottom;
position = "{425, 2}";
},
{
name = bottom_hook;
position = "{231, -39}";
},
{
name = top;
position = "{408, 932}";
}
);
layerId = "BBDB329E-CE83-4304-A6B1-53EA5ACC004E";
paths = (
{
closed = 1;
nodes = (
"367 0 LINE",
"349 400 LINE",
"634 400 LINE",
"634 570 LINE",
"347 571 LINE",
"365 704 LINE",
"685 724 LINE",
"685 857 LINE",
"208 841 LINE",
"162 0 LINE"
);
}
);
width = 847;
}
);
unicode = 0046;
},
{
color = 6;
glyphname = G;
lastChange = "2019-10-14 17:09:05 +0000";
layers = (
{
anchors = (
{
name = bottom;
position = "{593, 2}";
},
{
name = center;
position = "{604, 403}";
},
{
name = stroke;
position = "{248, 430}";
},
{
name = top;
position = "{593, 919}";
},
{
name = top_hook;
position = "{791, 838}";
}
);
hints = (
{
horizontal = 1;
origin = "{0, 31}";
target = "{0, 12}";
type = TTStem;
options = 4;
},
{
horizontal = 1;
origin = "{0, 18}";
target = "{0, 25}";
type = TTStem;
options = 4;
}
);
layerId = "BA196CD0-EE58-4274-B8DF-4393D3617A29";
paths = (
{
closed = 1;
nodes = (
"684 -14 OFFCURVE",
"801 -3 OFFCURVE",
"894 58 CURVE",
"882 292 LINE",
"958 279 LINE",
"939 387 LINE",
"620 423 LINE",
"636 335 LINE",
"786 309 LINE",
"784 207 LINE",
"757 179 OFFCURVE",
"690 168 OFFCURVE",
"611 168 CURVE SMOOTH",
"410 168 OFFCURVE",
"332 210 OFFCURVE",
"332 424 CURVE SMOOTH",
"332 678 OFFCURVE",
"410 752 OFFCURVE",
"611 758 CURVE SMOOTH",
"667 759 OFFCURVE",
"788 758 OFFCURVE",
"840 724 CURVE",
"827 822 LINE",
"800 846 OFFCURVE",
"710 854 OFFCURVE",
"602 849 CURVE SMOOTH",
"364 838 OFFCURVE",
"175 801 OFFCURVE",
"191 413 CURVE SMOOTH",
"202 133 OFFCURVE",
"254 -14 OFFCURVE",
"602 -14 CURVE SMOOTH"
);
}
);
width = 1148;
},
{
anchors = (
{
name = bottom;
position = "{578, -21}";
},
{
name = center;
position = "{590, 467}";
},
{
name = stroke;
position = "{281, 403}";
},
{
name = top;
position = "{611, 1032}";
},
{
name = top_hook;
position = "{801, 764}";
}
);
layerId = "BBDB329E-CE83-4304-A6B1-53EA5ACC004E";
paths = (
{
closed = 1;
nodes = (
"735 199 OFFCURVE",
"690 190 OFFCURVE",
"623 190 CURVE SMOOTH",
"431 190 OFFCURVE",
"367 244 OFFCURVE",
"360 412 CURVE",
"360 635 OFFCURVE",
"442 698 OFFCURVE",
"623 698 CURVE SMOOTH",
"713 698 OFFCURVE",
"808 686 OFFCURVE",
"878 666 CURVE",
"857 843 LINE",
"807 846 OFFCURVE",
"686 863 OFFCURVE",
"614 863 CURVE SMOOTH",
"254 863 OFFCURVE",
"162 690 OFFCURVE",
"162 410 CURVE SMOOTH",
"162 103 OFFCURVE",
"322 -19 OFFCURVE",
"588 -19 CURVE",
"733 -19 OFFCURVE",
"885 25 OFFCURVE",
"926 65 CURVE",
"919 265 LINE",
"996 255 LINE",
"964 410 LINE",
"601 454 LINE",
"622 307 LINE",
"766 287 LINE",
"760 215 LINE"
);
}
);
width = 1158;
}
);
unicode = 0047;
},
{
color = 6;
glyphname = H;
lastChange = "2019-10-14 17:09:05 +0000";
layers = (
{
anchors = (
{
name = bottom;
position = "{536, 0}";
},
{
name = caccent;
position = "{908, 173}";
},
{
name = center;
position = "{527, 526}";
},
{
name = eng;
position = "{788, 31}";
},
{
name = gram;
position = "{968, 322}";
},
{
name = greek_top;
position = "{154, 737}";
},
{
name = mark;
position = "{976, 771}";
},
{
name = top;
position = "{542, 915}";
},
{
name = top_hook;
position = "{67, 588}";
},
{
name = topleft;
position = "{128, 803}";
},
{
name = topright;
position = "{758, 797}";
}
);
hints = (
{
horizontal = 1;
origin = "{1, 3}";
type = Anchor;
options = 4;
},
{
horizontal = 1;
origin = "{2, 3}";
target = "{2, 2}";
type = TTStem;
options = 4;
}
);
layerId = "BA196CD0-EE58-4274-B8DF-4393D3617A29";
paths = (
{
closed = 1;
nodes = (
"881 0 LINE",
"846 847 LINE",
"728 847 LINE",
"701 0 LINE"
);
},
{
closed = 1;
nodes = (
"362 0 LINE",
"330 847 LINE",
"213 847 LINE",
"190 0 LINE"
);
},
{
closed = 1;
nodes = (
"750 211 LINE",
"758 399 LINE",
"304 399 LINE",
"304 211 LINE"
);
}
);
width = 1071;
},
{
anchors = (
{
name = bottom;
position = "{541, -137}";
},
{
name = caccent;
position = "{885, 167}";
},
{
name = center;
position = "{523, 551}";
},
{
name = eng;
position = "{783, 57}";
},
{
name = gram;
position = "{944, 274}";
},
{
name = greek_top;
position = "{155, 713}";
},
{
name = mark;
position = "{950, 743}";
},
{
name = top;
position = "{531, 925}";
},
{
name = top_hook;
position = "{74, 557}";
},
{
name = topleft;
position = "{133, 763}";
},
{
name = topright;
position = "{730, 792}";
}
);
layerId = "BBDB329E-CE83-4304-A6B1-53EA5ACC004E";
paths = (
{
closed = 1;
nodes = (
"162 0 LINE",
"389 0 LINE",
"356 850 LINE",
"186 850 LINE"
);
},
{
closed = 1;
nodes = (
"655 0 LINE",
"889 0 LINE",
"853 850 LINE",
"683 850 LINE"
);
},
{
closed = 1;
nodes = (
"273 174 LINE",
"760 174 LINE",
"770 391 LINE",
"273 391 LINE"
);
}
);
width = 1051;
}
);
unicode = 0048;
},
{
color = 6;
glyphname = I;
lastChange = "2019-10-16 01:28:12 +0000";
layers = (
{
anchors = (
{
name = J;
position = "{369, 432}";
},
{
name = bottom;
position = "{225, -63}";
},
{
name = center;
position = "{216, 452}";
},
{
name = ogonek;
position = "{213, 22}";
},
{
name = top;
position = "{212, 989}";
},
{
name = topleft;
position = "{78, 791}";
}
);
hints = (
{
horizontal = 1;
origin = "{0, 7}";
type = Anchor;
options = 4;
}
);
layerId = "BA196CD0-EE58-4274-B8DF-4393D3617A29";
paths = (
{
closed = 1;
nodes = (
"318 0 LINE",
"289 275 OFFCURVE",
"277 580 OFFCURVE",
"289 847 CURVE",
"146 847 LINE",
"157 738 OFFCURVE",
"175 330 OFFCURVE",
"140 0 CURVE"
);
}
);
width = 438;
},
{
anchors = (
{
name = J;
position = "{461, 513}";
},
{
name = bottom;
position = "{274, -182}";
},
{
name = center;
position = "{266, 452}";
},
{
name = ogonek;
position = "{271, 74}";
},
{
name = top;
position = "{264, 1007}";
},
{
name = topleft;
position = "{135, 763}";
}
);
layerId = "BBDB329E-CE83-4304-A6B1-53EA5ACC004E";
paths = (
{
closed = 1;
nodes = (
"380 0 LINE",
"347 294 OFFCURVE",
"336 582 OFFCURVE",
"349 850 CURVE",
"167 850 LINE",
"183 708 OFFCURVE",
"200 323 OFFCURVE",
"162 0 CURVE"
);
}
);
width = 542;
}
);
unicode = 0049;
},
{
color = 6;
glyphname = J;
lastChange = "2019-10-14 17:09:05 +0000";
layers = (
{
anchors = (
{
name = _J;
position = "{230, 467}";
},
{
name = bottom;
position = "{372, 27}";
},
{
name = top;
position = "{419, 851}";
}
);
hints = (
{
horizontal = 1;
origin = "{0, 10}";
type = Anchor;
options = 4;
}
);
layerId = "BA196CD0-EE58-4274-B8DF-4393D3617A29";
paths = (
{
closed = 1;
nodes = (
"453 -209 OFFCURVE",
"516 -110 OFFCURVE",
"526 88 CURVE SMOOTH",
"565 875 LINE",
"423 875 LINE",
"397 95 LINE SMOOTH",
"395 35 OFFCURVE",
"351 -56 OFFCURVE",
"255 -35 CURVE SMOOTH",
"198 -22 LINE",
"190 -204 LINE",
"265 -211 LINE"
);
}
);
width = 755;
},
{
anchors = (
{
name = _J;
position = "{308, 560}";
},
{
name = bottom;
position = "{493, 18}";
},
{
name = top;
position = "{554, 908}";
}
);
layerId = "BBDB329E-CE83-4304-A6B1-53EA5ACC004E";
paths = (
{
closed = 1;
nodes = (
"477 -26 OFFCURVE",
"363 3 OFFCURVE",
"313 15 CURVE SMOOTH",
"201 43 LINE",
"162 -177 LINE",
"351 -200 LINE SMOOTH",
"513 -219 OFFCURVE",
"638 -157 OFFCURVE",
"660 50 CURVE SMOOTH",
"745 850 LINE",
"560 850 LINE",
"490 112 LINE SMOOTH"
);
}
);
width = 907;
}
);
unicode = 004A;
},
{
color = 6;
glyphname = K;
lastChange = "2019-10-14 17:09:05 +0000";
layers = (
{
anchors = (
{
name = bottom;
position = "{432, 14}";
},
{
name = kabashkir;
position = "{324, 793}";
},
{
name = top;
position = "{474, 858}";
},
{
name = top_hook;
position = "{781, 617}";
},
{
name = topleft;
position = "{320, 901}";
}
);
hints = (
{
horizontal = 1;
origin = "{0, 10}";
type = Anchor;
options = 4;
}
);
layerId = "BA196CD0-EE58-4274-B8DF-4393D3617A29";
paths = (
{
closed = 1;
nodes = (
"335 0 LINE",
"348 329 LINE",
"571 0 LINE",
"834 0 LINE",
"452 394 LINE",
"727 849 LINE",
"583 849 LINE",
"348 453 LINE",
"363 849 LINE",
"263 849 LINE",
"190 0 LINE"
);
}
);
width = 1024;
},
{
anchors = (
{
name = bottom;
position = "{448, -33}";
},
{
name = kabashkir;
position = "{360, 785}";
},
{
name = top;
position = "{511, 906}";
},
{
name = top_hook;
position = "{866, 631}";
},
{
name = topleft;
position = "{335, 888}";
}
);
layerId = "BBDB329E-CE83-4304-A6B1-53EA5ACC004E";
paths = (
{
closed = 1;
nodes = (
"363 0 LINE",
"363 225 LINE",
"547 1 LINE",
"889 1 LINE",
"485 362 LINE",
"780 850 LINE",
"572 850 LINE",
"381 512 LINE",
"421 850 LINE",
"253 850 LINE",
"162 0 LINE"
);
}
);
width = 1051;
}
);
unicode = 004B;
},
{
color = 6;
glyphname = L;
lastChange = "2019-10-14 17:09:05 +0000";
layers = (
{
anchors = (
{
name = "_ circumflexbelowcomb";
position = "{461, -18}";
},
{
name = bottom;
position = "{457, -24}";
},
{
name = center;
position = "{268, 416}";
},
{
name = right;
position = "{479, 577}";
},
{
name = rightl;
position = "{752, 467}";
},
{
name = tilde;
position = "{268, 401}";
},
{
name = top;
position = "{270, 885}";
},
{
name = topright;
position = "{782, 791}";
}
);
hints = (
{
horizontal = 1;
place = "{-41, 148}";
type = TTStem;
options = 4;
}
);
layerId = "BA196CD0-EE58-4274-B8DF-4393D3617A29";
paths = (
{
closed = 1;
nodes = (
"719 0 LINE",
"719 182 LINE",
"307 164 LINE",
"330 847 LINE",
"230 847 LINE",
"190 0 LINE"
);
}
);
width = 909;
},
{
anchors = (
{
name = bottom;
position = "{459, -178}";
},
{
name = center;
position = "{263, 415}";
},
{
name = right;
position = "{502, 560}";
},
{
name = rightl;
position = "{752, 467}";
},
{
name = tilde;
position = "{268, 401}";
},
{
name = top;
position = "{288, 889}";
},
{
name = topright;
position = "{764, 763}";
}
);
layerId = "BBDB329E-CE83-4304-A6B1-53EA5ACC004E";
paths = (
{
closed = 1;
nodes = (
"736 0 LINE",
"736 205 LINE",
"336 188 LINE",
"352 850 LINE",
"209 850 LINE",
"162 0 LINE"
);
}
);
width = 898;
}
);
unicode = 004C;
},
{
color = 6;
glyphname = M;
lastChange = "2019-10-14 17:09:05 +0000";
layers = (
{
anchors = (
{
name = _top;
position = "{621, 928}";
},
{
name = bottom;
position = "{613, -20}";
},
{
name = hookbelow;
position = "{1025, 177}";
},
{
name = top;
position = "{620, 977}";
}
);
hints = (
{
horizontal = 1;
origin = "{0, 12}";
type = Anchor;
options = 4;
},
{
horizontal = 1;
origin = "{0, 1}";
target = "{0, 11}";
type = TTStem;
options = 4;
}
);
layerId = "BA196CD0-EE58-4274-B8DF-4393D3617A29";
paths = (
{
closed = 1;
nodes = (
"371 0 LINE",
"331 624 LINE",
"555 71 LINE",
"678 71 LINE",
"880 624 LINE",
"835 0 LINE",
"1049 0 LINE",
"982 847 LINE",
"827 847 LINE",
"619 327 LINE",
"405 847 LINE",
"236 847 LINE",
"190 0 LINE"
);
}
);
width = 1239;
},
{
anchors = (
{
name = _top;
position = "{550, 829}";
},
{
name = bottom;
position = "{582, -39}";
},
{
name = hookbelow;
position = "{979, 171}";
},
{
name = top;
position = "{582, 850}";
}
);
layerId = "BBDB329E-CE83-4304-A6B1-53EA5ACC004E";
paths = (
{
closed = 1;
nodes = (
"380 -1 LINE",
"340 520 LINE",
"513 39 LINE",
"666 39 LINE",
"813 524 LINE",
"764 -1 LINE",
"1002 -1 LINE",
"966 850 LINE",
"768 850 LINE",
"587 390 LINE",
"401 850 LINE",
"193 850 LINE",
"162 -1 LINE"
);
}
);
width = 1164;
}
);
unicode = 004D;
},
{
color = 6;
glyphname = N;
lastChange = "2019-10-16 17:35:20 +0000";
layers = (
{
anchors = (
{
name = _;
position = "{568, 0}";
},
{
name = bottom;
position = "{528, 0}";
},
{
name = center;
position = "{572, 366}";
},
{
name = eng;
position = "{736, 9}";
},
{
name = right;
position = "{1101, 390}";
},
{
name = top;
position = "{568, 885}";
}
);
hints = (
{
horizontal = 1;
origin = "{0, 9}";
type = Anchor;
options = 4;
},
{
horizontal = 1;
origin = "{0, 8}";
type = Anchor;
options = 4;
},
{
horizontal = 1;
origin = "{0, 8}";
target = "{0, 1}";
type = TTStem;
options = 4;
},
{
horizontal = 1;
origin = "{0, 9}";
target = "{0, 6}";
type = TTStem;
options = 4;
}
);
layerId = "BA196CD0-EE58-4274-B8DF-4393D3617A29";
paths = (
{
closed = 1;
nodes = (
"374 0 LINE",
"364 590 LINE",
"645 0 LINE",
"842 0 LINE",
"887 846 LINE",
"762 846 LINE",
"706 157 LINE",
"394 816 LINE",
"255 816 LINE",
"190 0 LINE"
);
}
);
width = 1077;
},
{
anchors = (
{
name = _;
position = "{558, 0}";
},
{
name = bottom;
position = "{519, -174}";
},
{
name = center;
position = "{534, 386}";
},
{
name = eng;
position = "{721, 13}";
},
{
name = hook;
position = "{266, 185}";
},
{
name = right;
position = "{969, 299}";
},
{
name = top;
position = "{558, 943}";
}
);
layerId = "BBDB329E-CE83-4304-A6B1-53EA5ACC004E";
paths = (
{
closed = 1;
nodes = (
"410 -2 LINE",
"390 505 LINE",
"605 -2 LINE",
"829 -2 LINE",
"874 849 LINE",
"716 849 LINE",
"671 257 LINE",
"409 807 LINE",
"229 807 LINE",
"162 -2 LINE"
);
}
);
width = 1036;
}
);
unicode = 004E;
},
{
color = 6;
glyphname = O;
lastChange = "2019-10-14 17:09:05 +0000";
layers = (
{
anchors = (
{
name = bottom;
position = "{579, -120}";
},
{
name = center;
position = "{572, 439}";
},
{
name = horn;
position = "{824, 724}";
},
{
name = ogonek;
position = "{945, 13}";
},
{
name = polyomicron;
position = "{229, 761}";
},
{
name = top;
position = "{580, 937}";
},
{
name = topleft;
position = "{128, 793}";
}
);
hints = (
{
horizontal = 1;
origin = "{0, 11}";
target = "{1, 11}";
type = TTStem;
options = 4;
},
{
horizontal = 1;
origin = "{1, 5}";
target = "{0, 5}";
type = TTStem;
options = 4;
}
);
layerId = "BA196CD0-EE58-4274-B8DF-4393D3617A29";
paths = (
{
closed = 1;
nodes = (
"859 -16 OFFCURVE",
"946 131 OFFCURVE",
"953 424 CURVE SMOOTH",
"960 730 OFFCURVE",
"804 852 OFFCURVE",
"572 852 CURVE SMOOTH",
"340 852 OFFCURVE",
"190 718 OFFCURVE",
"190 424 CURVE SMOOTH",
"190 131 OFFCURVE",
"309 -12 OFFCURVE",
"572 -14 CURVE SMOOTH"
);
},
{
closed = 1;
nodes = (
"410 197 OFFCURVE",
"308 243 OFFCURVE",
"308 413 CURVE SMOOTH",
"308 585 OFFCURVE",
"410 761 OFFCURVE",
"572 761 CURVE SMOOTH",
"734 761 OFFCURVE",
"835 585 OFFCURVE",
"835 413 CURVE SMOOTH",
"835 243 OFFCURVE",
"734 197 OFFCURVE",
"572 197 CURVE SMOOTH"
);
}
);
width = 1143;
},
{
anchors = (
{
name = bottom;
position = "{568, -233}";
},
{
name = center;
position = "{568, 428}";
},
{
name = horn;
position = "{891, 733}";
},
{
name = ogonek;
position = "{935, 9}";
},
{
name = polyomicron;
position = "{230, 745}";
},
{
name = top;
position = "{568, 1024}";
},
{
name = topleft;
position = "{131, 776}";
}
);
layerId = "BBDB329E-CE83-4304-A6B1-53EA5ACC004E";
paths = (
{
closed = 1;
nodes = (
"876 -24 OFFCURVE",
"964 76 OFFCURVE",
"973 407 CURVE SMOOTH",
"980 678 OFFCURVE",
"815 858 OFFCURVE",
"568 858 CURVE SMOOTH",
"322 858 OFFCURVE",
"162 680 OFFCURVE",
"162 408 CURVE SMOOTH",
"162 94 OFFCURVE",
"266 -20 OFFCURVE",
"568 -22 CURVE SMOOTH"
);
},
{
closed = 1;
nodes = (
"402 226 OFFCURVE",
"337 277 OFFCURVE",
"337 408 CURVE SMOOTH",
"337 599 OFFCURVE",
"429 721 OFFCURVE",
"568 721 CURVE SMOOTH",
"707 721 OFFCURVE",
"798 599 OFFCURVE",
"798 408 CURVE SMOOTH",
"798 276 OFFCURVE",
"735 226 OFFCURVE",
"568 226 CURVE SMOOTH"
);
}
);
width = 1135;
}
);
unicode = 004F;
},
{
color = 6;
glyphname = P;
lastChange = "2019-10-14 17:09:05 +0000";
layers = (
{
anchors = (
{
name = bottom;
position = "{283, 0}";
},
{
name = center;
position = "{481, 637}";
},
{
name = midstroke;
position = "{245, 448}";
},
{
name = stroke;
position = "{271, 207}";
},
{
name = top;
position = "{465, 939}";
},
{
name = top_hook;
position = "{90, 592}";
}
);
hints = (
{
horizontal = 1;
origin = "{0, 10}";
type = Anchor;
options = 4;
},
{
horizontal = 1;
place = "{271, 139}";
type = TTStem;
options = 4;
},
{
horizontal = 1;
origin = "{0, 9}";
target = "{1, 0}";
type = TTStem;
options = 4;
}
);
layerId = "BA196CD0-EE58-4274-B8DF-4393D3617A29";
paths = (
{
closed = 1;
nodes = (
"358 0 LINE",
"335 383 LINE",
"469 390 LINE SMOOTH",
"655 399 OFFCURVE",
"740 470 OFFCURVE",
"740 644 CURVE SMOOTH",
"740 742 OFFCURVE",
"655 851 OFFCURVE",
"447 851 CURVE SMOOTH",
"237 851 LINE",
"190 0 LINE"
);
},
{
closed = 1;
nodes = (
"329 757 LINE",
"451 757 LINE SMOOTH",
"558 757 OFFCURVE",
"631 712 OFFCURVE",
"631 654 CURVE SMOOTH",
"631 532 OFFCURVE",
"581 522 OFFCURVE",
"481 517 CURVE SMOOTH",
"329 510 LINE"
);
}
);
width = 930;
},
{
anchors = (
{
name = bottom;
position = "{458, 2}";
},
{
name = center;
position = "{471, 640}";
},
{
name = midstroke;
position = "{271, 428}";
},
{
name = stroke;
position = "{261, 145}";
},
{
name = top;
position = "{471, 964}";
},
{
name = top_hook;
position = "{65, 555}";
}
);
layerId = "BBDB329E-CE83-4304-A6B1-53EA5ACC004E";
paths = (
{
closed = 1;
nodes = (
"386 -2 LINE",
"364 313 LINE",
"464 318 LINE SMOOTH",
"656 328 OFFCURVE",
"759 453 OFFCURVE",
"752 591 CURVE SMOOTH",
"744 742 OFFCURVE",
"624 849 OFFCURVE",
"441 849 CURVE SMOOTH",
"211 849 LINE",
"162 -2 LINE"
);
},
{
closed = 1;
nodes = (
"357 720 LINE",
"445 720 LINE SMOOTH",
"556 720 OFFCURVE",
"598 683 OFFCURVE",
"600 639 CURVE SMOOTH",
"604 549 OFFCURVE",
"558 540 OFFCURVE",
"472 536 CURVE SMOOTH",
"357 531 LINE"
);
}
);
width = 914;
}
);
unicode = 0050;
},
{
glyphname = Thorn;
lastChange = "2019-09-16 23:13:19 +0000";
layers = (
{
hints = (
{
horizontal = 1;
origin = "{0, 0}";
type = Anchor;
options = 4;
},
{
horizontal = 1;
origin = "{1, 8}";
target = "{2, 11}";
type = TTStem;
options = 4;
},
{
horizontal = 1;
origin = "{2, 5}";
target = "{1, 5}";
type = TTStem;
options = 4;
},
{
horizontal = 1;
origin = "{0, 3}";
type = Anchor;
options = 4;
},
{
horizontal = 1;
origin = "{0, 3}";
target = "{2, 5}";
type = TTStem;
options = 4;
}
);
layerId = "BA196CD0-EE58-4274-B8DF-4393D3617A29";
paths = (
{
closed = 1;
nodes = (
"54 0 LINE",
"153 0 LINE",
"153 791 LINE",
"54 791 LINE"
);
},
{
closed = 1;
nodes = (
"304 163 OFFCURVE",
"506 277 OFFCURVE",
"506 419 CURVE SMOOTH",
"506 560 OFFCURVE",
"303 675 OFFCURVE",
"140 675 CURVE",
"68 519 OFFCURVE",
"65 319 OFFCURVE",
"140 163 CURVE"
);
},
{
closed = 1;
nodes = (
"139 261 OFFCURVE",
"85 372 OFFCURVE",
"85 424 CURVE SMOOTH",
"85 476 OFFCURVE",
"133 588 OFFCURVE",
"193 588 CURVE SMOOTH",
"252 588 OFFCURVE",
"426 476 OFFCURVE",
"426 424 CURVE SMOOTH",
"426 372 OFFCURVE",
"257 261 OFFCURVE",
"199 261 CURVE SMOOTH"
);
}
);
width = 560;
},
{
layerId = "BBDB329E-CE83-4304-A6B1-53EA5ACC004E";
paths = (
{
closed = 1;
nodes = (
"53 -27 LINE",
"195 -27 LINE",
"195 727 LINE",
"53 727 LINE"
);
},
{
closed = 1;
nodes = (
"156 117 LINE",
"334 117 OFFCURVE",
"507 240 OFFCURVE",
"507 371 CURVE SMOOTH",
"507 501 OFFCURVE",
"333 624 OFFCURVE",
"156 624 CURVE",
"132 608 LINE",
"63 461 OFFCURVE",
"63 275 OFFCURVE",
"132 132 CURVE"
);
},
{
closed = 1;
nodes = (
"180 258 OFFCURVE",
"134 331 OFFCURVE",
"134 375 CURVE SMOOTH",
"134 421 OFFCURVE",
"176 493 OFFCURVE",
"203 493 CURVE SMOOTH",
"244 493 OFFCURVE",
"382 400 OFFCURVE",
"382 375 CURVE SMOOTH",
"382 350 OFFCURVE",
"249 258 OFFCURVE",
"208 258 CURVE SMOOTH"
);
}
);
width = 560;
}
);
unicode = 00DE;
},
{
color = 6;
glyphname = Q;
lastChange = "2019-10-14 17:09:05 +0000";
layers = (
{
anchors = (
{
name = bottom;
position = "{596, 17}";
},
{
name = top;
position = "{596, 808}";
}
);
hints = (
{
horizontal = 1;
origin = "{0, 13}";
target = "{1, 16}";
type = TTStem;
options = 4;
},
{
horizontal = 1;
origin = "{1, 5}";
target = "{0, 7}";
type = TTStem;
options = 4;
}
);
layerId = "BA196CD0-EE58-4274-B8DF-4393D3617A29";
paths = (
{
closed = 1;
nodes = (
"1001 -129 LINE",
"823 66 LINE",
"890 139 OFFCURVE",
"958 239 OFFCURVE",
"958 434 CURVE SMOOTH",
"958 696 OFFCURVE",
"811 865 OFFCURVE",
"577 865 CURVE SMOOTH",
"343 865 OFFCURVE",
"190 663 OFFCURVE",
"190 434 CURVE SMOOTH",
"190 64 OFFCURVE",
"345 2 OFFCURVE",
"571 2 CURVE SMOOTH",
"584 2 OFFCURVE",
"594 2 OFFCURVE",
"618 4 CURVE",
"735 -129 LINE"
);
},
{
closed = 1;
nodes = (
"441 194 OFFCURVE",
"314 193 OFFCURVE",
"314 434 CURVE SMOOTH",
"314 610 OFFCURVE",
"413 774 OFFCURVE",
"577 774 CURVE SMOOTH",
"740 774 OFFCURVE",
"839 644 OFFCURVE",
"839 434 CURVE SMOOTH",
"839 347 OFFCURVE",
"806 229 OFFCURVE",
"772 229 CURVE SMOOTH",
"726 229 OFFCURVE",
"664 253 OFFCURVE",
"603 286 CURVE",
"566 199 LINE",
"505 196 LINE SMOOTH"
);
}
);
width = 1191;
},
{
anchors = (
{
name = bottom;
position = "{579, 14}";
},
{
name = top;
position = "{579, 777}";
}
);
layerId = "BBDB329E-CE83-4304-A6B1-53EA5ACC004E";
paths = (
{
closed = 1;
nodes = (
"1031 -137 LINE",
"835 79 LINE",
"918 179 OFFCURVE",
"953 286 OFFCURVE",
"953 430 CURVE SMOOTH",
"953 698 OFFCURVE",
"799 871 OFFCURVE",
"560 871 CURVE SMOOTH",
"333 871 OFFCURVE",
"162 682 OFFCURVE",
"162 430 CURVE SMOOTH",
"162 133 OFFCURVE",
"307 -30 OFFCURVE",
"587 -11 CURVE",
"698 -137 LINE"
);
},
{
closed = 1;
nodes = (
"429 231 OFFCURVE",
"338 229 OFFCURVE",
"338 430 CURVE SMOOTH",
"338 599 OFFCURVE",
"422 725 OFFCURVE",
"560 725 CURVE SMOOTH",
"697 725 OFFCURVE",
"781 616 OFFCURVE",
"781 430 CURVE SMOOTH",
"781 326 OFFCURVE",
"762 264 OFFCURVE",
"746 264 CURVE SMOOTH",
"707 264 OFFCURVE",
"645 287 OFFCURVE",
"571 330 CURVE",
"529 234 LINE",
"490 233 LINE SMOOTH"
);
}
);
width = 1193;
}
);
unicode = 0051;
},
{
color = 6;
glyphname = R;
lastChange = "2019-10-14 17:09:05 +0000";
layers = (
{
anchors = (
{
name = bottom;
position = "{461, 0}";
},
{
name = bottom_hook;
position = "{324, -29}";
},
{
name = top;
position = "{461, 856}";
}
);
hints = (
{
horizontal = 1;
origin = "{0, 7}";
type = Anchor;
options = 4;
},
{
horizontal = 1;
place = "{288, 110.98}";
type = TTStem;
options = 4;
},
{
horizontal = 1;
origin = "{1, 7}";
target = "{0, 6}";
type = TTStem;
options = 4;
}
);
layerId = "BA196CD0-EE58-4274-B8DF-4393D3617A29";
paths = (
{
closed = 1;
nodes = (
"658 445 OFFCURVE",
"705 501 OFFCURVE",
"705 610 CURVE SMOOTH",
"705 770 OFFCURVE",
"608 847 OFFCURVE",
"442 847 CURVE SMOOTH",
"241 847 LINE",
"190 0 LINE",
"367 0 LINE",
"348 342 LINE",
"407 353 LINE SMOOTH",
"475 364 OFFCURVE",
"596 356 OFFCURVE",
"590 235 CURVE SMOOTH",
"580 0 LINE",
"783 0 LINE",
"719 249 LINE SMOOTH",
"684 385 OFFCURVE",
"628 400 OFFCURVE",
"581 433 CURVE"
);
},
{
closed = 1;
nodes = (
"538 755 OFFCURVE",
"615 718 OFFCURVE",
"615 610 CURVE SMOOTH",
"615 562 OFFCURVE",
"538 504 OFFCURVE",
"453 504 CURVE SMOOTH",
"313 504 LINE",
"313 755 LINE",
"453 755 LINE SMOOTH"
);
}
);
width = 973;
},
{
anchors = (
{
name = bottom;
position = "{456, -92}";
},
{
name = bottom_hook;
position = "{243, -22}";
},
{
name = top;
position = "{437, 907}";
}
);
layerId = "BBDB329E-CE83-4304-A6B1-53EA5ACC004E";
paths = (
{
closed = 1;
nodes = (
"690 436 OFFCURVE",
"721 498 OFFCURVE",
"721 585 CURVE SMOOTH",
"721 771 OFFCURVE",
"618 850 OFFCURVE",
"437 850 CURVE SMOOTH",
"216 850 LINE",
"162 4 LINE",
"397 4 LINE",
"377 293 LINE",
"431 319 LINE SMOOTH",
"514 359 OFFCURVE",
"553 282 OFFCURVE",
"550 215 CURVE SMOOTH",
"540 4 LINE",
"806 4 LINE",
"733 234 LINE SMOOTH",
"714 293 OFFCURVE",
"678 364 OFFCURVE",
"633 404 CURVE"
);
},
{
closed = 1;
nodes = (
"540 738 OFFCURVE",
"579 728 OFFCURVE",
"579 612 CURVE SMOOTH",
"579 493 OFFCURVE",
"519 491 OFFCURVE",
"448 491 CURVE SMOOTH",
"342 491 LINE",
"342 738 LINE",
"448 738 LINE SMOOTH"
);
}
);
width = 968;
}
);
unicode = 0052;
},
{
color = 6;
glyphname = S;
lastChange = "2019-10-14 17:09:05 +0000";
layers = (
{
anchors = (
{
name = bottom;
position = "{551, -88}";
},
{
name = center;
position = "{572, 431}";
},
{
name = top;
position = "{545, 946}";
}
);
hints = (
{
horizontal = 1;
origin = "{0, 22}";
target = "{0, 15}";
type = TTStem;
options = 4;
},
{
horizontal = 1;
origin = "{0, 35}";
target = "{0, 2}";
type = TTStem;
options = 4;
}
);
layerId = "BA196CD0-EE58-4274-B8DF-4393D3617A29";
paths = (
{
closed = 1;
nodes = (
"724 855 OFFCURVE",
"604 860 OFFCURVE",
"561 860 CURVE SMOOTH",
"353 860 OFFCURVE",
"272 751 OFFCURVE",
"272 605 CURVE SMOOTH",
"272 480 OFFCURVE",
"342 413 OFFCURVE",
"508 380 CURVE SMOOTH",
"575 367 LINE SMOOTH",
"676 347 OFFCURVE",
"710 313 OFFCURVE",
"709 260 CURVE SMOOTH",
"707 177 OFFCURVE",
"629 180 OFFCURVE",
"572 180 CURVE SMOOTH",
"510 180 OFFCURVE",
"354 180 OFFCURVE",
"311 213 CURVE",
"190 44 LINE",
"285 -23 OFFCURVE",
"390 -14 OFFCURVE",
"536 -14 CURVE SMOOTH",
"801 -14 OFFCURVE",
"935 100 OFFCURVE",
"935 236 CURVE SMOOTH",
"935 370 OFFCURVE",
"778 462 OFFCURVE",
"608 496 CURVE SMOOTH",
"542 509 LINE SMOOTH",
"443 530 OFFCURVE",
"383 539 OFFCURVE",
"389 611 CURVE SMOOTH",
"396 698 OFFCURVE",
"487 730 OFFCURVE",
"607 739 CURVE SMOOTH",
"719 747 OFFCURVE",
"722 726 OFFCURVE",
"779 721 CURVE",
"796 839 LINE"
);
}
);
width = 1125;
},
{
anchors = (
{
name = bottom;
position = "{534, -67}";
},
{
name = center;
position = "{550, 431}";
},
{
name = top;
position = "{534, 915}";
}
);
layerId = "BBDB329E-CE83-4304-A6B1-53EA5ACC004E";
paths = (
{
closed = 1;
nodes = (
"775 -11 OFFCURVE",
"907 84 OFFCURVE",
"907 226 CURVE SMOOTH",
"907 360 OFFCURVE",
"790 461 OFFCURVE",
"594 501 CURVE SMOOTH",
"530 514 LINE SMOOTH",
"429 535 OFFCURVE",
"405 573 OFFCURVE",
"405 617 CURVE SMOOTH",
"405 663 OFFCURVE",
"494 720 OFFCURVE",
"555 720 CURVE SMOOTH",
"584 720 OFFCURVE",
"661 707 OFFCURVE",
"713 689 CURVE",
"788 833 LINE",
"752 846 OFFCURVE",
"630 864 OFFCURVE",
"543 864 CURVE SMOOTH",
"353 864 OFFCURVE",
"239 767 OFFCURVE",
"239 601 CURVE SMOOTH",
"239 464 OFFCURVE",
"313 378 OFFCURVE",
"486 343 CURVE SMOOTH",
"551 330 LINE SMOOTH",
"583 324 OFFCURVE",
"708 269 OFFCURVE",
"708 234 CURVE SMOOTH",
"708 190 OFFCURVE",
"646 128 OFFCURVE",
"499 167 CURVE SMOOTH",
"420 188 OFFCURVE",
"317 236 OFFCURVE",
"303 248 CURVE",
"162 63 LINE",
"295 -14 OFFCURVE",
"467 -11 OFFCURVE",
"519 -11 CURVE SMOOTH"
);
}
);
width = 1069;
}
);
unicode = 0053;
},
{
glyphname = Saltillo;
lastChange = "2019-09-02 15:01:09 +0000";
layers = (
{
layerId = "BA196CD0-EE58-4274-B8DF-4393D3617A29";
paths = (
{
closed = 1;
nodes = (
"158 120 LINE",
"261 120 LINE",
"312 763 LINE",
"80 763 LINE"
);
}
);
width = 392;
},
{
layerId = "BBDB329E-CE83-4304-A6B1-53EA5ACC004E";
paths = (
{
closed = 1;
nodes = (
"238 93 LINE",
"390 93 LINE",
"445 790 LINE",
"154 790 LINE"
);
}
);
width = 600;
}
);
unicode = A78B;
},
{
color = 6;
glyphname = T;
lastChange = "2019-10-14 17:09:05 +0000";
layers = (
{
anchors = (
{
name = bottom;
position = "{538, 0}";
},
{
name = bottom_hook;
position = "{571, -33}";
},
{
name = center;
position = "{538, 412}";
},
{
name = hook_top;
position = "{228, 781}";
},
{
name = top;
position = "{538, 882}";
}
);
hints = (
{
horizontal = 1;
origin = "{0, 7}";
type = Anchor;
options = 4;
},
{
horizontal = 1;
place = "{685, 78}";
type = TTStem;
options = 4;
}
);
layerId = "BA196CD0-EE58-4274-B8DF-4393D3617A29";
paths = (
{
closed = 1;
nodes = (
"617 0 LINE",
"594 742 LINE",
"887 731 LINE",
"887 847 LINE",
"190 847 LINE",
"190 720 LINE",
"483 742 LINE",
"450 0 LINE"
);
}
);
width = 1077;
},
{
anchors = (
{
name = bottom;
position = "{527, -33}";
},
{
name = bottom_hook;
position = "{559, -32}";
},
{
name = center;
position = "{527, 398}";
},
{
name = hook_top;
position = "{249, 753}";
},
{
name = top;
position = "{527, 916}";
}
);
layerId = "BBDB329E-CE83-4304-A6B1-53EA5ACC004E";
paths = (
{
closed = 1;
nodes = (
"443 680 LINE",
"422 -2 LINE",
"634 -2 LINE",
"612 680 LINE",
"893 669 LINE",
"893 849 LINE",
"162 849 LINE",
"162 669 LINE"
);
}
);
width = 1055;
}
);
unicode = 0054;
},
{
color = 6;
glyphname = U;
lastChange = "2019-10-14 17:09:05 +0000";
layers = (
{
anchors = (
{
name = bottom;
position = "{525, -86}";
},
{
name = center;
position = "{511, 449}";
},
{
name = horn;
position = "{877, 760}";
},
{
name = ogonek;
position = "{694, 40}";
},
{
name = top;
position = "{529, 947}";
},
{
name = top_hook;
position = "{802, 741}";
},
{
name = topright;
position = "{926, 791}";
}
);
hints = (
{
horizontal = 1;
origin = "{0, 2}";
target = "{0, 11}";
type = TTStem;
options = 4;
}
);
layerId = "BA196CD0-EE58-4274-B8DF-4393D3617A29";
paths = (
{
closed = 1;
nodes = (
"220 -15 OFFCURVE",
"316 -3 OFFCURVE",
"525 -3 CURVE SMOOTH",
"732 -3 OFFCURVE",
"824 -15 OFFCURVE",
"839 310 CURVE SMOOTH",
"864 848 LINE",
"694 848 LINE",
"710 423 LINE SMOOTH",
"719 183 OFFCURVE",
"645 183 OFFCURVE",
"525 183 CURVE SMOOTH",
"404 183 OFFCURVE",
"328 183 OFFCURVE",
"337 423 CURVE SMOOTH",
"353 848 LINE",
"190 848 LINE",
"208 310 LINE SMOOTH"
);
}
);
width = 1054;
},
{
anchors = (
{
name = bottom;
position = "{515, -76}";
},
{
name = center;
position = "{498, 482}";
},
{
name = horn;
position = "{905, 812}";
},
{
name = ogonek;
position = "{678, 39}";
},
{
name = top;
position = "{519, 996}";
},
{
name = top_hook;
position = "{760, 748}";
},
{
name = topright;
position = "{902, 764}";
}
);
layerId = "BBDB329E-CE83-4304-A6B1-53EA5ACC004E";
paths = (
{
closed = 1;
nodes = (
"191 -39 OFFCURVE",
"313 -6 OFFCURVE",
"515 -6 CURVE SMOOTH",
"714 -6 OFFCURVE",
"831 -39 OFFCURVE",
"847 304 CURVE SMOOTH",
"872 850 LINE",
"648 850 LINE",
"664 391 LINE SMOOTH",
"669 245 OFFCURVE",
"652 223 OFFCURVE",
"515 223 CURVE SMOOTH",
"376 223 OFFCURVE",
"358 245 OFFCURVE",
"363 391 CURVE SMOOTH",
"380 850 LINE",
"162 850 LINE",
"180 304 LINE SMOOTH"
);
}
);
width = 1034;
}
);
unicode = 0055;
},
{
color = 6;
glyphname = V;
lastChange = "2019-10-14 17:09:05 +0000";
layers = (
{
anchors = (
{
name = bottom;
position = "{579, 0}";
},
{
name = top;
position = "{579, 889}";
},
{
name = top_hook;
position = "{876, 703}";
}
);
hints = (
{
horizontal = 1;
origin = "{0, 6}";
target = "{0, 3}";
type = TTStem;
options = 4;
}
);
layerId = "BA196CD0-EE58-4274-B8DF-4393D3617A29";
paths = (
{
closed = 1;
nodes = (
"968 847 LINE",
"841 847 LINE",
"595 242 LINE",
"542 242 LINE",
"318 847 LINE",
"190 847 LINE",
"458 0 LINE",
"689 0 LINE"
);
}
);
width = 1158;
},
{
anchors = (
{
name = bottom;
position = "{566, 2}";
},
{
name = top;
position = "{566, 926}";
},
{
name = top_hook;
position = "{853, 680}";
}
);
layerId = "BBDB329E-CE83-4304-A6B1-53EA5ACC004E";
paths = (
{
closed = 1;
nodes = (
"970 850 LINE",
"799 850 LINE",
"562 313 LINE",
"551 313 LINE",
"335 850 LINE",
"162 850 LINE",
"428 0 LINE",
"694 0 LINE"
);
}
);
width = 1132;
}
);
unicode = 0056;
},
{
glyphname = Gammaafrican;
lastChange = "2019-09-05 19:28:16 +0000";
layers = (
{
hints = (
{
horizontal = 1;
origin = "{0, 23}";
target = "{0, 10}";
type = TTStem;
options = 4;
},
{
horizontal = 1;
origin = "{0, 4}";
type = Anchor;
options = 4;
}
);
layerId = "BA196CD0-EE58-4274-B8DF-4393D3617A29";
paths = (
{
closed = 1;
nodes = (
"272 749 CURVE SMOOTH",
"260 771 OFFCURVE",
"256 775 OFFCURVE",
"239 800 CURVE",
"80 800 LINE",
"93 780 OFFCURVE",
"118 738 OFFCURVE",
"126 726 CURVE SMOOTH",
"554 16 OFFCURVE",
"631 -78 OFFCURVE",
"464 -73 CURVE SMOOTH",
"252 -67 OFFCURVE",
"357 98 OFFCURVE",
"813 713 CURVE SMOOTH",
"820 723 OFFCURVE",
"869 783 OFFCURVE",
"882 800 CURVE",
"698 800 LINE",
"686 783 OFFCURVE",
"688 789 OFFCURVE",
"678 772 CURVE SMOOTH",
"263 93 OFFCURVE",
"-60 -194 OFFCURVE",
"468 -200 CURVE SMOOTH",
"905 -205 OFFCURVE",
"650 27 OFFCURVE"
);
}
);
width = 962;
},
{
layerId = "BBDB329E-CE83-4304-A6B1-53EA5ACC004E";
paths = (
{
closed = 1;
nodes = (
"949 -233 OFFCURVE",
"655 62 OFFCURVE",
"289 762 CURVE SMOOTH",
"273 791 OFFCURVE",
"268 794 OFFCURVE",
"246 827 CURVE",
"23 827 LINE",
"63 767 OFFCURVE",
"87 725 OFFCURVE",
"96 712 CURVE",
"529 -6 OFFCURVE",
"572 -49 OFFCURVE",
"458 -46 CURVE SMOOTH",
"305 -42 OFFCURVE",
"348 49 OFFCURVE",
"828 697 CURVE",
"823 690 OFFCURVE",
"846 716 OFFCURVE",
"939 827 CURVE",
"677 827 LINE",
"657 797 OFFCURVE",
"660 806 OFFCURVE",
"648 786 CURVE SMOOTH",
"245 127 OFFCURVE",
"-119 -220 OFFCURVE",
"461 -227 CURVE SMOOTH"
);
}
);
width = 948;
}
);
unicode = 0194;
},
{
color = 6;
glyphname = W;
lastChange = "2019-10-14 17:09:05 +0000";
layers = (
{
anchors = (
{
name = bottom;
position = "{712, 0}";
},
{
name = center;
position = "{711, 519}";
},
{
name = top;
position = "{709, 916}";
},
{
name = top_hook;
position = "{1304, 569}";
}
);
hints = (
{
horizontal = 1;
origin = "{0, 12}";
type = Anchor;
options = 4;
}
);
layerId = "BA196CD0-EE58-4274-B8DF-4393D3617A29";
paths = (
{
closed = 1;
nodes = (
"548 0 LINE",
"712 411 LINE",
"863 0 LINE",
"1026 0 LINE",
"1233 849 LINE",
"1103 849 LINE",
"936 233 LINE",
"757 614 LINE",
"660 614 LINE",
"465 244 LINE",
"320 847 LINE",
"190 847 LINE",
"374 0 LINE"
);
}
);
width = 1423;
},
{
anchors = (
{
name = bottom;
position = "{722, 0}";
},
{
name = center;
position = "{726, 509}";
},
{
name = top;
position = "{706, 977}";
},
{
name = top_hook;
position = "{1293, 545}";
}
);
layerId = "BBDB329E-CE83-4304-A6B1-53EA5ACC004E";
paths = (
{
closed = 1;
nodes = (
"595 0 LINE",
"721 321 LINE",
"837 0 LINE",
"1058 0 LINE",
"1262 848 LINE",
"1066 848 LINE",
"932 295 LINE",
"784 621 LINE",
"654 621 LINE",
"491 304 LINE",
"366 848 LINE",
"162 848 LINE",
"342 0 LINE"
);
}
);
width = 1424;
}
);
unicode = 0057;
},
{
color = 6;
glyphname = X;
lastChange = "2019-10-14 17:09:05 +0000";
layers = (
{
anchors = (
{
name = bottom;
position = "{568, 0}";
},
{
name = bottom_hook;
position = "{820, 24}";
},
{
name = top;
position = "{568, 791}";
}
);
hints = (
{
horizontal = 1;
origin = "{1, 1}";
type = Anchor;
options = 4;
}
);
layerId = "BA196CD0-EE58-4274-B8DF-4393D3617A29";
paths = (
{
closed = 1;
nodes = (
"755 -1 LINE",
"945 -1 LINE",
"344 848 LINE",
"232 848 LINE"
);
},
{
closed = 1;
nodes = (
"190 -1 LINE",
"383 -1 LINE",
"918 848 LINE",
"808 848 LINE"
);
}
);
width = 1135;
},
{
anchors = (
{
name = bottom;
position = "{562, 0}";
},
{
name = bottom_hook;
position = "{805, 23}";
},
{
name = top;
position = "{562, 901}";
}
);
layerId = "BBDB329E-CE83-4304-A6B1-53EA5ACC004E";
paths = (
{
closed = 1;
nodes = (
"411 0 LINE",
"931 850 LINE",
"767 850 LINE",
"162 0 LINE"
);
},
{
closed = 1;
nodes = (
"960 0 LINE",
"372 850 LINE",
"198 850 LINE",
"704 0 LINE"
);
}
);
width = 1122;
}
);
unicode = 0058;
},
{
color = 6;
glyphname = Y;
lastChange = "2019-10-14 17:09:05 +0000";
layers = (
{
anchors = (
{
name = bottom;
position = "{505, -109}";
},
{
name = center;
position = "{532, 313}";
},
{
name = top;
position = "{531, 963}";
},
{
name = top_hook;
position = "{930, 565}";
},
{
name = topleft;
position = "{128, 791}";
}
);
hints = (
{
horizontal = 1;
origin = "{0, 0}";
type = Anchor;
options = 4;
}
);
layerId = "BA196CD0-EE58-4274-B8DF-4393D3617A29";
paths = (
{
closed = 1;
nodes = (
"398 -1 LINE",
"604 -1 LINE",
"604 296 LINE",
"872 849 LINE",
"752 849 LINE",
"532 461 LINE",
"310 849 LINE",
"190 849 LINE",
"454 296 LINE"
);
}
);
width = 1062;
},
{
anchors = (
{
name = bottom;
position = "{538, -109}";
},
{
name = center;
position = "{539, 318}";
},
{
name = top;
position = "{530, 1068}";
},
{
name = top_hook;
position = "{990, 545}";
},
{
name = topleft;
position = "{88, 763}";
}
);
layerId = "BBDB329E-CE83-4304-A6B1-53EA5ACC004E";
paths = (
{
closed = 1;
nodes = (
"412 -1 LINE",
"648 -1 LINE",
"638 266 LINE",
"914 850 LINE",
"734 850 LINE",
"539 473 LINE",
"342 850 LINE",
"162 850 LINE",
"434 266 LINE"
);
}
);
width = 1076;
}
);
unicode = 0059;
},
{
color = 6;
glyphname = Z;
lastChange = "2019-10-14 17:09:05 +0000";
layers = (
{
anchors = (
{
name = bottom;
position = "{555, -113}";
},
{
name = center;
position = "{555, 395}";
},
{
name = top;
position = "{552, 899}";
}
);
layerId = "BA196CD0-EE58-4274-B8DF-4393D3617A29";
paths = (
{
closed = 1;
nodes = (
"939 7 LINE",
"886 165 LINE",
"453 165 LINE",
"907 685 LINE",
"919 849 LINE",
"283 849 LINE",
"333 705 LINE",
"735 710 LINE",
"190 157 LINE",
"190 0 LINE"
);
}
);
width = 1129;
},
{
anchors = (
{
name = bottom;
position = "{543, -182}";
},
{
name = center;
position = "{543, 384}";
},
{
name = top;
position = "{540, 887}";
}
);
layerId = "BBDB329E-CE83-4304-A6B1-53EA5ACC004E";
paths = (
{
closed = 1;
nodes = (
"617 657 LINE",
"162 195 LINE",
"162 0 LINE",
"911 0 LINE",
"841 219 LINE",
"538 218 LINE",
"923 690 LINE",
"923 850 LINE",
"216 850 LINE",
"302 663 LINE"
);
}
);
width = 1085;
}
);
unicode = 005A;
},
{
glyphname = Gsmallhook;
lastChange = "2019-09-18 15:28:20 +0000";
layers = (
{
anchors = (
{
name = _top_hook;
position = "{714, 66}";
},
{
name = center;
position = "{718, 299}";
}
);
components = (
{
name = Gsmall;
transform = "{1, 0, 0, 1, 26, 0}";
}
);
hints = (
{
horizontal = 1;
origin = "{0, 12}";
target = "{0, 13}";
type = TTStem;
options = 4;
}
);
layerId = "BA196CD0-EE58-4274-B8DF-4393D3617A29";
paths = (
{
closed = 1;
nodes = (
"440 707 OFFCURVE",
"419 702 OFFCURVE",
"415 603 CURVE SMOOTH",
"413 559 OFFCURVE",
"413 573 OFFCURVE",
"413 511 CURVE",
"479 520 LINE",
"479 547 OFFCURVE",
"479 569 OFFCURVE",
"479 595 CURVE SMOOTH",
"479 638 OFFCURVE",
"482 640 OFFCURVE",
"542 640 CURVE",
"551 707 LINE"
);
}
);
width = 619;
},
{
anchors = (
{
name = _top_hook;
position = "{846, 66}";
},
{
name = center;
position = "{850, 299}";
}
);
components = (
{
name = Gsmall;
transform = "{1, 0, 0, 1, 158, 0}";
}
);
layerId = "BBDB329E-CE83-4304-A6B1-53EA5ACC004E";
paths = (
{
closed = 1;
nodes = (
"520 762 OFFCURVE",
"488 746 OFFCURVE",
"483 616 CURVE SMOOTH",
"481 561 OFFCURVE",
"481 586 OFFCURVE",
"481 484 CURVE",
"620 484 LINE",
"620 529 OFFCURVE",
"620 558 OFFCURVE",
"620 596 CURVE SMOOTH",
"620 632 OFFCURVE",
"608 617 OFFCURVE",
"691 621 CURVE",
"691 759 LINE"
);
}
);
width = 883;
}
);
unicode = 029B;
},
{
color = 7;
glyphname = a;
lastChange = "2019-10-14 17:09:05 +0000";
layers = (
{
anchors = (
{
name = abovecomb;
position = "{395, 615}";
},
{
name = bottom;
position = "{390, -84}";
},
{
name = bottomright;
position = "{619, 50}";
},
{
name = dotbelow;
position = "{391, -8}";
},
{
name = top;
position = "{397, 644}";
}
);
background = {
components = (
{
alignment = -1;
name = "";
transform = "{1, 0, 0, 1, 130, 150}";
},
{
alignment = -1;
name = "";
transform = "{1, 0, 0, 1, 130, 200}";
},
{
alignment = -1;
name = "";
transform = "{1, 0, 0, 1, 180, 50}";
},
{
alignment = -1;
name = "";
transform = "{1, 0, 0, 1, 180, 100}";
},
{
alignment = -1;
name = "";
transform = "{1, 0, 0, 1, 180, 150}";
},
{
alignment = -1;
name = "";
transform = "{1, 0, 0, 1, 180, 200}";
},
{
alignment = -1;
name = "";
transform = "{1, 0, 0, 1, 180, 250}";
},
{
alignment = -1;
name = "";
transform = "{1, 0, 0, 1, 180, 300}";
},
{
alignment = -1;
name = "";
transform = "{1, 0, 0, 1, 180, 350}";
},
{
alignment = -1;
name = "";
transform = "{1, 0, 0, 1, 230, 0}";
},
{
alignment = -1;
name = "";
transform = "{1, 0, 0, 1, 230, 50}";
},
{
alignment = -1;
name = "";
transform = "{1, 0, 0, 1, 230, 100}";
},
{
alignment = -1;
name = "";
transform = "{1, 0, 0, 1, 230, 400}";
},
{
alignment = -1;
name = "";
transform = "{1, 0, 0, 1, 280, 0}";
},
{
alignment = -1;
name = "";
transform = "{1, 0, 0, 1, 280, 50}";
},
{
alignment = -1;
name = "";
transform = "{1, 0, 0, 1, 280, 100}";
},
{
alignment = -1;
name = "";
transform = "{1, 0, 0, 1, 280, 450}";
},
{
alignment = -1;
name = "";
transform = "{1, 0, 0, 1, 330, 0}";
},
{
alignment = -1;
name = "";
transform = "{1, 0, 0, 1, 330, 50}";
},
{
alignment = -1;
name = "";
transform = "{1, 0, 0, 1, 330, 100}";
},
{
alignment = -1;
name = "";
transform = "{1, 0, 0, 1, 330, 450}";
},
{
alignment = -1;
name = "";
transform = "{1, 0, 0, 1, 380, 0}";
},
{
alignment = -1;
name = "";
transform = "{1, 0, 0, 1, 380, 50}";
},
{
alignment = -1;
name = "";
transform = "{1, 0, 0, 1, 380, 100}";
},
{
alignment = -1;
name = "";
transform = "{1, 0, 0, 1, 380, 450}";
},
{
alignment = -1;
name = "";
transform = "{1, 0, 0, 1, 430, 0}";
},
{
alignment = -1;
name = "";
transform = "{1, 0, 0, 1, 430, 50}";
},
{
alignment = -1;
name = "";
transform = "{1, 0, 0, 1, 430, 100}";
},
{
alignment = -1;
name = "";
transform = "{1, 0, 0, 1, 430, 450}";
},
{
alignment = -1;
name = "";
transform = "{1, 0, 0, 1, 480, 0}";
},
{
alignment = -1;
name = "";
transform = "{1, 0, 0, 1, 480, 50}";
},
{
alignment = -1;
name = "";
transform = "{1, 0, 0, 1, 480, 100}";
},
{
alignment = -1;
name = "";
transform = "{1, 0, 0, 1, 480, 450}";
},
{
alignment = -1;
name = "";
transform = "{1, 0, 0, 1, 530, 50}";
},
{
alignment = -1;
name = "";
transform = "{1, 0, 0, 1, 530, 100}";
},
{
alignment = -1;
name = "";
transform = "{1, 0, 0, 1, 530, 150}";
},
{
alignment = -1;
name = "";
transform = "{1, 0, 0, 1, 530, 200}";
},
{
alignment = -1;
name = "";
transform = "{1, 0, 0, 1, 530, 250}";
},
{
alignment = -1;
name = "";
transform = "{1, 0, 0, 1, 530, 300}";
},
{
alignment = -1;
name = "";
transform = "{1, 0, 0, 1, 530, 350}";
},
{
alignment = -1;
name = "";
transform = "{1, 0, 0, 1, 530, 400}";
},
{
alignment = -1;
name = "";
transform = "{1, 0, 0, 1, 530, 450}";
},
{
alignment = -1;
name = "";
transform = "{1, 0, 0, 1, 530, 500}";
},
{
alignment = -1;
name = "";
transform = "{1, 0, 0, 1, 580, 0}";
},
{
alignment = -1;
name = "";
transform = "{1, 0, 0, 1, 580, 50}";
},
{
alignment = -1;
name = "";
transform = "{1, 0, 0, 1, 580, 100}";
},
{
alignment = -1;
name = "";
transform = "{1, 0, 0, 1, 580, 150}";
},
{
alignment = -1;
name = "";
transform = "{1, 0, 0, 1, 580, 200}";
},
{
alignment = -1;
name = "";
transform = "{1, 0, 0, 1, 580, 250}";
},
{
alignment = -1;
name = "";
transform = "{1, 0, 0, 1, 580, 300}";
},
{
alignment = -1;
name = "";
transform = "{1, 0, 0, 1, 580, 350}";
}
);
paths = (
{
closed = 1;
nodes = (
"539 525 LINE",
"590 525 LINE",
"657 0 LINE",
"567 0 LINE",
"567 82 LINE",
"529 17 OFFCURVE",
"457 -14 OFFCURVE",
"377 -14 CURVE SMOOTH",
"215 -14 OFFCURVE",
"115 105 OFFCURVE",
"160 273 CURVE SMOOTH",
"199 419 OFFCURVE",
"286 525 OFFCURVE",
"377 525 CURVE SMOOTH",
"448 525 OFFCURVE",
"515 504 OFFCURVE",
"551 446 CURVE"
);
},
{
closed = 1;
nodes = (
"192 175 OFFCURVE",
"215 136 OFFCURVE",
"365 138 CURVE SMOOTH",
"546 140 OFFCURVE",
"550 170 OFFCURVE",
"550 299 CURVE SMOOTH",
"550 448 OFFCURVE",
"443 476 OFFCURVE",
"376 476 CURVE",
"315 476 OFFCURVE",
"256 434 OFFCURVE",
"222 296 CURVE SMOOTH"
);
}
);
};
hints = (
{
horizontal = 1;
origin = "{0, 16}";
target = "{1, 11}";
type = TTStem;
options = 4;
},
{
horizontal = 1;
origin = "{1, 5}";
target = "{0, 10}";
type = TTStem;
options = 4;
},
{
horizontal = 1;
origin = "{0, 3}";
type = Anchor;
options = 4;
}
);
layerId = "BA196CD0-EE58-4274-B8DF-4393D3617A29";
paths = (
{
closed = 1;
nodes = (
"457 -14 OFFCURVE",
"529 17 OFFCURVE",
"567 82 CURVE",
"567 0 LINE",
"667 0 LINE",
"610 547 LINE",
"539 547 LINE",
"541 489 LINE",
"505 547 OFFCURVE",
"450 569 OFFCURVE",
"371 558 CURVE SMOOTH",
"314 550 OFFCURVE",
"198 519 OFFCURVE",
"161 312 CURVE SMOOTH",
"123 100 OFFCURVE",
"220 -14 OFFCURVE",
"377 -14 CURVE SMOOTH"
);
},
{
closed = 1;
nodes = (
"247 138 OFFCURVE",
"223 197 OFFCURVE",
"235 286 CURVE SMOOTH",
"254 424 OFFCURVE",
"336 474 OFFCURVE",
"392 474 CURVE",
"459 474 OFFCURVE",
"533 451 OFFCURVE",
"533 299 CURVE SMOOTH",
"533 250 OFFCURVE",
"526 138 OFFCURVE",
"365 138 CURVE SMOOTH"
);
}
);
width = 820;
},
{
anchors = (
{
name = abovecomb;
position = "{406, 652}";
},
{
name = bottom;
position = "{419, -146}";
},
{
name = bottomright;
position = "{641, 0}";
},
{
name = top;
position = "{397, 667}";
}
);
background = {
components = (
{
alignment = -1;
name = "";
transform = "{1, 0, 0, 1, 143, 150}";
},
{
alignment = -1;
name = "";
transform = "{1, 0, 0, 1, 143, 200}";
},
{
alignment = -1;
name = "";
transform = "{1, 0, 0, 1, 193, 50}";
},
{
alignment = -1;
name = "";
transform = "{1, 0, 0, 1, 193, 100}";
},
{
alignment = -1;
name = "";
transform = "{1, 0, 0, 1, 193, 150}";
},
{
alignment = -1;
name = "";
transform = "{1, 0, 0, 1, 193, 200}";
},
{
alignment = -1;
name = "";
transform = "{1, 0, 0, 1, 193, 250}";
},
{
alignment = -1;
name = "";
transform = "{1, 0, 0, 1, 193, 300}";
},
{
alignment = -1;
name = "";
transform = "{1, 0, 0, 1, 193, 350}";
},
{
alignment = -1;
name = "";
transform = "{1, 0, 0, 1, 243, 0}";
},
{
alignment = -1;
name = "";
transform = "{1, 0, 0, 1, 243, 50}";
},
{
alignment = -1;
name = "";
transform = "{1, 0, 0, 1, 243, 100}";
},
{
alignment = -1;
name = "";
transform = "{1, 0, 0, 1, 243, 400}";
},
{
alignment = -1;
name = "";
transform = "{1, 0, 0, 1, 293, 0}";
},
{
alignment = -1;
name = "";
transform = "{1, 0, 0, 1, 293, 50}";
},
{
alignment = -1;
name = "";
transform = "{1, 0, 0, 1, 293, 100}";
},
{
alignment = -1;
name = "";
transform = "{1, 0, 0, 1, 293, 450}";
},
{
alignment = -1;
name = "";
transform = "{1, 0, 0, 1, 343, 0}";
},
{
alignment = -1;
name = "";
transform = "{1, 0, 0, 1, 343, 50}";
},
{
alignment = -1;
name = "";
transform = "{1, 0, 0, 1, 343, 100}";
},
{
alignment = -1;
name = "";
transform = "{1, 0, 0, 1, 343, 450}";
},
{
alignment = -1;
name = "";
transform = "{1, 0, 0, 1, 393, 0}";
},
{
alignment = -1;
name = "";
transform = "{1, 0, 0, 1, 393, 50}";
},
{
alignment = -1;
name = "";
transform = "{1, 0, 0, 1, 393, 100}";
},
{
alignment = -1;
name = "";
transform = "{1, 0, 0, 1, 393, 450}";
},
{
alignment = -1;
name = "";
transform = "{1, 0, 0, 1, 443, 0}";
},
{
alignment = -1;
name = "";
transform = "{1, 0, 0, 1, 443, 50}";
},
{
alignment = -1;
name = "";
transform = "{1, 0, 0, 1, 443, 100}";
},
{
alignment = -1;
name = "";
transform = "{1, 0, 0, 1, 443, 450}";
},
{
alignment = -1;
name = "";
transform = "{1, 0, 0, 1, 493, 0}";
},
{
alignment = -1;
name = "";
transform = "{1, 0, 0, 1, 493, 50}";
},
{
alignment = -1;
name = "";
transform = "{1, 0, 0, 1, 493, 100}";
},
{
alignment = -1;
name = "";
transform = "{1, 0, 0, 1, 493, 450}";
},
{
alignment = -1;
name = "";
transform = "{1, 0, 0, 1, 543, 50}";
},
{
alignment = -1;
name = "";
transform = "{1, 0, 0, 1, 543, 100}";
},
{
alignment = -1;
name = "";
transform = "{1, 0, 0, 1, 543, 150}";
},
{
alignment = -1;
name = "";
transform = "{1, 0, 0, 1, 543, 200}";
},
{
alignment = -1;
name = "";
transform = "{1, 0, 0, 1, 543, 250}";
},
{
alignment = -1;
name = "";
transform = "{1, 0, 0, 1, 543, 300}";
},
{
alignment = -1;
name = "";
transform = "{1, 0, 0, 1, 543, 350}";
},
{
alignment = -1;
name = "";
transform = "{1, 0, 0, 1, 543, 400}";
},
{
alignment = -1;
name = "";
transform = "{1, 0, 0, 1, 543, 450}";
},
{
alignment = -1;
name = "";
transform = "{1, 0, 0, 1, 543, 500}";
},
{
alignment = -1;
name = "";
transform = "{1, 0, 0, 1, 593, 0}";
},
{
alignment = -1;
name = "";
transform = "{1, 0, 0, 1, 593, 50}";
},
{
alignment = -1;
name = "";
transform = "{1, 0, 0, 1, 593, 100}";
},
{
alignment = -1;
name = "";
transform = "{1, 0, 0, 1, 593, 150}";
},
{
alignment = -1;
name = "";
transform = "{1, 0, 0, 1, 593, 200}";
},
{
alignment = -1;
name = "";
transform = "{1, 0, 0, 1, 593, 250}";
},
{
alignment = -1;
name = "";
transform = "{1, 0, 0, 1, 593, 300}";
},
{
alignment = -1;
name = "";
transform = "{1, 0, 0, 1, 593, 350}";
}
);
paths = (
{
closed = 1;
nodes = (
"552 525 LINE",
"603 525 LINE",
"670 0 LINE",
"580 0 LINE",
"580 82 LINE",
"542 17 OFFCURVE",
"470 -14 OFFCURVE",
"390 -14 CURVE SMOOTH",
"228 -14 OFFCURVE",
"128 105 OFFCURVE",
"173 273 CURVE SMOOTH",
"212 419 OFFCURVE",
"299 525 OFFCURVE",
"390 525 CURVE SMOOTH",
"461 525 OFFCURVE",
"528 504 OFFCURVE",
"564 446 CURVE"
);
},
{
closed = 1;
nodes = (
"205 175 OFFCURVE",
"228 136 OFFCURVE",
"378 138 CURVE SMOOTH",
"559 140 OFFCURVE",
"563 170 OFFCURVE",
"563 299 CURVE SMOOTH",
"563 448 OFFCURVE",
"456 476 OFFCURVE",
"389 476 CURVE",
"328 476 OFFCURVE",
"269 434 OFFCURVE",
"235 296 CURVE SMOOTH"
);
}
);
};
layerId = "BBDB329E-CE83-4304-A6B1-53EA5ACC004E";
paths = (
{
closed = 1;
nodes = (
"454 -20 OFFCURVE",
"511 3 OFFCURVE",
"553 37 CURVE",
"553 -2 LINE",
"701 -2 LINE",
"637 562 LINE",
"521 562 LINE",
"525 530 LINE",
"489 551 OFFCURVE",
"430 566 OFFCURVE",
"385 567 CURVE SMOOTH",
"241 570 OFFCURVE",
"160 426 OFFCURVE",
"153 256 CURVE SMOOTH",
"146 84 OFFCURVE",
"220 -20 OFFCURVE",
"390 -20 CURVE SMOOTH"
);
},
{
closed = 1;
nodes = (
"257 165 OFFCURVE",
"236 179 OFFCURVE",
"265 290 CURVE SMOOTH",
"304 438 OFFCURVE",
"344 449 OFFCURVE",
"389 449 CURVE SMOOTH",
"507 449 OFFCURVE",
"508 376 OFFCURVE",
"530 299 CURVE SMOOTH",
"560 194 OFFCURVE",
"529 165 OFFCURVE",
"378 165 CURVE SMOOTH"
);
}
);
width = 854;
}
);
leftKerningGroup = Round;
unicode = 0061;
},
{
color = 7;
glyphname = b;
lastChange = "2019-10-14 17:09:05 +0000";
layers = (
{
anchors = (
{
name = _hook_top;
position = "{223, 778}";
},
{
name = bottom;
position = "{420, -142}";
},
{
name = top;
position = "{217, 957}";
},
{
name = top_hook;
position = "{221, 717}";
}
);
hints = (
{
place = "{99, 65}";
type = Stem;
},
{
horizontal = 1;
origin = "{0, 16}";
target = "{1, 11}";
type = TTStem;
options = 4;
},
{
horizontal = 1;
origin = "{1, 5}";
target = "{0, 5}";
type = TTStem;
options = 4;
}
);
layerId = "BA196CD0-EE58-4274-B8DF-4393D3617A29";
paths = (
{
closed = 1;
nodes = (
"574 -14 OFFCURVE",
"706 121 OFFCURVE",
"706 293 CURVE SMOOTH",
"706 437 OFFCURVE",
"589 560 OFFCURVE",
"441 556 CURVE SMOOTH",
"333 553 OFFCURVE",
"287 453 OFFCURVE",
"287 528 CURVE SMOOTH",
"287 850 LINE",
"153 850 LINE",
"183 487 OFFCURVE",
"188 144 OFFCURVE",
"209 99 CURVE SMOOTH",
"235 27 OFFCURVE",
"298 -14 OFFCURVE",
"441 -14 CURVE SMOOTH"
);
},
{
closed = 1;
nodes = (
"332 146 OFFCURVE",
"310 187 OFFCURVE",
"310 289 CURVE SMOOTH",
"310 395 OFFCURVE",
"367 468 OFFCURVE",
"462 468 CURVE SMOOTH",
"558 468 OFFCURVE",
"608 392 OFFCURVE",
"608 293 CURVE SMOOTH",
"608 211 OFFCURVE",
"542 152 OFFCURVE",
"462 146 CURVE"
);
}
);
width = 859;
},
{
anchors = (
{
name = _hook_top;
position = "{239, 778}";
},
{
name = bottom;
position = "{457, -179}";
},
{
name = top;
position = "{248, 979}";
},
{
name = top_hook;
position = "{218, 722}";
}
);
hints = (
{
place = "{99, 65}";
type = Stem;
}
);
layerId = "BBDB329E-CE83-4304-A6B1-53EA5ACC004E";
paths = (
{
closed = 1;
nodes = (
"636 1 OFFCURVE",
"733 88 OFFCURVE",
"719 273 CURVE SMOOTH",
"706 446 OFFCURVE",
"601 582 OFFCURVE",
"457 579 CURVE SMOOTH",
"384 577 OFFCURVE",
"310 539 OFFCURVE",
"310 504 CURVE",
"310 850 LINE",
"153 850 LINE",
"185 477 OFFCURVE",
"189 145 OFFCURVE",
"213 89 CURVE",
"248 -6 OFFCURVE",
"340 -27 OFFCURVE",
"457 -16 CURVE SMOOTH"
);
},
{
closed = 1;
nodes = (
"373 173 OFFCURVE",
"344 193 OFFCURVE",
"353 289 CURVE SMOOTH",
"362 383 OFFCURVE",
"401 441 OFFCURVE",
"478 441 CURVE SMOOTH",
"551 441 OFFCURVE",
"596 386 OFFCURVE",
"597 295 CURVE",
"586 216 OFFCURVE",
"550 179 OFFCURVE",
"477 173 CURVE"
);
},
{
closed = 0;
nodes = (
"503 414 LINE",
"503 414 OFFCURVE",
"503 414 OFFCURVE",
"503 414 CURVE"
);
}
);
width = 873;
}
);
rightKerningGroup = RoundRight;
unicode = 0062;
},
{
color = 7;
glyphname = c;
lastChange = "2019-10-14 17:09:05 +0000";
layers = (
{
anchors = (
{
name = bottom;
position = "{391, 0}";
},
{
name = center;
position = "{402, 295}";
},
{
name = top;
position = "{391, 547}";
},
{
name = top_hook;
position = "{472, 533}";
}
);
hints = (
{
horizontal = 1;
origin = "{0, 18}";
target = "{0, 2}";
type = TTStem;
options = 4;
}
);
layerId = "BA196CD0-EE58-4274-B8DF-4393D3617A29";
paths = (
{
closed = 1;
nodes = (
"497 560 OFFCURVE",
"441 566 OFFCURVE",
"393 565 CURVE SMOOTH",
"224 561 OFFCURVE",
"153 471 OFFCURVE",
"153 273 CURVE SMOOTH",
"153 97 OFFCURVE",
"216 7 OFFCURVE",
"423 -7 CURVE SMOOTH",
"484 -11 OFFCURVE",
"547 -4 OFFCURVE",
"594 24 CURVE",
"500 126 LINE",
"395 74 OFFCURVE",
"264 143 OFFCURVE",
"254 273 CURVE",
"254 422 OFFCURVE",
"316 481 OFFCURVE",
"413 482 CURVE SMOOTH",
"441 482 OFFCURVE",
"486 477 OFFCURVE",
"518 467 CURVE",
"518 553 LINE"
);
}
);
width = 747;
},
{
anchors = (
{
name = bottom;
position = "{417, 0}";
},
{
name = center;
position = "{432, 312}";
},
{
name = top;
position = "{411, 606}";
},
{
name = top_hook;
position = "{498, 533}";
}
);
layerId = "BBDB329E-CE83-4304-A6B1-53EA5ACC004E";
paths = (
{
closed = 1;
nodes = (
"514 -6 OFFCURVE",
"552 2 OFFCURVE",
"628 43 CURVE",
"514 171 LINE",
"412 89 OFFCURVE",
"317 147 OFFCURVE",
"307 274 CURVE",
"307 405 OFFCURVE",
"317 453 OFFCURVE",
"439 459 CURVE SMOOTH",
"478 461 OFFCURVE",
"513 458 OFFCURVE",
"571 440 CURVE",
"571 563 LINE",
"564 576 OFFCURVE",
"502 585 OFFCURVE",
"459 587 CURVE SMOOTH",
"266 596 OFFCURVE",
"153 474 OFFCURVE",
"153 273 CURVE SMOOTH",
"153 97 OFFCURVE",
"241 -6 OFFCURVE",
"447 -6 CURVE SMOOTH"
);
}
);
width = 781;
}
);
leftKerningGroup = Round;
unicode = 0063;
},
{
glyphname = ccurl;
lastChange = "2019-10-04 23:41:44 +0000";
layers = (
{
anchors = (
{
name = _curl;
position = "{94, 591}";
},
{
name = bottom;
position = "{317, 0}";
},
{
name = top;
position = "{317, 540}";
}
);
hints = (
{
horizontal = 1;
origin = "{0, 23}";
type = Anchor;
options = 4;
},
{
horizontal = 1;
origin = "{0, 33}";
target = "{0, 17}";
type = TTStem;
options = 4;
},
{
horizontal = 1;
origin = "{0, 48}";
target = "{0, 2}";
type = TTStem;
options = 4;
}
);
layerId = "BA196CD0-EE58-4274-B8DF-4393D3617A29";
paths = (
{
closed = 1;
nodes = (
"423 555 OFFCURVE",
"386 560 OFFCURVE",
"359 560 CURVE SMOOTH",
"189 560 OFFCURVE",
"80 451 OFFCURVE",
"80 273 CURVE SMOOTH",
"80 97 OFFCURVE",
"143 -14 OFFCURVE",
"349 -14 CURVE SMOOTH",
"474 -14 OFFCURVE",
"606 83 OFFCURVE",
"606 183 CURVE SMOOTH",
"606 223 OFFCURVE",
"585 263 OFFCURVE",
"535 298 CURVE SMOOTH",
"499 323 OFFCURVE",
"464 334 OFFCURVE",
"433 334 CURVE SMOOTH",
"358 334 OFFCURVE",
"306 269 OFFCURVE",
"306 176 CURVE SMOOTH",
"306 40 OFFCURVE",
"306 -79 OFFCURVE",
"306 -200 CURVE",
"416 -200 LINE",
"416 -137 OFFCURVE",
"412 -75 OFFCURVE",
"408 -10 CURVE SMOOTH",
"405 42 OFFCURVE",
"400 95 OFFCURVE",
"400 152 CURVE SMOOTH",
"400 213 OFFCURVE",
"421 239 OFFCURVE",
"448 239 CURVE SMOOTH",
"462 239 OFFCURVE",
"478 232 OFFCURVE",
"494 220 CURVE SMOOTH",
"502 214 OFFCURVE",
"505 206 OFFCURVE",
"505 197 CURVE SMOOTH",
"505 158 OFFCURVE",
"436 97 OFFCURVE",
"324 97 CURVE SMOOTH",
"213 97 OFFCURVE",
"181 203 OFFCURVE",
"180 273 CURVE",
"180 406 OFFCURVE",
"222 489 OFFCURVE",
"339 489 CURVE SMOOTH",
"367 489 OFFCURVE",
"412 487 OFFCURVE",
"444 477 CURVE",
"444 548 LINE"
);
}
);
width = 686;
},
{
anchors = (
{
name = _curl;
position = "{152, 469}";
},
{
name = bottom;
position = "{317, 0}";
},
{
name = top;
position = "{317, 540}";
}
);
layerId = "BBDB329E-CE83-4304-A6B1-53EA5ACC004E";
paths = (
{
closed = 1;
nodes = (
"464 576 OFFCURVE",
"402 587 OFFCURVE",
"359 587 CURVE SMOOTH",
"173 587 OFFCURVE",
"53 464 OFFCURVE",
"53 273 CURVE SMOOTH",
"53 60 OFFCURVE",
"147 -41 OFFCURVE",
"349 -41 CURVE SMOOTH",
"491 -41 OFFCURVE",
"633 69 OFFCURVE",
"633 183 CURVE SMOOTH",
"633 235 OFFCURVE",
"604 283 OFFCURVE",
"550 320 CURVE SMOOTH",
"513 346 OFFCURVE",
"471 361 OFFCURVE",
"433 361 CURVE SMOOTH",
"343 361 OFFCURVE",
"279 284 OFFCURVE",
"279 176 CURVE SMOOTH",
"279 30 OFFCURVE",
"279 -97 OFFCURVE",
"279 -227 CURVE",
"443 -227 LINE",
"444 -154 OFFCURVE",
"440 -82 OFFCURVE",
"435 -8 CURVE SMOOTH",
"432 43 OFFCURVE",
"427 96 OFFCURVE",
"427 152 CURVE SMOOTH",
"427 192 OFFCURVE",
"437 212 OFFCURVE",
"448 212 CURVE SMOOTH",
"456 212 OFFCURVE",
"465 208 OFFCURVE",
"478 198 CURVE",
"480 197 OFFCURVE",
"478 202 OFFCURVE",
"478 197 CURVE SMOOTH",
"478 165 OFFCURVE",
"399 124 OFFCURVE",
"324 124 CURVE SMOOTH",
"253 124 OFFCURVE",
"208 182 OFFCURVE",
"207 273 CURVE",
"207 405 OFFCURVE",
"248 462 OFFCURVE",
"339 462 CURVE SMOOTH",
"378 462 OFFCURVE",
"413 458 OFFCURVE",
"471 440 CURVE",
"471 563 LINE"
);
}
);
width = 686;
}
);
unicode = 0255;
},
{
color = 7;
glyphname = d;
lastChange = "2019-10-14 17:09:05 +0000";
layers = (
{
anchors = (
{
name = bottom;
position = "{402, -135}";
},
{
name = bottom_hook;
position = "{622, 27}";
},
{
name = center;
position = "{479, 273}";
},
{
name = circumflexbelow;
position = "{403, -48}";
},
{
name = croat;
position = "{638, 681}";
},
{
name = ezh;
position = "{644, 601}";
},
{
name = right;
position = "{735, 674}";
},
{
name = right_el;
position = "{783, 526}";
},
{
name = top;
position = "{408, 590}";
},
{
name = top_hook;
position = "{629, 708}";
},
{
name = topright;
position = "{745, 500}";
}
);
hints = (
{
horizontal = 1;
origin = "{0, 8}";
target = "{1, 8}";
type = TTStem;
options = 4;
},
{
horizontal = 1;
origin = "{1, 2}";
target = "{0, 2}";
type = TTStem;
options = 4;
},
{
horizontal = 1;
origin = "{0, 16}";
type = Anchor;
options = 4;
},
{
horizontal = 1;
origin = "{0, 12}";
type = Anchor;
options = 4;
}
);
layerId = "BA196CD0-EE58-4274-B8DF-4393D3617A29";
paths = (
{
closed = 1;
nodes = (
"546 535 OFFCURVE",
"488 581 OFFCURVE",
"408 577 CURVE SMOOTH",
"276 570 OFFCURVE",
"163 431 OFFCURVE",
"154 273 CURVE SMOOTH",
"144 101 OFFCURVE",
"251 -11 OFFCURVE",
"408 -14 CURVE SMOOTH",
"488 -16 OFFCURVE",
"546 7 OFFCURVE",
"583 72 CURVE",
"583 0 LINE",
"678 -2 LINE",
"666 235 LINE",
"690 850 LINE",
"600 850 LINE",
"583 470 LINE"
);
},
{
closed = 1;
nodes = (
"249 391 OFFCURVE",
"306 471 OFFCURVE",
"402 471 CURVE SMOOTH",
"497 471 OFFCURVE",
"543 398 OFFCURVE",
"543 290 CURVE SMOOTH",
"543 169 OFFCURVE",
"474 149 OFFCURVE",
"399 149 CURVE SMOOTH",
"304 149 OFFCURVE",
"249 188 OFFCURVE",
"249 283 CURVE SMOOTH"
);
}
);
width = 843;
},
{
anchors = (
{
name = bottom;
position = "{432, -189}";
},
{
name = bottom_hook;
position = "{628, 27}";
},
{
name = center;
position = "{485, 273}";
},
{
name = circumflexbelow;
position = "{414, -74}";
},
{
name = croat;
position = "{644, 624}";
},
{
name = ezh;
position = "{650, 601}";
},
{
name = right;
position = "{741, 674}";
},
{
name = right_el;
position = "{789, 526}";
},
{
name = top;
position = "{414, 583}";
},
{
name = top_hook;
position = "{651, 722}";
},
{
name = topright;
position = "{751, 500}";
}
);
layerId = "BBDB329E-CE83-4304-A6B1-53EA5ACC004E";
paths = (
{
closed = 1;
nodes = (
"476 -13 OFFCURVE",
"490 0 OFFCURVE",
"572 47 CURVE",
"562 3 LINE",
"712 -1 LINE",
"699 235 LINE",
"731 850 LINE",
"587 850 LINE",
"574 575 LINE SMOOTH",
"570 487 OFFCURVE",
"530 583 OFFCURVE",
"414 583 CURVE SMOOTH",
"270 583 OFFCURVE",
"153 442 OFFCURVE",
"153 273 CURVE SMOOTH",
"153 120 OFFCURVE",
"237 -13 OFFCURVE",
"415 -13 CURVE SMOOTH"
);
},
{
closed = 1;
nodes = (
"319 176 OFFCURVE",
"282 199 OFFCURVE",
"282 283 CURVE SMOOTH",
"282 382 OFFCURVE",
"340 444 OFFCURVE",
"408 444 CURVE SMOOTH",
"476 444 OFFCURVE",
"527 382 OFFCURVE",
"527 283 CURVE SMOOTH",
"527 199 OFFCURVE",
"491 176 OFFCURVE",
"405 176 CURVE SMOOTH"
);
}
);
width = 884;
}
);
leftKerningGroup = Round;
unicode = 0064;
},
{
glyphname = dzaltone;
lastChange = "2019-09-05 19:28:16 +0000";
layers = (
{
components = (
{
name = d;
},
{
name = z;
transform = "{1, 0, 0, 1, 496, -13}";
}
);
hints = (
{
horizontal = 1;
origin = "{0, 0}";
target = "{0, 3}";
type = TTStem;
options = 4;
}
);
layerId = "BA196CD0-EE58-4274-B8DF-4393D3617A29";
paths = (
{
closed = 1;
nodes = (
"519 469 LINE",
"723 469 LINE",
"723 536 LINE",
"519 536 LINE"
);
}
);
width = 1167;
},
{
components = (
{
name = d;
},
{
name = z;
transform = "{1, 0, 0, 1, 496, -13}";
}
);
layerId = "BBDB329E-CE83-4304-A6B1-53EA5ACC004E";
paths = (
{
closed = 1;
nodes = (
"492 442 LINE",
"750 442 LINE",
"750 563 LINE",
"492 563 LINE"
);
}
);
width = 1167;
}
);
unicode = 02A3;
},
{
glyphname = dzcurl;
lastChange = "2019-09-05 19:28:16 +0000";
layers = (
{
components = (
{
name = d;
},
{
name = zcurl;
transform = "{1, 0, 0, 1, 503, -1}";
}
);
hints = (
{
horizontal = 1;
origin = "{0, 0}";
target = "{0, 3}";
type = TTStem;
options = 4;
}
);
layerId = "BA196CD0-EE58-4274-B8DF-4393D3617A29";
paths = (
{
closed = 1;
nodes = (
"521 481 LINE",
"730 481 LINE",
"730 548 LINE",
"521 548 LINE"
);
}
);
width = 1229;
},
{
components = (
{
name = d;
},
{
name = zcurl;
transform = "{1, 0, 0, 1, 503, -1}";
}
);
layerId = "BBDB329E-CE83-4304-A6B1-53EA5ACC004E";
paths = (
{
closed = 1;
nodes = (
"494 454 LINE",
"757 454 LINE",
"757 575 LINE",
"494 575 LINE"
);
}
);
width = 1229;
}
);
unicode = 02A5;
},
{
color = 7;
glyphname = e;
lastChange = "2019-10-14 17:09:05 +0000";
layers = (
{
anchors = (
{
name = _hook;
position = "{436, 539}";
},
{
name = bottom;
position = "{433, -120}";
},
{
name = center;
position = "{200, 267}";
},
{
name = ogonek;
position = "{517, -7}";
},
{
name = righthook;
position = "{658, 274}";
},
{
name = top;
position = "{419, 639}";
}
);
hints = (
{
horizontal = 1;
origin = "{0, 8}";
target = "{0, 15}";
type = TTStem;
options = 4;
},
{
horizontal = 1;
origin = "{1, 2}";
target = "{0, 2}";
type = TTStem;
options = 4;
}
);
layerId = "BA196CD0-EE58-4274-B8DF-4393D3617A29";
paths = (
{
closed = 1;
nodes = (
"645 496 OFFCURVE",
"544 571 OFFCURVE",
"432 580 CURVE",
"267 580 OFFCURVE",
"160 447 OFFCURVE",
"153 268 CURVE",
"153 95 OFFCURVE",
"273 -14 OFFCURVE",
"447 -14 CURVE SMOOTH",
"518 -14 OFFCURVE",
"583 0 OFFCURVE",
"648 28 CURVE",
"648 152 LINE",
"571 119 OFFCURVE",
"524 111 OFFCURVE",
"450 119 CURVE SMOOTH",
"309 134 OFFCURVE",
"244 192 OFFCURVE",
"244 287 CURVE",
"677 315 LINE"
);
},
{
closed = 1;
nodes = (
"257 430 OFFCURVE",
"330 506 OFFCURVE",
"432 513 CURVE SMOOTH",
"536 520 OFFCURVE",
"567 456 OFFCURVE",
"577 395 CURVE",
"257 364 LINE"
);
}
);
width = 830;
},
{
anchors = (
{
name = _hook;
position = "{453, 529}";
},
{
name = bottom;
position = "{464, -133}";
},
{
name = center;
position = "{217, 267}";
},
{
name = ogonek;
position = "{534, -7}";
},
{
name = righthook;
position = "{675, 274}";
},
{
name = top;
position = "{435, 795}";
}
);
layerId = "BBDB329E-CE83-4304-A6B1-53EA5ACC004E";
paths = (
{
closed = 1;
nodes = (
"678 483 OFFCURVE",
"601 575 OFFCURVE",
"451 587 CURVE",
"449 587 LINE SMOOTH",
"273 587 OFFCURVE",
"161 466 OFFCURVE",
"153 269 CURVE",
"153 268 LINE SMOOTH",
"153 80 OFFCURVE",
"275 -23 OFFCURVE",
"464 -23 CURVE SMOOTH",
"543 -23 OFFCURVE",
"617 -5 OFFCURVE",
"692 30 CURVE",
"692 195 LINE",
"596 145 OFFCURVE",
"554 135 OFFCURVE",
"466 146 CURVE SMOOTH",
"365 159 OFFCURVE",
"301 186 OFFCURVE",
"290 262 CURVE",
"705 290 LINE"
);
},
{
closed = 1;
nodes = (
"332 449 OFFCURVE",
"386 488 OFFCURVE",
"449 486 CURVE SMOOTH",
"502 484 OFFCURVE",
"548 455 OFFCURVE",
"568 411 CURVE",
"316 402 LINE"
);
}
);
width = 858;
}
);
leftKerningGroup = Round;
unicode = 0065;
},
{
glyphname = eopen;
lastChange = "2019-09-05 19:28:16 +0000";
layers = (
{
anchors = (
{
name = top;
position = "{253, 520}";
}
);
hints = (
{
horizontal = 1;
origin = "{0, 40}";
target = "{0, 6}";
type = TTStem;
options = 4;
},
{
horizontal = 1;
origin = "{0, 12}";
target = "{0, 15}";
type = TTStem;
options = 4;
},
{
horizontal = 1;
origin = "{0, 28}";
target = "{0, 21}";
type = TTStem;
options = 4;
}
);
layerId = "BA196CD0-EE58-4274-B8DF-4393D3617A29";
paths = (
{
closed = 1;
nodes = (
"295 -12 OFFCURVE",
"458 17 OFFCURVE",
"400 189 CURVE",
"320 182 LINE",
"346 79 OFFCURVE",
"295 78 OFFCURVE",
"246 79 CURVE SMOOTH",
"178 80 OFFCURVE",
"152 120 OFFCURVE",
"152 165 CURVE",
"152 210 OFFCURVE",
"191 243 OFFCURVE",
"265 242 CURVE SMOOTH",
"287 242 LINE",
"275 295 LINE",
"252 295 LINE",
"186 295 OFFCURVE",
"139 314 OFFCURVE",
"139 377 CURVE SMOOTH",
"139 431 OFFCURVE",
"195 456 OFFCURVE",
"263 456 CURVE SMOOTH",
"299 456 OFFCURVE",
"339 438 OFFCURVE",
"338 379 CURVE",
"383 388 LINE",
"383 476 OFFCURVE",
"296 500 OFFCURVE",
"256 500 CURVE SMOOTH",
"154 500 OFFCURVE",
"91 451 OFFCURVE",
"91 372 CURVE SMOOTH",
"91 318 OFFCURVE",
"118 286 OFFCURVE",
"182 263 CURVE",
"103 252 OFFCURVE",
"80 210 OFFCURVE",
"80 147 CURVE SMOOTH",
"80 40 OFFCURVE",
"161 -12 OFFCURVE",
"253 -12 CURVE SMOOTH"
);
}
);
width = 492;
},
{
anchors = (
{
name = top;
position = "{253, 520}";
}
);
layerId = "BBDB329E-CE83-4304-A6B1-53EA5ACC004E";
paths = (
{
closed = 1;
nodes = (
"297 -26 OFFCURVE",
"484 7 OFFCURVE",
"410 204 CURVE",
"302 195 LINE",
"331 93 OFFCURVE",
"298 92 OFFCURVE",
"246 93 CURVE SMOOTH",
"195 94 OFFCURVE",
"166 120 OFFCURVE",
"166 165 CURVE SMOOTH",
"166 204 OFFCURVE",
"203 228 OFFCURVE",
"265 228 CURVE SMOOTH",
"305 228 LINE",
"287 309 LINE",
"252 309 LINE SMOOTH",
"183 309 OFFCURVE",
"153 330 OFFCURVE",
"153 377 CURVE SMOOTH",
"153 417 OFFCURVE",
"194 442 OFFCURVE",
"263 442 CURVE SMOOTH",
"308 442 OFFCURVE",
"330 413 OFFCURVE",
"322 361 CURVE",
"397 376 LINE",
"405 485 OFFCURVE",
"300 514 OFFCURVE",
"256 514 CURVE SMOOTH",
"146 514 OFFCURVE",
"77 459 OFFCURVE",
"77 372 CURVE SMOOTH",
"77 325 OFFCURVE",
"96 291 OFFCURVE",
"138 267 CURVE",
"89 249 OFFCURVE",
"66 210 OFFCURVE",
"66 147 CURVE SMOOTH",
"66 43 OFFCURVE",
"140 -26 OFFCURVE",
"253 -26 CURVE SMOOTH"
);
}
);
width = 492;
}
);
unicode = 025B;
},
{
glyphname = eopenreversedclosed;
lastChange = "2019-09-05 19:28:16 +0000";
layers = (
{
hints = (
{
horizontal = 1;
origin = "{0, 2}";
target = "{1, 17}";
type = TTStem;
options = 4;
},
{
horizontal = 1;
origin = "{1, 10}";
target = "{1, 9}";
type = TTStem;
options = 4;
},
{
horizontal = 1;
origin = "{0, 14}";
target = "{1, 2}";
type = TTStem;
options = 4;
}
);
layerId = "BA196CD0-EE58-4274-B8DF-4393D3617A29";
paths = (
{
closed = 1;
nodes = (
"80 119 OFFCURVE",
"149 -4 OFFCURVE",
"327 -12 CURVE SMOOTH",
"419 -16 OFFCURVE",
"500 40 OFFCURVE",
"500 147 CURVE SMOOTH",
"500 210 OFFCURVE",
"477 252 OFFCURVE",
"398 263 CURVE",
"485 290 OFFCURVE",
"489 318 OFFCURVE",
"489 372 CURVE SMOOTH",
"489 451 OFFCURVE",
"426 500 OFFCURVE",
"324 500 CURVE SMOOTH",
"126 500 OFFCURVE",
"80 369 OFFCURVE",
"80 249 CURVE SMOOTH"
);
},
{
closed = 1;
nodes = (
"142 346 OFFCURVE",
"191 456 OFFCURVE",
"317 456 CURVE SMOOTH",
"385 456 OFFCURVE",
"441 431 OFFCURVE",
"441 377 CURVE SMOOTH",
"441 314 OFFCURVE",
"394 295 OFFCURVE",
"328 295 CURVE SMOOTH",
"305 295 LINE",
"293 242 LINE",
"315 242 LINE SMOOTH",
"389 243 OFFCURVE",
"428 210 OFFCURVE",
"428 165 CURVE SMOOTH",
"428 120 OFFCURVE",
"402 79 OFFCURVE",
"334 79 CURVE SMOOTH",
"184 79 OFFCURVE",
"142 194 OFFCURVE",
"142 252 CURVE SMOOTH"
);
}
);
width = 580;
},
{
layerId = "BBDB329E-CE83-4304-A6B1-53EA5ACC004E";
paths = (
{
closed = 1;
nodes = (
"53 79 OFFCURVE",
"157 -31 OFFCURVE",
"326 -39 CURVE SMOOTH",
"443 -44 OFFCURVE",
"527 33 OFFCURVE",
"527 147 CURVE SMOOTH",
"527 203 OFFCURVE",
"509 243 OFFCURVE",
"472 266 CURVE",
"505 289 OFFCURVE",
"516 319 OFFCURVE",
"516 372 CURVE SMOOTH",
"516 467 OFFCURVE",
"440 527 OFFCURVE",
"324 527 CURVE SMOOTH",
"149 527 OFFCURVE",
"53 428 OFFCURVE",
"53 249 CURVE SMOOTH"
);
},
{
closed = 1;
nodes = (
"169 358 OFFCURVE",
"227 429 OFFCURVE",
"317 429 CURVE SMOOTH",
"379 429 OFFCURVE",
"414 408 OFFCURVE",
"414 377 CURVE SMOOTH",
"414 338 OFFCURVE",
"390 322 OFFCURVE",
"328 322 CURVE SMOOTH",
"283 322 LINE",
"259 215 LINE",
"315 215 LINE SMOOTH",
"370 216 OFFCURVE",
"401 196 OFFCURVE",
"401 165 CURVE SMOOTH",
"401 127 OFFCURVE",
"379 106 OFFCURVE",
"334 106 CURVE SMOOTH",
"238 106 OFFCURVE",
"169 168 OFFCURVE",
"169 252 CURVE SMOOTH"
);
}
);
width = 580;
}
);
unicode = 025E;
},
{
glyphname = esh;
lastChange = "2019-09-16 23:32:01 +0000";
layers = (
{
hints = (
{
horizontal = 1;
origin = "{0, 17}";
target = "{0, 10}";
type = TTStem;
options = 4;
},
{
horizontal = 1;
origin = "{0, 25}";
target = "{0, 2}";
type = TTStem;
options = 4;
}
);
layerId = "BA196CD0-EE58-4274-B8DF-4393D3617A29";
paths = (
{
closed = 1;
nodes = (
"791 879 OFFCURVE",
"754 886 OFFCURVE",
"715 886 CURVE SMOOTH",
"604 886 OFFCURVE",
"525 811 OFFCURVE",
"502 677 CURVE SMOOTH",
"458 416 LINE",
"415 121 LINE",
"391 -1 OFFCURVE",
"354 -46 OFFCURVE",
"283 -46 CURVE SMOOTH",
"248 -46 OFFCURVE",
"213 -34 OFFCURVE",
"176 -10 CURVE",
"35 -84 LINE",
"90 -176 OFFCURVE",
"213 -208 OFFCURVE",
"255 -208 CURVE SMOOTH",
"384 -208 OFFCURVE",
"478 -217 OFFCURVE",
"527 148 CURVE SMOOTH",
"563 416 LINE",
"605 678 LINE SMOOTH",
"621 775 OFFCURVE",
"664 818 OFFCURVE",
"735 818 CURVE SMOOTH",
"768 818 OFFCURVE",
"796 808 OFFCURVE",
"824 786 CURVE",
"824 866 LINE"
);
}
);
width = 859;
},
{
layerId = "BBDB329E-CE83-4304-A6B1-53EA5ACC004E";
paths = (
{
closed = 1;
nodes = (
"768 778 OFFCURVE",
"727 787 OFFCURVE",
"682 787 CURVE SMOOTH",
"569 787 OFFCURVE",
"489 710 OFFCURVE",
"467 579 CURVE SMOOTH",
"428 348 LINE",
"390 88 LINE",
"371 -8 OFFCURVE",
"347 -38 OFFCURVE",
"300 -38 CURVE SMOOTH",
"271 -38 OFFCURVE",
"243 -27 OFFCURVE",
"207 -2 CURVE",
"44 -86 LINE",
"89 -198 OFFCURVE",
"231 -235 OFFCURVE",
"275 -235 CURVE SMOOTH",
"388 -235 OFFCURVE",
"495 -245 OFFCURVE",
"543 103 CURVE SMOOTH",
"575 340 LINE",
"612 572 LINE SMOOTH",
"623 643 OFFCURVE",
"650 673 OFFCURVE",
"700 673 CURVE SMOOTH",
"738 673 OFFCURVE",
"761 657 OFFCURVE",
"806 611 CURVE",
"806 760 LINE"
);
}
);
width = 859;
}
);
unicode = 0283;
},
{
glyphname = ezh;
lastChange = "2019-10-12 19:29:46 +0000";
layers = (
{
anchors = (
{
name = _ezh;
position = "{115, 623}";
},
{
name = bottom;
position = "{368, 0}";
},
{
name = center;
position = "{339, 297}";
},
{
name = top;
position = "{357, 693}";
}
);
hints = (
{
horizontal = 1;
place = "{234.43, 79.57}";
type = TTStem;
options = 4;
},
{
horizontal = 1;
origin = "{0, 9}";
target = "{0, 8}";
type = TTStem;
options = 4;
}
);
layerId = "BA196CD0-EE58-4274-B8DF-4393D3617A29";
paths = (
{
closed = 1;
nodes = (
"481 406 OFFCURVE",
"506 427 OFFCURVE",
"596 527 CURVE",
"588 598 OFFCURVE",
"590 598 OFFCURVE",
"578 667 CURVE",
"498 671 OFFCURVE",
"201 667 OFFCURVE",
"103 667 CURVE",
"103 573 LINE",
"250 572 OFFCURVE",
"385 572 OFFCURVE",
"498 573 CURVE",
"404 468 OFFCURVE",
"349 430 OFFCURVE",
"237 325 CURVE",
"237 232 LINE",
"377 245 OFFCURVE",
"491 205 OFFCURVE",
"498 126 CURVE",
"501 -23 OFFCURVE",
"368 -111 OFFCURVE",
"227 27 CURVE",
"100 -77 LINE",
"227 -202 OFFCURVE",
"352 -200 OFFCURVE",
"385 -200 CURVE SMOOTH",
"599 -200 OFFCURVE",
"637 -57 OFFCURVE",
"623 107 CURVE SMOOTH",
"615 203 OFFCURVE",
"509 305 OFFCURVE",
"389 314 CURVE"
);
}
);
width = 726;
},
{
anchors = (
{
name = _ezh;
position = "{95, 623}";
},
{
name = bottom;
position = "{348, 0}";
},
{
name = center;
position = "{339, 297}";
},
{
name = top;
position = "{337, 693}";
}
);
layerId = "BBDB329E-CE83-4304-A6B1-53EA5ACC004E";
paths = (
{
closed = 1;
nodes = (
"489 395 OFFCURVE",
"519 423 OFFCURVE",
"596 509 CURVE",
"603 530 LINE",
"598 572 OFFCURVE",
"597 602 OFFCURVE",
"585 672 CURVE",
"559 694 LINE",
"468 699 OFFCURVE",
"100 693 OFFCURVE",
"56 694 CURVE",
"56 546 LINE",
"186 545 OFFCURVE",
"309 545 OFFCURVE",
"416 546 CURVE",
"344 472 OFFCURVE",
"290 431 OFFCURVE",
"190 337 CURVE",
"190 202 LINE",
"334 222 OFFCURVE",
"445 186 OFFCURVE",
"451 124 CURVE",
"453 -26 OFFCURVE",
"323 -65 OFFCURVE",
"209 64 CURVE",
"40 -75 LINE",
"182 -229 OFFCURVE",
"331 -227 OFFCURVE",
"365 -227 CURVE SMOOTH",
"561 -227 OFFCURVE",
"649 -114 OFFCURVE",
"630 109 CURVE SMOOTH",
"622 207 OFFCURVE",
"531 301 OFFCURVE",
"425 331 CURVE"
);
}
);
width = 686;
}
);
unicode = 0292;
},
{
color = 7;
glyphname = f;
lastChange = "2019-10-16 22:54:18 +0000";
layers = (
{
anchors = (
{
name = _right;
position = "{148, 511}";
},
{
name = bottom;
position = "{315, 0}";
},
{
name = center;
position = "{285, 265}";
},
{
name = right;
position = "{522, 511}";
},
{
name = top;
position = "{315, 800}";
}
);
hints = (
{
horizontal = 1;
origin = "{0, 17}";
type = Anchor;
options = 4;
},
{
horizontal = 1;
place = "{458, 88}";
type = TTStem;
options = 4;
},
{
horizontal = 1;
origin = "{0, 7}";
target = "{0, 10}";
type = TTStem;
options = 4;
}
);
layerId = "BA196CD0-EE58-4274-B8DF-4393D3617A29";
paths = (
{
closed = 1;
nodes = (
"349 0 LINE",
"334 458 LINE",
"477 458 LINE",
"477 547 LINE",
"322 545 LINE",
"313 584 OFFCURVE",
"298 720 OFFCURVE",
"387 720 CURVE",
"468 720 LINE",
"468 795 LINE",
"388 795 LINE",
"285 795 OFFCURVE",
"234 761 OFFCURVE",
"234 547 CURVE",
"153 547 LINE",
"153 458 LINE",
"234 458 LINE",
"219 0 LINE"
);
}
);
width = 630;
},
{
anchors = (
{
name = _right;
position = "{149, 493}";
},
{
name = bottom;
position = "{342, 0}";
},
{
name = center;
position = "{312, 265}";
},
{
name = right;
position = "{597, 493}";
},
{
name = top;
position = "{342, 800}";
}
);
layerId = "BBDB329E-CE83-4304-A6B1-53EA5ACC004E";
paths = (
{
closed = 1;
nodes = (
"404 -1 LINE",
"389 431 LINE",
"531 431 LINE",
"531 574 LINE",
"371 572 LINE",
"365 618 OFFCURVE",
"364 693 OFFCURVE",
"414 693 CURVE SMOOTH",
"522 693 LINE",
"522 822 LINE",
"415 822 LINE SMOOTH",
"285 822 OFFCURVE",
"238 758 OFFCURVE",
"234 574 CURVE",
"153 574 LINE",
"153 431 LINE",
"233 431 LINE",
"218 -1 LINE"
);
}
);
width = 684;
}
);
unicode = 0066;
},
{
color = 7;
glyphname = g;
lastChange = "2019-10-14 17:09:05 +0000";
layers = (
{
anchors = (
{
name = bottom;
position = "{374, -261}";
},
{
name = comma;
position = "{380, -262}";
},
{
name = stroke;
position = "{560, 247}";
},
{
name = top;
position = "{413, 627}";
},
{
name = top_hook;
position = "{601, 353}";
}
);
hints = (
{
horizontal = 1;
origin = "{0, 25}";
type = Anchor;
options = 4;
},
{
horizontal = 1;
origin = "{0, 14}";
target = "{1, 11}";
type = TTStem;
options = 4;
},
{
horizontal = 1;
origin = "{1, 5}";
target = "{0, 8}";
type = TTStem;
options = 4;
},
{
horizontal = 1;
origin = "{0, 28}";
target = "{0, 21}";
type = TTStem;
options = 4;
}
);
layerId = "BA196CD0-EE58-4274-B8DF-4393D3617A29";
paths = (
{
closed = 1;
nodes = (
"545 -261 OFFCURVE",
"621 -152 OFFCURVE",
"631 69 CURVE SMOOTH",
"652 547 LINE",
"562 547 LINE",
"541 477 LINE",
"486 518 OFFCURVE",
"457 560 OFFCURVE",
"377 560 CURVE SMOOTH",
"243 560 OFFCURVE",
"153 449 OFFCURVE",
"153 280 CURVE SMOOTH",
"153 111 OFFCURVE",
"243 -10 OFFCURVE",
"377 -10 CURVE SMOOTH",
"437 -10 OFFCURVE",
"487 17 OFFCURVE",
"537 62 CURVE",
"525 16 LINE",
"502 -49 OFFCURVE",
"444 -114 OFFCURVE",
"366 -124 CURVE SMOOTH",
"313 -131 OFFCURVE",
"262 -111 OFFCURVE",
"209 -82 CURVE",
"172 -214 LINE",
"234 -245 OFFCURVE",
"311 -261 OFFCURVE",
"374 -261 CURVE SMOOTH"
);
},
{
closed = 1;
nodes = (
"256 146 OFFCURVE",
"226 172 OFFCURVE",
"235 285 CURVE SMOOTH",
"242 373 OFFCURVE",
"264 460 OFFCURVE",
"360 460 CURVE SMOOTH",
"457 460 OFFCURVE",
"513 373 OFFCURVE",
"513 275 CURVE SMOOTH",
"513 172 OFFCURVE",
"450 146 OFFCURVE",
"353 146 CURVE SMOOTH"
);
}
);
width = 805;
},
{
anchors = (
{
name = bottom;
position = "{401, -340}";
},
{
name = stroke;
position = "{609, 279}";
},
{
name = top;
position = "{440, 596}";
},
{
name = top_hook;
position = "{628, 353}";
}
);
layerId = "BBDB329E-CE83-4304-A6B1-53EA5ACC004E";
paths = (
{
closed = 1;
nodes = (
"583 -288 OFFCURVE",
"674 -173 OFFCURVE",
"685 68 CURVE SMOOTH",
"707 574 LINE",
"569 574 LINE",
"554 523 LINE",
"516 556 OFFCURVE",
"479 587 OFFCURVE",
"404 587 CURVE SMOOTH",
"254 587 OFFCURVE",
"153 463 OFFCURVE",
"153 280 CURVE SMOOTH",
"153 97 OFFCURVE",
"254 -27 OFFCURVE",
"404 -27 CURVE SMOOTH",
"484 -27 OFFCURVE",
"558 9 OFFCURVE",
"547 -7 CURVE",
"547 55 LINE",
"528 -17 OFFCURVE",
"478 -117 OFFCURVE",
"393 -117 CURVE SMOOTH",
"342 -117 OFFCURVE",
"280 -80 OFFCURVE",
"220 -41 CURVE",
"167 -227 LINE",
"231 -265 OFFCURVE",
"322 -288 OFFCURVE",
"401 -288 CURVE SMOOTH"
);
},
{
closed = 1;
nodes = (
"286 173 OFFCURVE",
"271 185 OFFCURVE",
"261 286 CURVE",
"261 401 OFFCURVE",
"307 463 OFFCURVE",
"387 463 CURVE SMOOTH",
"468 463 OFFCURVE",
"513 400 OFFCURVE",
"513 285 CURVE SMOOTH",
"513 192 OFFCURVE",
"489 173 OFFCURVE",
"380 173 CURVE SMOOTH"
);
}
);
width = 860;
}
);
unicode = 0067;
},
{
glyphname = "gamma-latin";
lastChange = "2019-09-05 19:28:16 +0000";
layers = (
{
hints = (
{
horizontal = 1;
origin = "{0, 23}";
target = "{0, 10}";
type = TTStem;
options = 4;
},
{
horizontal = 1;
origin = "{0, 3}";
type = Anchor;
options = 4;
}
);
layerId = "BA196CD0-EE58-4274-B8DF-4393D3617A29";
paths = (
{
closed = 1;
nodes = (
"182 481 CURVE SMOOTH",
"170 493 OFFCURVE",
"165 500 OFFCURVE",
"153 515 CURVE",
"80 455 LINE",
"90 443 OFFCURVE",
"89 442 OFFCURVE",
"97 435 CURVE SMOOTH",
"510 41 OFFCURVE",
"472 -103 OFFCURVE",
"348 -100 CURVE SMOOTH",
"191 -96 OFFCURVE",
"224 74 OFFCURVE",
"607 427 CURVE SMOOTH",
"614 433 OFFCURVE",
"617 439 OFFCURVE",
"624 448 CURVE",
"549 515 LINE",
"540 505 OFFCURVE",
"534 495 OFFCURVE",
"525 485 CURVE SMOOTH",
"172 94 OFFCURVE",
"-41 -193 OFFCURVE",
"351 -197 CURVE SMOOTH",
"676 -200 OFFCURVE",
"573 88 OFFCURVE"
);
}
);
width = 704;
},
{
layerId = "BBDB329E-CE83-4304-A6B1-53EA5ACC004E";
paths = (
{
closed = 1;
nodes = (
"694 -227 OFFCURVE",
"632 67 OFFCURVE",
"201 500 CURVE SMOOTH",
"187 514 OFFCURVE",
"184 520 OFFCURVE",
"157 553 CURVE",
"42 459 LINE",
"54 444 OFFCURVE",
"70 423 OFFCURVE",
"79 415 CURVE",
"376 131 OFFCURVE",
"483 -76 OFFCURVE",
"349 -73 CURVE SMOOTH",
"209 -69 OFFCURVE",
"310 117 OFFCURVE",
"625 407 CURVE",
"632 413 OFFCURVE",
"640 424 OFFCURVE",
"661 451 CURVE",
"549 552 LINE",
"524 532 OFFCURVE",
"517 516 OFFCURVE",
"505 503 CURVE SMOOTH",
"151 111 OFFCURVE",
"-94 -219 OFFCURVE",
"351 -224 CURVE SMOOTH"
);
}
);
width = 704;
}
);
unicode = 0263;
},
{
glyphname = glottalstop;
lastChange = "2019-10-05 00:58:14 +0000";
layers = (
{
anchors = (
{
name = center;
position = "{210, 217}";
}
);
hints = (
{
horizontal = 1;
place = "{671, 61.17}";
type = TTStem;
options = 4;
}
);
layerId = "BA196CD0-EE58-4274-B8DF-4393D3617A29";
paths = (
{
closed = 1;
nodes = (
"210 44 OFFCURVE",
"260 57 OFFCURVE",
"260 65 CURVE",
"260 99 OFFCURVE",
"262 318 OFFCURVE",
"262 363 CURVE SMOOTH",
"262 408 OFFCURVE",
"425 417 OFFCURVE",
"419 592 CURVE SMOOTH",
"415 674 OFFCURVE",
"384 742 OFFCURVE",
"290 763 CURVE SMOOTH",
"218 780 OFFCURVE",
"59 752 OFFCURVE",
"59 621 CURVE",
"100 621 OFFCURVE",
"115 621 OFFCURVE",
"152 621 CURVE",
"152 696 OFFCURVE",
"201 708 OFFCURVE",
"276 692 CURVE SMOOTH",
"327 682 OFFCURVE",
"350 640 OFFCURVE",
"350 580 CURVE SMOOTH",
"350 500 OFFCURVE",
"230 481 OFFCURVE",
"197 430 CURVE SMOOTH",
"168 383 OFFCURVE",
"164 368 OFFCURVE",
"164 303 CURVE SMOOTH",
"164 252 OFFCURVE",
"163 70 OFFCURVE",
"163 32 CURVE"
);
}
);
userData = {
de.kutilek.scrawl.data = <89504e470d0a1a0a0000000d4948445200000153000002580800000000fa0f5af600000724494441547801edd2311100200003b1827fcf60e2c754c00fb99e378b056edc93db98f62f60cab417e88b7ecab417e88b7ecab417e88b7ecab417e88b7ecab417e88b7ecab417e88b7ecab417e88b7ecab417e88b7ecab417e88b7ecab417e88b7ecab417e88b7ecab417e88b7ecab417e88b7ecab417e88b7ecab417e88b7ecab417e88b7ecab417e88b7ecab417e88b7ecab417e88b7ecab417e88b7ecab417e88b7ecab417e88b7ecab417e88b7ecab417e88b7ecab417e88b7ecab417e88b7ecab417e88b7ecab417e88b7ecab417e88b7ecab417e88b7ecab417e88b7ecab417e88b7ecab417e88b7ecab417e88b7ecab417e88b7ecab417e88b7ecab417e88b7ecab417e88b7ecab417e88b7ecab417e88b7ecab417e88b7ecab417e88b7ecab417e88b7ecab417e88b7ecab417e88b7ecab417e88b7ecab417e88b7ecab417e88b7ecab417e88b7ecab417e88b7ecab417e88b7ecab417e88b7ecab417e88b7ecab417e88b7ecab417e88b7ecab417e88b7ecab417e88b7ecab417e88b7ecab417e88b7ecab417e88b7ecab417e88b7ecab417e88b7ecab417e88b7ecab417e88b7ecab417e88b7ecab417e88b7ecab417e88b7ecab417e88b7ecab417e88b7ecab417e88b7ecab417e88b7ecab417e88b7ecab417e88b7ecab417e88b7ecab417e88b7ecab417e88b7ecab417e88b7ecab417e88b7ecab417e88b7ecab417e88b7ecab417e88b7ecab417e88b7ecab417e88b7ecab417e88b7ecab417e88b7ecab417e88b7ecab417e88b7ecab417e88b7ecab417e88b7ecab417e88b7ecab417e88b7ecab417e88b7ecab417e88b7ecab417e88b7ecab417e88b7ecab417e88b7ecab417e88b7ecab417e88b7ecab417e88b7ecab417e88b7ecab417e88b7ecab417e88b7ecab417e88b7ecab417e88b7ecab417e88b7ecab417e88b7ecab417e88b7ecab417e88b7ecab417e88b7ecab417e88b7ecab417e88b7ecab417e88b7ecab417e88b7ecab417e88b7ecab417e88b7ecab417e88b7ecab417e88b7ecab417e88b7ecab417e88b7ecab417e88b7ecab417e88b7ecab417e88b7ecab417e88b7ecab417e88b7ecab417e88b7ecab417e88b7ecab417e88b7ecab417e88b7ecab417e88b7ecab417e88b7ecab417e88b7ecab417e88b7ecab417e88b7ecab417e88b7ecab417e88b7ecab417e88b7ecab417e88b7ecab417e88b7ecab417e88b7ecab417e88b7ecab417e88b7ecab417e88b7ecab417e88b7ecab417e88b7ecab417e88b7ecab417e88b7ecab417e88b7ecab417e88b7ecab417e88b7ecab417e88b7ecab417e88b7ecab417e88b7ecab417e88b7ecab417e88b7ecab417e88b7ecab417e88b7ecab417e88b7ecab417e88b7ecab417e88b7ecab417e88b7ecab417e88b7ecab417e88b7ecab417e88b7ecab417e88b7ecab417e88b7ecab417e88b7ecab417e88b7ecab417e88b7ecab417e88b7ecab417e88b7ecab417e88b7ecab417e88b7ecab417e88b7ecab417e88b7ecab417e88b7ecab417e88b7ecab417e88b7ecab417e88b7ecab417e88b7ecab417e88b7ecab417e88b7ecab417e88b7ecab417e88b7ecab417e88b7ecab417e88b7ecab417e88b7ecab417e88b7ecab417e88b7ecab417e88b7ecab417e88b7ecab417e88b7ecab417e88b7ecab417e88b7ecab417e88b7ecab417e88b7ecab417e88b7ecab417e88b7ecab417e88b7ecab417e88b7ecab417e88b7ecab417e88b7ecab417e88b7ecab417e88b7ecab417e88b7ecab417e88b7ecab417e88b7ecab417e88b7ecab417e88b7ecab417e88b7ecab417e88b7ecab417e88b7ecab417e88b7ecab417e88b7ecab417e88b7ecab417e88b7ecab417e88b7ecab417e88b7ecab417e88b7ecab417e88b7ecab417e88b7ecab417e88b7ecab417e88b7ecab417e88b7ecab417e88b7ecab417e88b7ecab417e88b7ecab417e88b7ecab417e88b7ecab417e88b7ecab417e88b7ecab417e88b7ecab417e88b7ecab417e88b7ecab417e88b7ecab417e88b7ecab417e88b7ecab417e88b7ecab417e88b7ecab417e88b7ecab417e88b7ecab417e88b7ecab417e88b7ecab417e88b7ecab417e88b7ecab417e88b7ecab417e88b7ecab417e88b7ecab417e88b7ecab417e88b7ecab417e88b7ecab417e88b7ecab417e88b7ecab417e88b7ecab417e88b7ecab417e88b7ecab417e88b7ecab417e88b7ecab417e88b7ecab417e88b7ecab417e88b7ecab417e88b7ecab417e88b7ecab417e88b7ecab417e88b7ecab417e88b7ecab417e88b7ecab417e88b7ecab417e88b7ecab417e88b7ecab417e88b7ecab417e88b7ecab417e88b7ecab417e88b7ecab417e88b7ecab417e88b7ecab417e88b7ecab417e88b7ecab417e88b7ecab417e88b7ecab417e88b7ecab417e88b7ecab417e88b7ecab417e88b7ecab417e88b7ecab417e88b7ecab417e88b7ecab417e88b7ecab417e88b7ecab417e88b7ecab417e88b7ecab417e88b7ecab417e88b7ecab417e88b7ecab417e88b7ecab417e88b7ecab417e88b7ecab417e88b7ecab417e88b7eda9b7e282805af173a6a190000000049454e44ae426082>;
de.kutilek.scrawl.rect = (
-100,
-420,
678,
1200
);
de.kutilek.scrawl.size = 2;
de.kutilek.scrawl.unit = 2;
};
width = 478;
},
{
anchors = (
{
name = center;
position = "{214, 203}";
}
);
layerId = "BBDB329E-CE83-4304-A6B1-53EA5ACC004E";
paths = (
{
closed = 1;
nodes = (
"171 19 LINE",
"227 34 OFFCURVE",
"291 44 OFFCURVE",
"291 81 CURVE SMOOTH",
"291 115 OFFCURVE",
"292 335 OFFCURVE",
"292 380 CURVE SMOOTH",
"292 388 OFFCURVE",
"456 429 OFFCURVE",
"449 610 CURVE SMOOTH",
"445 719 OFFCURVE",
"393 788 OFFCURVE",
"297 809 CURVE SMOOTH",
"219 826 OFFCURVE",
"29 794 OFFCURVE",
"29 637 CURVE",
"59 607 LINE",
"111 607 OFFCURVE",
"120 607 OFFCURVE",
"185 607 CURVE",
"177 677 OFFCURVE",
"187 695 OFFCURVE",
"271 679 CURVE SMOOTH",
"302 673 OFFCURVE",
"319 646 OFFCURVE",
"319 597 CURVE SMOOTH",
"319 537 OFFCURVE",
"214 529 OFFCURVE",
"171 463 CURVE SMOOTH",
"139 414 OFFCURVE",
"134 390 OFFCURVE",
"134 320 CURVE SMOOTH",
"134 269 OFFCURVE",
"133 87 OFFCURVE",
"133 49 CURVE"
);
}
);
width = 478;
}
);
unicode = 0294;
},
{
glyphname = glottalstopsmall;
lastChange = "2019-09-16 23:32:26 +0000";
layers = (
{
hints = (
{
horizontal = 1;
place = "{688, 61.59}";
type = TTStem;
options = 4;
}
);
layerId = "BA196CD0-EE58-4274-B8DF-4393D3617A29";
paths = (
{
closed = 1;
nodes = (
"212 220 OFFCURVE",
"266 220 CURVE",
"269 263 OFFCURVE",
"262 310 OFFCURVE",
"262 356 CURVE SMOOTH",
"262 401 OFFCURVE",
"425 410 OFFCURVE",
"419 585 CURVE SMOOTH",
"415 666 OFFCURVE",
"384 734 OFFCURVE",
"290 756 CURVE SMOOTH",
"218 773 OFFCURVE",
"59 744 OFFCURVE",
"59 613 CURVE",
"100 613 OFFCURVE",
"115 613 OFFCURVE",
"152 613 CURVE",
"152 689 OFFCURVE",
"201 699 OFFCURVE",
"276 684 CURVE SMOOTH",
"327 674 OFFCURVE",
"350 632 OFFCURVE",
"350 573 CURVE SMOOTH",
"350 492 OFFCURVE",
"230 473 OFFCURVE",
"197 422 CURVE SMOOTH",
"168 376 OFFCURVE",
"156 284 OFFCURVE",
"156 220 CURVE",
"189 220 OFFCURVE"
);
}
);
width = 478;
},
{
layerId = "BBDB329E-CE83-4304-A6B1-53EA5ACC004E";
paths = (
{
closed = 1;
nodes = (
"255 193 OFFCURVE",
"265 193 OFFCURVE",
"347 193 CURVE",
"357 240 OFFCURVE",
"347 294 OFFCURVE",
"347 340 CURVE SMOOTH",
"347 347 OFFCURVE",
"492 384 OFFCURVE",
"486 544 CURVE SMOOTH",
"482 640 OFFCURVE",
"436 701 OFFCURVE",
"351 720 CURVE SMOOTH",
"282 737 OFFCURVE",
"114 707 OFFCURVE",
"114 568 CURVE",
"141 541 LINE",
"187 541 OFFCURVE",
"195 541 OFFCURVE",
"252 541 CURVE",
"246 603 OFFCURVE",
"253 619 OFFCURVE",
"328 605 CURVE SMOOTH",
"356 599 OFFCURVE",
"371 576 OFFCURVE",
"371 532 CURVE SMOOTH",
"371 479 OFFCURVE",
"278 472 OFFCURVE",
"240 414 CURVE SMOOTH",
"213 371 OFFCURVE",
"196 279 OFFCURVE",
"201 193 CURVE"
);
}
);
width = 600;
}
);
unicode = 0242;
},
{
color = 7;
glyphname = h;
lastChange = "2019-10-14 17:09:05 +0000";
layers = (
{
anchors = (
{
name = bottom;
position = "{411, -106}";
},
{
name = bottom_hook;
position = "{591, 0}";
},
{
name = center;
position = "{403, 293}";
},
{
name = top;
position = "{260, 840}";
},
{
name = top_hook;
position = "{249, 605}";
}
);
hints = (
{
horizontal = 1;
origin = "{0, 8}";
type = Anchor;
options = 4;
},
{
horizontal = 1;
origin = "{0, 12}";
target = "{0, 2}";
type = TTStem;
options = 4;
},
{
horizontal = 1;
origin = "{0, 7}";
type = Anchor;
options = 4;
}
);
layerId = "BA196CD0-EE58-4274-B8DF-4393D3617A29";
paths = (
{
closed = 1;
nodes = (
"636 522 OFFCURVE",
"542 542 OFFCURVE",
"457 548 CURVE SMOOTH",
"371 554 OFFCURVE",
"350 540 OFFCURVE",
"281 486 CURVE",
"304 850 LINE",
"214 850 LINE",
"153 0 LINE",
"301 0 LINE",
"247 365 OFFCURVE",
"318 446 OFFCURVE",
"437 446 CURVE SMOOTH",
"576 446 OFFCURVE",
"585 325 OFFCURVE",
"531 0 CURVE",
"669 0 LINE",
"648 330 LINE SMOOTH"
);
}
);
width = 822;
},
{
anchors = (
{
name = bottom;
position = "{440, 0}";
},
{
name = bottom_hook;
position = "{620, 0}";
},
{
name = center;
position = "{404, 273}";
},
{
name = top;
position = "{294, 888}";
},
{
name = top_hook;
position = "{283, 493}";
}
);
layerId = "BBDB329E-CE83-4304-A6B1-53EA5ACC004E";
paths = (
{
closed = 1;
nodes = (
"691 520 OFFCURVE",
"633 575 OFFCURVE",
"486 575 CURVE SMOOTH",
"425 575 OFFCURVE",
"387 565 OFFCURVE",
"341 530 CURVE",
"359 850 LINE",
"215 850 LINE",
"153 -2 LINE",
"361 -2 LINE",
"304 391 OFFCURVE",
"335 449 OFFCURVE",
"466 449 CURVE SMOOTH",
"594 449 OFFCURVE",
"608 388 OFFCURVE",
"527 -2 CURVE",
"727 -2 LINE",
"704 332 LINE SMOOTH"
);
}
);
width = 880;
}
);
unicode = 0068;
},
{
color = 7;
glyphname = i;
lastChange = "2019-10-16 02:36:56 +0000";
layers = (
{
anchors = (
{
name = _right;
position = "{107, 511}";
},
{
name = bottom;
position = "{214, -60}";
},
{
name = center;
position = "{228, 285}";
}
);
components = (
{
name = idotless;
transform = "{1, 0, 0, 1, 75, 0}";
}
);
hints = (
{
horizontal = 1;
origin = "{0, 3}";
type = Anchor;
options = 4;
},
{
horizontal = 1;
origin = "{0, 3}";
type = Anchor;
options = 4;
},
{
horizontal = 1;
origin = "{0, 3}";
target = "{0, 2}";
type = TTStem;
options = 4;
}
);
layerId = "BA196CD0-EE58-4274-B8DF-4393D3617A29";
paths = (
{
closed = 1;
nodes = (
"257 646 LINE",
"242 760 LINE",
"182 760 LINE",
"167 646 LINE"
);
}
);
width = 428;
},
{
anchors = (
{
name = _right;
position = "{120, 495}";
},
{
name = bottom;
position = "{243, -180}";
},
{
name = center;
position = "{257, 285}";
}
);
components = (
{
name = idotless;
transform = "{1, 0, 0, 1, 103, 2}";
}
);
layerId = "BBDB329E-CE83-4304-A6B1-53EA5ACC004E";
paths = (
{
closed = 1;
nodes = (
"304 648 LINE",
"287 796 LINE",
"185 796 LINE",
"178 648 LINE"
);
}
);
width = 489;
}
);
unicode = 0069;
},
{
glyphname = idotless;
lastChange = "2019-10-16 22:55:25 +0000";
layers = (
{
anchors = (
{
name = bottom;
position = "{141, 0}";
},
{
name = ogonek;
position = "{141, 0}";
},
{
name = top;
position = "{137, 630}";
}
);
hints = (
{
horizontal = 1;
origin = "{0, 0}";
type = Anchor;
options = 4;
},
{
horizontal = 1;
origin = "{0, 3}";
type = Anchor;
options = 4;
}
);
layerId = "BA196CD0-EE58-4274-B8DF-4393D3617A29";
paths = (
{
closed = 1;
nodes = (
"199 0 LINE",
"169 192 OFFCURVE",
"169 386 OFFCURVE",
"176 551 CURVE",
"96 551 LINE",
"96 329 OFFCURVE",
"80 192 OFFCURVE",
"67 0 CURVE"
);
}
);
width = 282;
},
{
anchors = (
{
name = bottom;
position = "{141, 0}";
},
{
name = ogonek;
position = "{141, 0}";
},
{
name = top;
position = "{137, 651}";
}
);
layerId = "BBDB329E-CE83-4304-A6B1-53EA5ACC004E";
paths = (
{
closed = 1;
nodes = (
"234 -2 LINE",
"197 214 OFFCURVE",
"199 373 OFFCURVE",
"207 558 CURVE",
"72 558 LINE",
"72 307 OFFCURVE",
"66 218 OFFCURVE",
"51 -2 CURVE"
);
}
);
width = 282;
}
);
unicode = 0131;
},
{
glyphname = "iota-latin";
lastChange = "2019-09-05 19:28:17 +0000";
layers = (
{
anchors = (
{
name = bottom;
position = "{127, 0}";
},
{
name = ogonek;
position = "{127, 0}";
},
{
name = top;
position = "{123, 517}";
}
);
hints = (
{
horizontal = 1;
origin = "{0, 7}";
type = Anchor;
options = 4;
}
);
layerId = "BA196CD0-EE58-4274-B8DF-4393D3617A29";
paths = (
{
closed = 1;
nodes = (
"254 67 LINE",
"218 67 OFFCURVE",
"212 56 OFFCURVE",
"164 79 CURVE",
"166 172 OFFCURVE",
"161 412 OFFCURVE",
"165 506 CURVE",
"85 506 LINE",
"85 389 OFFCURVE",
"102 263 OFFCURVE",
"80 44 CURVE",
"104 0 OFFCURVE",
"94 0 OFFCURVE",
"247 0 CURVE"
);
}
);
width = 334;
},
{
anchors = (
{
name = bottom;
position = "{101, 0}";
},
{
name = ogonek;
position = "{101, 0}";
},
{
name = top;
position = "{97, 517}";
}
);
layerId = "BBDB329E-CE83-4304-A6B1-53EA5ACC004E";
paths = (
{
closed = 1;
nodes = (
"258 94 LINE",
"166 96 OFFCURVE",
"182 87 OFFCURVE",
"165 96 CURVE",
"167 213 OFFCURVE",
"161 479 OFFCURVE",
"168 533 CURVE",
"32 533 LINE",
"29 406 OFFCURVE",
"51 280 OFFCURVE",
"27 47 CURVE",
"30 31 LINE",
"71 -43 OFFCURVE",
"108 -25 OFFCURVE",
"245 -27 CURVE"
);
}
);
width = 282;
}
);
unicode = 0269;
},
{
glyphname = jdotless;
lastChange = "2019-10-16 02:39:12 +0000";
layers = (
{
anchors = (
{
name = bottom;
position = "{355, -320}";
},
{
name = center;
position = "{445, 269}";
},
{
name = right;
position = "{284, 267}";
},
{
name = top;
position = "{440, 610}";
}
);
layerId = "BA196CD0-EE58-4274-B8DF-4393D3617A29";
paths = (
{
closed = 1;
nodes = (
"343 -129 OFFCURVE",
"249 -134 OFFCURVE",
"199 -125 CURVE",
"153 -219 LINE",
"238 -236 OFFCURVE",
"373 -216 OFFCURVE",
"406 -190 CURVE SMOOTH",
"441 -163 OFFCURVE",
"457 -121 OFFCURVE",
"463 -14 CURVE SMOOTH",
"493 557 LINE",
"398 557 LINE",
"387 155 OFFCURVE",
"387 21 OFFCURVE",
"370 -38 CURVE SMOOTH"
);
}
);
width = 646;
},
{
anchors = (
{
name = bottom;
position = "{312, -320}";
},
{
name = center;
position = "{394, 313}";
},
{
name = right;
position = "{284, 267}";
},
{
name = top;
position = "{405, 674}";
}
);
layerId = "BBDB329E-CE83-4304-A6B1-53EA5ACC004E";
paths = (
{
closed = 1;
nodes = (
"248 -107 OFFCURVE",
"264 -103 OFFCURVE",
"187 -74 CURVE",
"153 -248 LINE",
"286 -256 OFFCURVE",
"359 -251 OFFCURVE",
"389 -218 CURVE SMOOTH",
"416 -189 OFFCURVE",
"424 -149 OFFCURVE",
"433 -16 CURVE SMOOTH",
"470 547 LINE",
"330 547 LINE",
"318 124 OFFCURVE",
"317 -17 OFFCURVE",
"283 -62 CURVE SMOOTH"
);
}
);
width = 623;
}
);
unicode = 0237;
},
{
color = 7;
glyphname = k;
lastChange = "2019-10-16 12:27:01 +0000";
layers = (
{
anchors = (
{
name = bottom;
position = "{352, 0}";
},
{
name = stroke;
position = "{223, 624}";
},
{
name = top;
position = "{246, 862}";
},
{
name = top_hook;
position = "{242, 378}";
}
);
hints = (
{
horizontal = 1;
origin = "{0, 10}";
type = Anchor;
options = 4;
},
{
horizontal = 1;
origin = "{0, 6}";
type = Anchor;
options = 4;
}
);
layerId = "BA196CD0-EE58-4274-B8DF-4393D3617A29";
paths = (
{
closed = 1;
nodes = (
"283 0 LINE",
"272 238 LINE",
"458 0 LINE",
"663 0 LINE",
"352 299 LINE",
"525 520 LINE",
"407 520 LINE",
"272 351 LINE",
"295 793 LINE",
"195 793 LINE",
"153 0 LINE"
);
}
);
width = 816;
},
{
anchors = (
{
name = bottom;
position = "{370, 0}";
},
{
name = stroke;
position = "{277, 690}";
},
{
name = top;
position = "{288, 912}";
},
{
name = top_hook;
position = "{260, 378}";
}
);
layerId = "BBDB329E-CE83-4304-A6B1-53EA5ACC004E";
paths = (
{
closed = 1;
nodes = (
"329 -2 LINE",
"322 166 LINE",
"462 -2 LINE",
"748 -2 LINE",
"407 300 LINE",
"589 525 LINE",
"423 525 LINE",
"318 407 LINE",
"355 849 LINE",
"210 849 LINE",
"153 -2 LINE"
);
}
);
width = 901;
}
);
unicode = 006B;
},
{
color = 7;
glyphname = l;
lastChange = "2019-10-16 22:54:25 +0000";
layers = (
{
anchors = (
{
name = _right;
position = "{60, 512}";
},
{
name = bottom;
position = "{275, -47}";
},
{
name = center;
position = "{219, 400}";
},
{
name = dot;
position = "{311, 406}";
},
{
name = ezh;
position = "{222, 547}";
},
{
name = right;
position = "{351, 484}";
},
{
name = right_el;
position = "{447, 547}";
},
{
name = rightl;
position = "{428, 217}";
},
{
name = top;
position = "{263, 835}";
},
{
name = topright;
position = "{330, 641}";
}
);
hints = (
{
horizontal = 1;
origin = "{0, 9}";
target = "{0, 2}";
type = TTStem;
options = 4;
}
);
layerId = "BA196CD0-EE58-4274-B8DF-4393D3617A29";
paths = (
{
closed = 1;
nodes = (
"387 0 LINE",
"371 111 LINE",
"252 111 LINE",
"242 354 OFFCURVE",
"257 544 OFFCURVE",
"284 784 CURVE",
"199 784 LINE",
"158 506 OFFCURVE",
"145 111 OFFCURVE",
"157 0 CURVE"
);
}
);
width = 540;
},
{
anchors = (
{
name = _right;
position = "{100, 499}";
},
{
name = bottom;
position = "{265, -38}";
},
{
name = center;
position = "{242, 400}";
},
{
name = dot;
position = "{326, 406}";
},
{
name = ezh;
position = "{245, 547}";
},
{
name = right;
position = "{374, 487}";
},
{
name = right_el;
position = "{470, 538}";
},
{
name = rightl;
position = "{421, 217}";
},
{
name = top;
position = "{293, 1027}";
},
{
name = topright;
position = "{376, 793}";
}
);
layerId = "BBDB329E-CE83-4304-A6B1-53EA5ACC004E";
paths = (
{
closed = 1;
nodes = (
"441 0 LINE",
"417 138 LINE",
"302 138 LINE",
"304 241 OFFCURVE",
"311 649 OFFCURVE",
"337 850 CURVE",
"198 850 LINE",
"163 538 OFFCURVE",
"150 44 OFFCURVE",
"154 0 CURVE"
);
}
);
width = 594;
}
);
unicode = 006C;
},
{
glyphname = lbelt;
lastChange = "2019-10-12 04:32:02 +0000";
layers = (
{
anchors = (
{
name = _curl;
position = "{725, 459}";
},
{
name = bottom;
position = "{890, 0}";
},
{
name = top;
position = "{890, 540}";
}
);
components = (
{
name = l;
transform = "{1, 0, 0, 1, 113, 0}";
}
);
hints = (
{
horizontal = 1;
origin = "{0, 37}";
target = "{0, 3}";
type = TTStem;
options = 4;
},
{
horizontal = 1;
origin = "{0, 12}";
target = "{0, 28}";
type = TTStem;
options = 4;
}
);
layerId = "BA196CD0-EE58-4274-B8DF-4393D3617A29";
paths = (
{
closed = 1;
nodes = (
"592 398 LINE",
"522 398 OFFCURVE",
"462 401 OFFCURVE",
"351 401 CURVE SMOOTH",
"255 401 OFFCURVE",
"170 462 OFFCURVE",
"170 501 CURVE SMOOTH",
"170 510 OFFCURVE",
"173 518 OFFCURVE",
"181 524 CURVE SMOOTH",
"197 536 OFFCURVE",
"213 543 OFFCURVE",
"227 543 CURVE SMOOTH",
"254 543 OFFCURVE",
"291 517 OFFCURVE",
"291 456 CURVE SMOOTH",
"291 399 OFFCURVE",
"286 346 OFFCURVE",
"283 294 CURVE SMOOTH",
"279 229 OFFCURVE",
"275 167 OFFCURVE",
"275 104 CURVE",
"369 104 LINE",
"369 225 OFFCURVE",
"369 344 OFFCURVE",
"369 480 CURVE SMOOTH",
"369 573 OFFCURVE",
"317 638 OFFCURVE",
"242 638 CURVE SMOOTH",
"211 638 OFFCURVE",
"168 633 OFFCURVE",
"132 608 CURVE SMOOTH",
"82 573 OFFCURVE",
"67 524 OFFCURVE",
"92 456 CURVE SMOOTH",
"145 313 OFFCURVE",
"303 292 OFFCURVE",
"592 290 CURVE"
);
}
);
width = 672;
},
{
anchors = (
{
name = _curl;
position = "{725, 459}";
},
{
name = bottom;
position = "{890, 0}";
},
{
name = top;
position = "{890, 540}";
}
);
components = (
{
name = l;
transform = "{1, 0, 0, 1, 80, -11}";
}
);
layerId = "BBDB329E-CE83-4304-A6B1-53EA5ACC004E";
paths = (
{
closed = 1;
nodes = (
"619 425 LINE",
"537 424 OFFCURVE",
"476 428 OFFCURVE",
"351 428 CURVE SMOOTH",
"285 428 OFFCURVE",
"197 473 OFFCURVE",
"197 501 CURVE SMOOTH",
"197 506 OFFCURVE",
"195 501 OFFCURVE",
"197 502 CURVE",
"210 512 OFFCURVE",
"219 516 OFFCURVE",
"227 516 CURVE SMOOTH",
"247 516 OFFCURVE",
"264 492 OFFCURVE",
"264 456 CURVE SMOOTH",
"264 400 OFFCURVE",
"259 347 OFFCURVE",
"256 296 CURVE SMOOTH",
"251 222 OFFCURVE",
"247 150 OFFCURVE",
"248 77 CURVE",
"396 77 LINE",
"396 208 OFFCURVE",
"396 333 OFFCURVE",
"396 480 CURVE SMOOTH",
"396 588 OFFCURVE",
"332 665 OFFCURVE",
"242 665 CURVE SMOOTH",
"194 665 OFFCURVE",
"149 653 OFFCURVE",
"117 630 CURVE SMOOTH",
"55 587 OFFCURVE",
"38 524 OFFCURVE",
"67 447 CURVE SMOOTH",
"127 284 OFFCURVE",
"312 264 OFFCURVE",
"619 263 CURVE"
);
}
);
width = 672;
}
);
unicode = 026C;
},
{
glyphname = lhookretroflex;
lastChange = "2019-09-02 15:01:06 +0000";
layers = (
{
anchors = (
{
name = bottom;
position = "{139, 0}";
},
{
name = center;
position = "{212, 400}";
},
{
name = dot;
position = "{243, 406}";
},
{
name = top;
position = "{165, 685}";
},
{
name = topright;
position = "{281, 641}";
}
);
layerId = "BA196CD0-EE58-4274-B8DF-4393D3617A29";
paths = (
{
closed = 1;
nodes = (
"362 0 LINE",
"362 -168 OFFCURVE",
"209 -163 OFFCURVE",
"210 -55 CURVE SMOOTH",
"211 150 OFFCURVE",
"207 637 OFFCURVE",
"224 784 CURVE",
"139 784 LINE",
"121 608 OFFCURVE",
"96 226 OFFCURVE",
"82 -55 CURVE SMOOTH",
"79 -122 OFFCURVE",
"73 -245 OFFCURVE",
"139 -245 CURVE SMOOTH",
"372 -245 OFFCURVE",
"464 -258 OFFCURVE",
"475 20 CURVE"
);
}
);
width = 555;
},
{
anchors = (
{
name = bottom;
position = "{139, 0}";
},
{
name = center;
position = "{212, 400}";
},
{
name = dot;
position = "{243, 406}";
},
{
name = top;
position = "{165, 685}";
},
{
name = topright;
position = "{281, 641}";
}
);
layerId = "BBDB329E-CE83-4304-A6B1-53EA5ACC004E";
paths = (
{
closed = 1;
nodes = (
"334 22 LINE",
"346 -130 OFFCURVE",
"236 -132 OFFCURVE",
"237 -55 CURVE SMOOTH",
"238 168 OFFCURVE",
"233 723 OFFCURVE",
"256 811 CURVE",
"115 811 LINE",
"97 648 OFFCURVE",
"70 241 OFFCURVE",
"55 -54 CURVE SMOOTH",
"49 -188 OFFCURVE",
"64 -272 OFFCURVE",
"139 -272 CURVE SMOOTH",
"378 -272 OFFCURVE",
"498 -290 OFFCURVE",
"503 52 CURVE"
);
}
);
width = 555;
}
);
unicode = 026D;
},
{
glyphname = lsdigraph;
lastChange = "2019-09-05 19:28:17 +0000";
layers = (
{
components = (
{
name = l;
},
{
name = s;
transform = "{1, 0, 0, 1, 229, 9}";
}
);
hints = (
{
horizontal = 1;
origin = "{0, 0}";
target = "{0, 3}";
type = TTStem;
options = 4;
}
);
layerId = "BA196CD0-EE58-4274-B8DF-4393D3617A29";
paths = (
{
closed = 1;
nodes = (
"128 0 LINE",
"575 0 LINE",
"575 112 LINE",
"128 112 LINE"
);
}
);
width = 858;
},
{
components = (
{
name = l;
},
{
name = s;
transform = "{1, 0, 0, 1, 229, 9}";
}
);
layerId = "BBDB329E-CE83-4304-A6B1-53EA5ACC004E";
paths = (
{
closed = 1;
nodes = (
"101 -27 LINE",
"602 -27 LINE",
"602 139 LINE",
"101 139 LINE"
);
}
);
width = 858;
}
);
unicode = 02AA;
},
{
glyphname = lzdigraph;
lastChange = "2019-09-05 19:28:17 +0000";
layers = (
{
components = (
{
name = l;
},
{
name = z;
transform = "{1, 0, 0, 1, 187, -1}";
}
);
hints = (
{
horizontal = 1;
origin = "{1, 0}";
target = "{1, 3}";
type = TTStem;
options = 4;
}
);
layerId = "BA196CD0-EE58-4274-B8DF-4393D3617A29";
paths = (
{
closed = 1;
nodes = (
"282 111 LINE",
"262 0 LINE",
"227 0 LINE",
"215 111 LINE"
);
},
{
closed = 1;
nodes = (
"139 482 LINE",
"370 482 LINE",
"370 549 LINE",
"139 549 LINE"
);
}
);
width = 858;
},
{
components = (
{
name = l;
},
{
name = z;
transform = "{1, 0, 0, 1, 187, -1}";
}
);
layerId = "BBDB329E-CE83-4304-A6B1-53EA5ACC004E";
paths = (
{
closed = 1;
nodes = (
"250 84 LINE",
"239 27 LINE",
"251 27 LINE",
"245 84 LINE"
);
},
{
closed = 1;
nodes = (
"112 455 LINE",
"397 455 LINE",
"397 576 LINE",
"112 576 LINE"
);
}
);
width = 858;
}
);
unicode = 02AB;
},
{
color = 7;
glyphname = m;
lastChange = "2019-10-17 20:29:19 +0000";
layers = (
{
anchors = (
{
name = bottom;
position = "{585, 0}";
},
{
name = center;
position = "{617, 279}";
},
{
name = eng;
position = "{955, 11}";
},
{
name = top;
position = "{647, 598}";
}
);
hints = (
{
horizontal = 1;
origin = "{0, 8}";
type = Anchor;
options = 4;
},
{
horizontal = 1;
origin = "{0, 22}";
target = "{0, 2}";
type = TTStem;
options = 4;
},
{
horizontal = 1;
origin = "{0, 13}";
target = "{0, 2}";
type = TTStem;
options = 4;
}
);
layerId = "BA196CD0-EE58-4274-B8DF-4393D3617A29";
paths = (
{
closed = 1;
nodes = (
"620 522 OFFCURVE",
"554 564 OFFCURVE",
"474 564 CURVE SMOOTH",
"404 564 OFFCURVE",
"339 529 OFFCURVE",
"298 462 CURVE",
"308 547 LINE",
"218 547 LINE",
"153 0 LINE",
"278 0 LINE",
"304 323 LINE SMOOTH",
"308 378 OFFCURVE",
"371 471 OFFCURVE",
"463 471 CURVE SMOOTH",
"540 471 OFFCURVE",
"597 405 OFFCURVE",
"577 317 CURVE SMOOTH",
"506 0 LINE",
"630 0 LINE",
"672 279 LINE SMOOTH",
"689 389 OFFCURVE",
"724 465 OFFCURVE",
"818 465 CURVE SMOOTH",
"894 465 OFFCURVE",
"927 416 OFFCURVE",
"916 312 CURVE SMOOTH",
"882 0 LINE",
"1017 0 LINE",
"1006 300 LINE SMOOTH",
"1000 460 OFFCURVE",
"952 564 OFFCURVE",
"828 564 CURVE SMOOTH",
"751 564 OFFCURVE",
"692 525 OFFCURVE",
"647 442 CURVE"
);
}
);
width = 1170;
},
{
anchors = (
{
name = bottom;
position = "{615, 0}";
},
{
name = center;
position = "{647, 279}";
},
{
name = eng;
position = "{985, 11}";
},
{
name = top;
position = "{694, 647}";
}
);
layerId = "BBDB329E-CE83-4304-A6B1-53EA5ACC004E";
paths = (
{
closed = 1;
nodes = (
"643 554 OFFCURVE",
"580 586 OFFCURVE",
"504 587 CURVE SMOOTH",
"449 588 OFFCURVE",
"403 573 OFFCURVE",
"365 544 CURVE",
"368 574 LINE",
"224 574 LINE",
"153 -1 LINE",
"333 -1 LINE",
"361 338 LINE SMOOTH",
"370 445 OFFCURVE",
"419 487 OFFCURVE",
"493 464 CURVE SMOOTH",
"544 448 OFFCURVE",
"595 405 OFFCURVE",
"580 340 CURVE SMOOTH",
"503 -1 LINE",
"684 -1 LINE",
"729 303 LINE SMOOTH",
"747 422 OFFCURVE",
"779 478 OFFCURVE",
"848 468 CURVE SMOOTH",
"901 460 OFFCURVE",
"919 420 OFFCURVE",
"919 341 CURVE",
"882 -1 LINE",
"1075 -1 LINE",
"1063 331 LINE SMOOTH",
"1058 469 OFFCURVE",
"966 573 OFFCURVE",
"858 587 CURVE SMOOTH",
"782 597 OFFCURVE",
"726 559 OFFCURVE",
"680 497 CURVE"
);
}
);
width = 1228;
}
);
unicode = 006D;
},
{
glyphname = mlonglegturned;
lastChange = "2019-10-11 17:11:26 +0000";
layers = (
{
components = (
{
name = mturned;
}
);
hints = (
{
horizontal = 1;
origin = "{0, 0}";
type = Anchor;
options = 4;
}
);
layerId = "BA196CD0-EE58-4274-B8DF-4393D3617A29";
paths = (
{
closed = 1;
nodes = (
"857 -131 LINE",
"966 -131 LINE",
"1021 565 LINE",
"897 565 LINE"
);
}
);
width = 1024;
},
{
components = (
{
name = mturned;
transform = "{1, 0, 0, 1, 2, 0}";
}
);
layerId = "BBDB329E-CE83-4304-A6B1-53EA5ACC004E";
paths = (
{
closed = 1;
nodes = (
"828 -190 LINE",
"991 -190 LINE",
"1050 560 LINE",
"872 560 LINE"
);
}
);
width = 1028;
}
);
unicode = 0270;
},
{
color = 7;
glyphname = n;
lastChange = "2019-10-17 20:20:15 +0000";
layers = (
{
anchors = (
{
name = bottom;
position = "{354, -106}";
},
{
name = center;
position = "{411, 269}";
},
{
name = eng;
position = "{590, 19}";
},
{
name = right;
position = "{849, 355}";
},
{
name = top;
position = "{443, 653}";
},
{
name = topright;
position = "{124, 589}";
}
);
hints = (
{
horizontal = 1;
origin = "{0, 8}";
type = Anchor;
options = 4;
},
{
horizontal = 1;
origin = "{0, 13}";
target = "{0, 2}";
type = TTStem;
options = 4;
}
);
layerId = "BA196CD0-EE58-4274-B8DF-4393D3617A29";
paths = (
{
closed = 1;
nodes = (
"630 467 OFFCURVE",
"562 557 OFFCURVE",
"437 557 CURVE SMOOTH",
"361 557 OFFCURVE",
"323 524 OFFCURVE",
"276 502 CURVE",
"259 546 LINE",
"193 546 LINE",
"153 0 LINE",
"301 0 LINE",
"287 304 LINE SMOOTH",
"283 394 OFFCURVE",
"317 472 OFFCURVE",
"427 472 CURVE SMOOTH",
"507 472 OFFCURVE",
"537 426 OFFCURVE",
"534 329 CURVE SMOOTH",
"523 0 LINE",
"662 0 LINE",
"640 323 LINE SMOOTH"
);
}
);
width = 815;
},
{
anchors = (
{
name = bottom;
position = "{423, -189}";
},
{
name = center;
position = "{440, 269}";
},
{
name = eng;
position = "{627, 19}";
},
{
name = right;
position = "{812, 355}";
},
{
name = top;
position = "{475, 724}";
},
{
name = topright;
position = "{218, 630}";
}
);
layerId = "BBDB329E-CE83-4304-A6B1-53EA5ACC004E";
paths = (
{
closed = 1;
nodes = (
"683 503 OFFCURVE",
"614 587 OFFCURVE",
"466 582 CURVE SMOOTH",
"401 580 OFFCURVE",
"357 561 OFFCURVE",
"321 538 CURVE",
"309 583 LINE",
"197 583 LINE",
"153 0 LINE",
"349 0 LINE",
"323 316 LINE SMOOTH",
"316 406 OFFCURVE",
"373 455 OFFCURVE",
"456 455 CURVE SMOOTH",
"529 455 OFFCURVE",
"564 417 OFFCURVE",
"556 341 CURVE SMOOTH",
"522 0 LINE",
"720 0 LINE",
"696 325 LINE SMOOTH"
);
}
);
width = 873;
}
);
unicode = 006E;
},
{
glyphname = nhookleft;
lastChange = "2019-10-12 04:34:14 +0000";
layers = (
{
components = (
{
name = n;
transform = "{1, 0, 0, 1, 82, 0}";
}
);
hints = (
{
horizontal = 1;
origin = "{0, 10}";
target = "{0, 9}";
type = TTStem;
options = 4;
}
);
layerId = "BA196CD0-EE58-4274-B8DF-4393D3617A29";
paths = (
{
closed = 1;
nodes = (
"266 -176 OFFCURVE",
"293 -176 OFFCURVE",
"332 -176 CURVE SMOOTH",
"379 -176 OFFCURVE",
"379 -123 OFFCURVE",
"379 22 CURVE",
"242 22 LINE",
"242 -57 OFFCURVE",
"241 -68 OFFCURVE",
"165 -68 CURVE",
"165 -176 LINE"
);
}
);
width = 751;
},
{
components = (
{
name = n;
transform = "{1, 0, 0, 1, -60, 0}";
}
);
layerId = "BBDB329E-CE83-4304-A6B1-53EA5ACC004E";
paths = (
{
closed = 1;
nodes = (
"141 -225 OFFCURVE",
"169 -225 OFFCURVE",
"211 -225 CURVE SMOOTH",
"285 -225 OFFCURVE",
"286 -157 OFFCURVE",
"285 27 CURVE",
"94 27 LINE",
"93 -92 OFFCURVE",
"101 -57 OFFCURVE",
"17 -64 CURVE",
"17 -225 LINE"
);
}
);
width = 751;
}
);
unicode = 0272;
},
{
glyphname = nhookretroflex;
lastChange = "2019-10-12 04:33:26 +0000";
layers = (
{
anchors = (
{
name = _bottom_hook;
position = "{967.809, 379.718}";
}
);
components = (
{
name = n;
}
);
hints = (
{
horizontal = 1;
origin = "{0, 7}";
target = "{0, 0}";
type = TTStem;
options = 4;
}
);
layerId = "BA196CD0-EE58-4274-B8DF-4393D3617A29";
paths = (
{
closed = 1;
nodes = (
"736 -68 LINE",
"660 -68 OFFCURVE",
"659 -57 OFFCURVE",
"659 22 CURVE",
"522 22 LINE",
"522 -123 OFFCURVE",
"522 -176 OFFCURVE",
"569 -176 CURVE SMOOTH",
"608 -176 OFFCURVE",
"635 -176 OFFCURVE",
"736 -176 CURVE"
);
}
);
width = 741;
},
{
anchors = (
{
name = _bottom_hook;
position = "{968, 380}";
}
);
components = (
{
name = n;
}
);
layerId = "BBDB329E-CE83-4304-A6B1-53EA5ACC004E";
paths = (
{
closed = 1;
nodes = (
"792 -91 LINE",
"708 -84 OFFCURVE",
"716 -119 OFFCURVE",
"715 0 CURVE",
"524 0 LINE",
"524 -184 OFFCURVE",
"524 -252 OFFCURVE",
"598 -252 CURVE SMOOTH",
"640 -252 OFFCURVE",
"668 -252 OFFCURVE",
"792 -252 CURVE"
);
}
);
width = 741;
}
);
unicode = 0273;
},
{
color = 7;
glyphname = o;
lastChange = "2019-10-17 20:30:11 +0000";
layers = (
{
anchors = (
{
name = _;
position = "{414, 555}";
},
{
name = bottom;
position = "{419, -137}";
},
{
name = center;
position = "{414, 290}";
},
{
name = horn;
position = "{632, 435}";
},
{
name = ogonek;
position = "{675, 10}";
},
{
name = top;
position = "{414, 662}";
},
{
name = topright;
position = "{720, 500}";
}
);
hints = (
{
horizontal = 1;
origin = "{0, 11}";
target = "{1, 11}";
type = TTStem;
options = 4;
},
{
horizontal = 1;
origin = "{1, 5}";
target = "{0, 5}";
type = TTStem;
options = 4;
}
);
layerId = "BA196CD0-EE58-4274-B8DF-4393D3617A29";
paths = (
{
closed = 1;
nodes = (
"576 -13 OFFCURVE",
"675 104 OFFCURVE",
"675 273 CURVE SMOOTH",
"675 449 OFFCURVE",
"576 560 OFFCURVE",
"414 560 CURVE SMOOTH",
"251 560 OFFCURVE",
"153 449 OFFCURVE",
"153 273 CURVE SMOOTH",
"153 104 OFFCURVE",
"251 -13 OFFCURVE",
"414 -13 CURVE SMOOTH"
);
},
{
closed = 1;
nodes = (
"294 136 OFFCURVE",
"252 159 OFFCURVE",
"252 290 CURVE SMOOTH",
"252 429 OFFCURVE",
"314 472 OFFCURVE",
"414 472 CURVE SMOOTH",
"514 472 OFFCURVE",
"576 429 OFFCURVE",
"576 290 CURVE SMOOTH",
"576 159 OFFCURVE",
"534 136 OFFCURVE",
"414 136 CURVE SMOOTH"
);
}
);
width = 828;
},
{
anchors = (
{
name = _;
position = "{426, 680}";
},
{
name = bottom;
position = "{445, -157}";
},
{
name = center;
position = "{431, 312}";
},
{
name = horn;
position = "{649, 463}";
},
{
name = ogonek;
position = "{692, 38}";
},
{
name = top;
position = "{452, 740}";
},
{
name = topright;
position = "{737, 528}";
}
);
layerId = "BBDB329E-CE83-4304-A6B1-53EA5ACC004E";
paths = (
{
closed = 1;
nodes = (
"603 -13 OFFCURVE",
"709 108 OFFCURVE",
"709 301 CURVE SMOOTH",
"709 486 OFFCURVE",
"601 604 OFFCURVE",
"431 604 CURVE SMOOTH",
"261 604 OFFCURVE",
"153 486 OFFCURVE",
"153 301 CURVE SMOOTH",
"153 107 OFFCURVE",
"259 -13 OFFCURVE",
"431 -13 CURVE SMOOTH"
);
},
{
closed = 1;
nodes = (
"347 186 OFFCURVE",
"302 213 OFFCURVE",
"302 317 CURVE SMOOTH",
"302 420 OFFCURVE",
"352 484 OFFCURVE",
"431 484 CURVE SMOOTH",
"509 484 OFFCURVE",
"560 420 OFFCURVE",
"560 317 CURVE SMOOTH",
"560 213 OFFCURVE",
"515 186 OFFCURVE",
"431 186 CURVE SMOOTH"
);
}
);
width = 862;
}
);
leftKerningGroup = Round;
rightKerningGroup = RoundRight;
unicode = 006F;
},
{
color = 7;
glyphname = p;
lastChange = "2019-10-14 17:09:05 +0000";
layers = (
{
anchors = (
{
name = bottom;
position = "{439, 0}";
},
{
name = center;
position = "{235, -97}";
},
{
name = top;
position = "{478, 583}";
},
{
name = top_hook;
position = "{261, 202}";
}
);
hints = (
{
place = "{141, 115}";
type = Stem;
},
{
horizontal = 1;
place = "{497, 63}";
type = Stem;
},
{
horizontal = 1;
place = "{-3, 140}";
type = Stem;
},
{
place = "{562, 63}";
type = Stem;
},
{
horizontal = 1;
origin = "{0, 15}";
type = Anchor;
options = 4;
},
{
horizontal = 1;
origin = "{0, 2}";
target = "{1, 2}";
type = TTStem;
options = 4;
},
{
horizontal = 1;
origin = "{1, 8}";
target = "{0, 8}";
type = TTStem;
options = 4;
}
);
layerId = "BA196CD0-EE58-4274-B8DF-4393D3617A29";
paths = (
{
closed = 1;
nodes = (
"352 17 OFFCURVE",
"420 -15 OFFCURVE",
"500 -15 CURVE SMOOTH",
"658 -15 OFFCURVE",
"724 126 OFFCURVE",
"724 283 CURVE SMOOTH",
"724 448 OFFCURVE",
"633 549 OFFCURVE",
"500 553 CURVE SMOOTH",
"420 555 OFFCURVE",
"362 522 OFFCURVE",
"325 457 CURVE",
"307 532 LINE",
"217 532 LINE",
"233 237 LINE",
"153 -212 LINE",
"282 -204 LINE",
"325 82 LINE"
);
},
{
closed = 1;
nodes = (
"640 196 OFFCURVE",
"613 134 OFFCURVE",
"518 134 CURVE SMOOTH",
"423 134 OFFCURVE",
"351 196 OFFCURVE",
"351 302 CURVE SMOOTH",
"351 408 OFFCURVE",
"430 473 OFFCURVE",
"513 473 CURVE SMOOTH",
"596 473 OFFCURVE",
"632 408 OFFCURVE",
"636 302 CURVE SMOOTH"
);
}
);
width = 877;
},
{
anchors = (
{
name = bottom;
position = "{472, 0}";
},
{
name = center;
position = "{246, -150}";
},
{
name = top;
position = "{489, 587}";
},
{
name = top_hook;
position = "{294, 202}";
}
);
hints = (
{
place = "{141, 115}";
type = Stem;
},
{
horizontal = 1;
place = "{497, 63}";
type = Stem;
},
{
horizontal = 1;
place = "{-3, 140}";
type = Stem;
},
{
place = "{562, 63}";
type = Stem;
}
);
layerId = "BBDB329E-CE83-4304-A6B1-53EA5ACC004E";
paths = (
{
closed = 1;
nodes = (
"415 -12 OFFCURVE",
"468 -31 OFFCURVE",
"533 -31 CURVE SMOOTH",
"692 -31 OFFCURVE",
"784 87 OFFCURVE",
"784 273 CURVE SMOOTH",
"784 453 OFFCURVE",
"681 576 OFFCURVE",
"533 580 CURVE SMOOTH",
"466 582 OFFCURVE",
"411 559 OFFCURVE",
"371 519 CURVE",
"361 559 LINE",
"221 559 LINE",
"239 239 LINE",
"153 -241 LINE",
"338 -230 LINE",
"375 16 LINE"
);
},
{
closed = 1;
nodes = (
"672 189 OFFCURVE",
"647 161 OFFCURVE",
"551 161 CURVE SMOOTH",
"451 161 OFFCURVE",
"421 189 OFFCURVE",
"421 289 CURVE SMOOTH",
"421 411 OFFCURVE",
"468 466 OFFCURVE",
"546 466 CURVE SMOOTH",
"625 466 OFFCURVE",
"672 411 OFFCURVE",
"672 289 CURVE SMOOTH"
);
}
);
width = 937;
}
);
rightKerningGroup = RoundRight;
unicode = 0070;
},
{
glyphname = thorn;
lastChange = "2019-09-05 19:28:17 +0000";
layers = (
{
hints = (
{
horizontal = 1;
place = "{51, 86}";
type = TTStem;
options = 4;
},
{
horizontal = 1;
origin = "{2, 5}";
target = "{1, 5}";
type = TTStem;
options = 4;
},
{
horizontal = 1;
origin = "{0, 3}";
type = Anchor;
options = 4;
}
);
layerId = "BA196CD0-EE58-4274-B8DF-4393D3617A29";
paths = (
{
closed = 1;
nodes = (
"96 -180 LINE",
"184 -180 LINE",
"168 800 LINE",
"80 800 LINE"
);
},
{
closed = 1;
nodes = (
"296 50 OFFCURVE",
"476 151 OFFCURVE",
"480 371 CURVE SMOOTH",
"483 535 OFFCURVE",
"300 636 OFFCURVE",
"156 636 CURVE",
"92 498 OFFCURVE",
"85 188 OFFCURVE",
"151 50 CURVE"
);
},
{
closed = 1;
nodes = (
"150 137 OFFCURVE",
"104 235 OFFCURVE",
"107 375 CURVE SMOOTH",
"109 460 OFFCURVE",
"150 559 OFFCURVE",
"203 559 CURVE SMOOTH",
"255 559 OFFCURVE",
"411 460 OFFCURVE",
"409 375 CURVE SMOOTH",
"406 235 OFFCURVE",
"255 137 OFFCURVE",
"203 137 CURVE SMOOTH"
);
}
);
width = 560;
},
{
layerId = "BBDB329E-CE83-4304-A6B1-53EA5ACC004E";
paths = (
{
closed = 1;
nodes = (
"69 -207 LINE",
"211 -207 LINE",
"195 827 LINE",
"53 827 LINE"
);
},
{
closed = 1;
nodes = (
"151 23 LINE",
"350 23 OFFCURVE",
"503 171 OFFCURVE",
"507 371 CURVE SMOOTH",
"510 528 OFFCURVE",
"345 663 OFFCURVE",
"156 663 CURVE",
"132 647 LINE",
"62 497 OFFCURVE",
"59 179 OFFCURVE",
"127 38 CURVE"
);
},
{
closed = 1;
nodes = (
"167 164 OFFCURVE",
"132 261 OFFCURVE",
"134 374 CURVE SMOOTH",
"136 453 OFFCURVE",
"173 532 OFFCURVE",
"203 532 CURVE SMOOTH",
"262 532 OFFCURVE",
"383 427 OFFCURVE",
"382 376 CURVE SMOOTH",
"379 250 OFFCURVE",
"247 164 OFFCURVE",
"203 164 CURVE SMOOTH"
);
}
);
width = 560;
}
);
unicode = 00FE;
},
{
color = 7;
glyphname = q;
lastChange = "2019-10-14 17:09:05 +0000";
layers = (
{
anchors = (
{
name = bottom;
position = "{469, 0}";
},
{
name = bottom_hook;
position = "{639, -127}";
},
{
name = top;
position = "{469, 500}";
},
{
name = top_hook;
position = "{614, 218}";
}
);
hints = (
{
horizontal = 1;
origin = "{0, 20}";
type = Anchor;
options = 4;
},
{
horizontal = 1;
origin = "{0, 16}";
target = "{1, 11}";
type = TTStem;
options = 4;
},
{
horizontal = 1;
origin = "{1, 5}";
target = "{0, 10}";
type = TTStem;
options = 4;
}
);
layerId = "BA196CD0-EE58-4274-B8DF-4393D3617A29";
paths = (
{
closed = 1;
nodes = (
"768 -140 LINE",
"794 -20 LINE",
"708 -50 LINE",
"638 -70 LINE",
"650 186 LINE",
"685 547 LINE",
"578 547 LINE",
"578 447 LINE",
"524 532 OFFCURVE",
"481 570 OFFCURVE",
"385 557 CURVE SMOOTH",
"253 539 OFFCURVE",
"153 446 OFFCURVE",
"153 274 CURVE SMOOTH",
"153 102 OFFCURVE",
"256 -7 OFFCURVE",
"388 -14 CURVE SMOOTH",
"468 -18 OFFCURVE",
"525 17 OFFCURVE",
"563 82 CURVE",
"536 -208 LINE"
);
},
{
closed = 1;
nodes = (
"279 127 OFFCURVE",
"232 173 OFFCURVE",
"244 286 CURVE SMOOTH",
"256 398 OFFCURVE",
"308 482 OFFCURVE",
"404 482 CURVE SMOOTH",
"499 482 OFFCURVE",
"542 398 OFFCURVE",
"530 286 CURVE SMOOTH",
"518 173 OFFCURVE",
"469 127 OFFCURVE",
"374 127 CURVE"
);
}
);
width = 947;
},
{
anchors = (
{
name = bottom;
position = "{485, 0}";
},
{
name = bottom_hook;
position = "{655, -127}";
},
{
name = top;
position = "{485, 500}";
},
{
name = top_hook;
position = "{630, 218}";
}
);
layerId = "BBDB329E-CE83-4304-A6B1-53EA5ACC004E";
paths = (
{
closed = 1;
nodes = (
"810 -161 LINE",
"819 19 LINE",
"696 -24 LINE",
"663 -34 LINE",
"673 184 LINE",
"711 574 LINE",
"567 574 LINE",
"567 509 LINE",
"520 562 OFFCURVE",
"472 584 OFFCURVE",
"401 581 CURVE SMOOTH",
"252 575 OFFCURVE",
"153 457 OFFCURVE",
"153 273 CURVE SMOOTH",
"153 88 OFFCURVE",
"255 -31 OFFCURVE",
"404 -31 CURVE SMOOTH",
"460 -31 OFFCURVE",
"507 -17 OFFCURVE",
"544 2 CURVE",
"521 -245 LINE"
);
},
{
closed = 1;
nodes = (
"291 164 OFFCURVE",
"267 188 OFFCURVE",
"267 286 CURVE SMOOTH",
"267 400 OFFCURVE",
"310 465 OFFCURVE",
"390 465 CURVE SMOOTH",
"471 465 OFFCURVE",
"519 400 OFFCURVE",
"519 286 CURVE SMOOTH",
"519 188 OFFCURVE",
"492 164 OFFCURVE",
"390 164 CURVE SMOOTH"
);
}
);
width = 972;
},
{
associatedMasterId = "BA196CD0-EE58-4274-B8DF-4393D3617A29";
layerId = "550EFC85-22CC-4D43-B167-1DAEAAA2FB65";
name = "Regular May 31 12, 16:28";
paths = (
{
closed = 1;
nodes = (
"157 153 OFFCURVE",
"212 136 OFFCURVE",
"308 136 CURVE SMOOTH",
"403 136 OFFCURVE",
"463 153 OFFCURVE",
"463 286 CURVE SMOOTH",
"463 418 OFFCURVE",
"405 498 OFFCURVE",
"310 498 CURVE SMOOTH",
"215 498 OFFCURVE",
"157 418 OFFCURVE",
"157 286 CURVE SMOOTH"
);
},
{
closed = 1;
nodes = (
"497 82 LINE",
"459 17 OFFCURVE",
"402 -14 OFFCURVE",
"321 -14 CURVE SMOOTH",
"189 -14 OFFCURVE",
"98 101 OFFCURVE",
"98 273 CURVE SMOOTH",
"98 445 OFFCURVE",
"189 560 OFFCURVE",
"321 560 CURVE SMOOTH",
"402 560 OFFCURVE",
"459 529 OFFCURVE",
"497 464 CURVE",
"511 547 LINE",
"598 547 LINE",
"561 -118 LINE SMOOTH",
"557 -208 LINE",
"474 -208 LINE"
);
}
);
width = 718;
},
{
associatedMasterId = "BBDB329E-CE83-4304-A6B1-53EA5ACC004E";
layerId = "5892CAD6-04FA-4732-8FAB-EB7591270E8A";
name = "Regular May 31 12, 16:28";
paths = (
{
closed = 1;
nodes = (
"157 153 OFFCURVE",
"212 136 OFFCURVE",
"308 136 CURVE SMOOTH",
"403 136 OFFCURVE",
"463 153 OFFCURVE",
"463 286 CURVE SMOOTH",
"463 418 OFFCURVE",
"405 498 OFFCURVE",
"310 498 CURVE SMOOTH",
"215 498 OFFCURVE",
"157 418 OFFCURVE",
"157 286 CURVE SMOOTH"
);
},
{
closed = 1;
nodes = (
"497 82 LINE",
"459 17 OFFCURVE",
"402 -14 OFFCURVE",
"321 -14 CURVE SMOOTH",
"189 -14 OFFCURVE",
"98 101 OFFCURVE",
"98 273 CURVE SMOOTH",
"98 445 OFFCURVE",
"189 560 OFFCURVE",
"321 560 CURVE SMOOTH",
"402 560 OFFCURVE",
"459 529 OFFCURVE",
"497 464 CURVE",
"511 547 LINE",
"598 547 LINE",
"561 -118 LINE SMOOTH",
"557 -208 LINE",
"474 -208 LINE"
);
}
);
width = 718;
}
);
leftKerningGroup = Round;
unicode = 0071;
},
{
color = 7;
glyphname = r;
lastChange = "2019-10-14 17:09:05 +0000";
layers = (
{
anchors = (
{
name = _center;
position = "{217, 571}";
},
{
name = bottom;
position = "{245, -177}";
},
{
name = bottom_wide;
position = "{276, 0}";
},
{
name = center;
position = "{238, 274}";
},
{
name = top;
position = "{294, 547}";
}
);
hints = (
{
horizontal = 1;
origin = "{0, 7}";
type = Anchor;
options = 4;
}
);
layerId = "BA196CD0-EE58-4274-B8DF-4393D3617A29";
paths = (
{
closed = 1;
nodes = (
"375 543 OFFCURVE",
"347 528 OFFCURVE",
"292 486 CURVE",
"292 545 LINE",
"199 545 LINE",
"199 317 OFFCURVE",
"194 196 OFFCURVE",
"153 0 CURVE",
"334 0 LINE",
"305 164 OFFCURVE",
"311 228 OFFCURVE",
"311 286 CURVE SMOOTH",
"311 383 OFFCURVE",
"329 460 OFFCURVE",
"506 423 CURVE",
"491 549 LINE"
);
}
);
width = 659;
},
{
anchors = (
{
name = _center;
position = "{329, 519}";
},
{
name = bottom;
position = "{280, -218}";
},
{
name = bottom_wide;
position = "{309, 0}";
},
{
name = center;
position = "{271, 274}";
},
{
name = top;
position = "{327, 585}";
}
);
layerId = "BBDB329E-CE83-4304-A6B1-53EA5ACC004E";
paths = (
{
closed = 1;
nodes = (
"447 572 OFFCURVE",
"401 565 OFFCURVE",
"352 536 CURVE",
"352 567 LINE",
"205 572 LINE",
"205 313 OFFCURVE",
"201 220 OFFCURVE",
"153 -2 CURVE",
"389 -2 LINE",
"355 180 OFFCURVE",
"354 192 OFFCURVE",
"352 253 CURVE SMOOTH",
"348 387 OFFCURVE",
"353 459 OFFCURVE",
"569 424 CURVE",
"547 576 LINE"
);
}
);
width = 722;
}
);
unicode = 0072;
},
{
glyphname = ramshorn;
lastChange = "2019-09-05 19:28:17 +0000";
layers = (
{
anchors = (
{
name = _curl;
position = "{209, 459}";
},
{
name = bottom;
position = "{374, 0}";
},
{
name = top;
position = "{374, 540}";
}
);
hints = (
{
horizontal = 1;
origin = "{0, 11}";
target = "{0, 33}";
type = TTStem;
options = 4;
},
{
horizontal = 1;
origin = "{0, 2}";
target = "{0, 39}";
type = TTStem;
options = 4;
},
{
horizontal = 1;
origin = "{0, 20}";
target = "{0, 27}";
type = TTStem;
options = 4;
}
);
layerId = "BA196CD0-EE58-4274-B8DF-4393D3617A29";
paths = (
{
closed = 1;
nodes = (
"616 397 OFFCURVE",
"611 515 OFFCURVE",
"489 513 CURVE SMOOTH",
"362 511 OFFCURVE",
"343 427 OFFCURVE",
"288 295 CURVE SMOOTH",
"239 178 OFFCURVE",
"194 96 OFFCURVE",
"224 51 CURVE SMOOTH",
"258 0 OFFCURVE",
"282 -8 OFFCURVE",
"342 -8 CURVE SMOOTH",
"385 -8 OFFCURVE",
"437 1 OFFCURVE",
"472 51 CURVE SMOOTH",
"507 102 OFFCURVE",
"468 172 OFFCURVE",
"421 268 CURVE SMOOTH",
"361 391 OFFCURVE",
"310 511 OFFCURVE",
"223 511 CURVE SMOOTH",
"80 511 OFFCURVE",
"80 422 OFFCURVE",
"80 339 CURVE",
"142 339 LINE",
"142 422 OFFCURVE",
"150 448 OFFCURVE",
"226 448 CURVE SMOOTH",
"286 448 OFFCURVE",
"315 345 OFFCURVE",
"351 224 CURVE SMOOTH",
"383 117 OFFCURVE",
"406 57 OFFCURVE",
"342 57 CURVE SMOOTH",
"290 57 OFFCURVE",
"306 115 OFFCURVE",
"351 224 CURVE SMOOTH",
"405 354 OFFCURVE",
"430 453 OFFCURVE",
"489 453 CURVE SMOOTH",
"532 453 OFFCURVE",
"547 397 OFFCURVE",
"551 339 CURVE",
"616 339 LINE"
);
}
);
width = 696;
},
{
anchors = (
{
name = _curl;
position = "{209, 459}";
},
{
name = bottom;
position = "{374, 0}";
},
{
name = top;
position = "{374, 540}";
}
);
layerId = "BBDB329E-CE83-4304-A6B1-53EA5ACC004E";
paths = (
{
closed = 1;
nodes = (
"643 398 OFFCURVE",
"637 542 OFFCURVE",
"489 540 CURVE SMOOTH",
"340 538 OFFCURVE",
"317 435 OFFCURVE",
"263 305 CURVE SMOOTH",
"215 190 OFFCURVE",
"162 95 OFFCURVE",
"202 36 CURVE SMOOTH",
"239 -20 OFFCURVE",
"269 -35 OFFCURVE",
"342 -35 CURVE SMOOTH",
"410 -35 OFFCURVE",
"461 -12 OFFCURVE",
"494 36 CURVE SMOOTH",
"539 101 OFFCURVE",
"492 185 OFFCURVE",
"445 280 CURVE SMOOTH",
"386 402 OFFCURVE",
"328 538 OFFCURVE",
"223 538 CURVE SMOOTH",
"34 538 OFFCURVE",
"55 394 OFFCURVE",
"53 312 CURVE",
"169 312 LINE",
"169 414 OFFCURVE",
"167 421 OFFCURVE",
"226 421 CURVE SMOOTH",
"254 421 OFFCURVE",
"277 379 OFFCURVE",
"325 216 CURVE SMOOTH",
"363 89 OFFCURVE",
"364 84 OFFCURVE",
"342 84 CURVE SMOOTH",
"329 84 OFFCURVE",
"332 108 OFFCURVE",
"376 214 CURVE SMOOTH",
"430 343 OFFCURVE",
"453 426 OFFCURVE",
"489 426 CURVE SMOOTH",
"508 426 OFFCURVE",
"524 388 OFFCURVE",
"525 312 CURVE",
"643 312 LINE"
);
}
);
width = 696;
}
);
unicode = 0264;
},
{
glyphname = rfishhook;
lastChange = "2019-09-05 19:28:17 +0000";
layers = (
{
anchors = (
{
name = _top_hook;
position = "{121, 66}";
},
{
name = center;
position = "{125, 299}";
}
);
hints = (
{
horizontal = 1;
origin = "{1, 12}";
target = "{1, 13}";
type = TTStem;
options = 4;
}
);
layerId = "BA196CD0-EE58-4274-B8DF-4393D3617A29";
paths = (
{
closed = 1;
nodes = (
"80 4 LINE",
"165 4 LINE",
"165 399 LINE",
"80 399 LINE"
);
},
{
closed = 1;
nodes = (
"110 567 OFFCURVE",
"86 561 OFFCURVE",
"82 449 CURVE SMOOTH",
"80 399 OFFCURVE",
"80 415 OFFCURVE",
"80 345 CURVE",
"165 345 LINE",
"165 376 OFFCURVE",
"165 401 OFFCURVE",
"165 430 CURVE SMOOTH",
"165 478 OFFCURVE",
"168 481 OFFCURVE",
"236 481 CURVE",
"236 566 LINE"
);
}
);
width = 316;
},
{
anchors = (
{
name = _top_hook;
position = "{121, 66}";
},
{
name = center;
position = "{125, 299}";
}
);
layerId = "BBDB329E-CE83-4304-A6B1-53EA5ACC004E";
paths = (
{
closed = 1;
nodes = (
"53 -23 LINE",
"192 -23 LINE",
"192 426 LINE",
"53 426 LINE"
);
},
{
closed = 1;
nodes = (
"92 596 OFFCURVE",
"60 580 OFFCURVE",
"55 450 CURVE SMOOTH",
"53 395 OFFCURVE",
"53 420 OFFCURVE",
"53 318 CURVE",
"192 318 LINE",
"192 365 OFFCURVE",
"192 393 OFFCURVE",
"192 430 CURVE SMOOTH",
"192 466 OFFCURVE",
"180 451 OFFCURVE",
"263 455 CURVE",
"263 593 LINE"
);
}
);
width = 316;
}
);
unicode = 027E;
},
{
glyphname = rlonglegturned;
lastChange = "2019-10-11 17:14:37 +0000";
layers = (
{
components = (
{
name = rturned;
}
);
layerId = "BA196CD0-EE58-4274-B8DF-4393D3617A29";
paths = (
{
closed = 1;
nodes = (
"331 531 LINE",
"499 531 LINE",
"524 831 LINE",
"299 831 LINE"
);
}
);
width = 529;
},
{
components = (
{
name = rturned;
transform = "{1, 0, 0, 1, 5, 0}";
}
);
layerId = "BBDB329E-CE83-4304-A6B1-53EA5ACC004E";
paths = (
{
closed = 1;
nodes = (
"347 484 LINE",
"564 484 LINE",
"593 838 LINE",
"309 838 LINE"
);
}
);
width = 539;
}
);
unicode = 027A;
},
{
color = 7;
glyphname = s;
lastChange = "2019-10-16 22:50:55 +0000";
layers = (
{
anchors = (
{
name = _right_el;
position = "{214, 529}";
},
{
name = bottom;
position = "{392, -112}";
},
{
name = bottom_hook;
position = "{203, -98}";
},
{
name = center;
position = "{387, 269}";
},
{
name = t;
position = "{637, 296}";
},
{
name = top;
position = "{401, 626}";
}
);
hints = (
{
horizontal = 1;
origin = "{0, 21}";
target = "{0, 14}";
type = TTStem;
options = 4;
},
{
horizontal = 1;
origin = "{0, 33}";
target = "{0, 2}";
type = TTStem;
options = 4;
}
);
layerId = "BA196CD0-EE58-4274-B8DF-4393D3617A29";
paths = (
{
closed = 1;
nodes = (
"532 560 OFFCURVE",
"472 573 OFFCURVE",
"405 573 CURVE SMOOTH",
"232 573 OFFCURVE",
"197 484 OFFCURVE",
"197 411 CURVE SMOOTH",
"197 280 OFFCURVE",
"319 250 OFFCURVE",
"364 243 CURVE",
"434 229 OFFCURVE",
"495 209 OFFCURVE",
"495 177 CURVE SMOOTH",
"495 120 OFFCURVE",
"429 124 OFFCURVE",
"394 127 CURVE SMOOTH",
"333 132 OFFCURVE",
"309 138 OFFCURVE",
"251 160 CURVE",
"153 49 LINE",
"197 16 OFFCURVE",
"209 -14 OFFCURVE",
"392 -14 CURVE SMOOTH",
"543 -14 OFFCURVE",
"620 17 OFFCURVE",
"620 155 CURVE SMOOTH",
"620 233 OFFCURVE",
"591 275 OFFCURVE",
"426 326 CURVE SMOOTH",
"339 353 OFFCURVE",
"273 383 OFFCURVE",
"272 415 CURVE SMOOTH",
"271 460 OFFCURVE",
"287 497 OFFCURVE",
"416 497 CURVE SMOOTH",
"451 495 OFFCURVE",
"474 497 OFFCURVE",
"536 489 CURVE",
"582 549 LINE"
);
}
);
width = 773;
},
{
anchors = (
{
name = _right_el;
position = "{258, 529}";
},
{
name = bottom;
position = "{448, -199}";
},
{
name = bottom_hook;
position = "{247, -98}";
},
{
name = center;
position = "{439, 275}";
},
{
name = t;
position = "{691, 295}";
},
{
name = top;
position = "{449, 601}";
}
);
layerId = "BBDB329E-CE83-4304-A6B1-53EA5ACC004E";
paths = (
{
closed = 1;
nodes = (
"586 570 OFFCURVE",
"502 579 OFFCURVE",
"449 580 CURVE SMOOTH",
"270 583 OFFCURVE",
"230 511 OFFCURVE",
"230 443 CURVE SMOOTH",
"230 348 OFFCURVE",
"307 285 OFFCURVE",
"399 259 CURVE SMOOTH",
"472 238 OFFCURVE",
"551 241 OFFCURVE",
"532 177 CURVE SMOOTH",
"516 124 OFFCURVE",
"465 135 OFFCURVE",
"428 139 CURVE SMOOTH",
"355 146 OFFCURVE",
"318 171 OFFCURVE",
"287 199 CURVE",
"153 51 LINE",
"214 3 OFFCURVE",
"326 -22 OFFCURVE",
"436 -21 CURVE SMOOTH",
"623 -19 OFFCURVE",
"708 74 OFFCURVE",
"713 167 CURVE SMOOTH",
"715 197 OFFCURVE",
"690 305 OFFCURVE",
"525 348 CURVE SMOOTH",
"448 368 OFFCURVE",
"350 373 OFFCURVE",
"345 422 CURVE SMOOTH",
"337 498 OFFCURVE",
"409 493 OFFCURVE",
"460 488 CURVE SMOOTH",
"505 484 OFFCURVE",
"553 477 OFFCURVE",
"598 451 CURVE",
"637 550 LINE"
);
}
);
width = 866;
}
);
unicode = 0073;
},
{
glyphname = saltillo;
lastChange = "2019-09-02 15:01:09 +0000";
layers = (
{
layerId = "BA196CD0-EE58-4274-B8DF-4393D3617A29";
paths = (
{
closed = 1;
nodes = (
"116 336 LINE",
"163 336 LINE",
"201 758 LINE",
"80 758 LINE"
);
}
);
width = 281;
},
{
layerId = "BBDB329E-CE83-4304-A6B1-53EA5ACC004E";
paths = (
{
closed = 1;
nodes = (
"251 309 LINE",
"348 309 LINE",
"391 785 LINE",
"211 785 LINE"
);
}
);
width = 600;
}
);
unicode = A78C;
},
{
glyphname = germandbls;
lastChange = "2019-09-05 19:28:17 +0000";
layers = (
{
hints = (
{
horizontal = 1;
origin = "{0, 50}";
type = Anchor;
options = 4;
},
{
horizontal = 1;
origin = "{0, 4}";
target = "{0, 46}";
type = TTStem;
options = 4;
},
{
horizontal = 1;
origin = "{0, 30}";
target = "{0, 23}";
type = TTStem;
options = 4;
}
);
layerId = "BA196CD0-EE58-4274-B8DF-4393D3617A29";
paths = (
{
closed = 1;
nodes = (
"215 0 LINE",
"191 553 LINE",
"204 665 OFFCURVE",
"246 705 OFFCURVE",
"330 705 CURVE SMOOTH",
"404 705 OFFCURVE",
"437 699 OFFCURVE",
"488 580 CURVE",
"357 561 OFFCURVE",
"328 502 OFFCURVE",
"328 420 CURVE SMOOTH",
"328 366 OFFCURVE",
"363 319 OFFCURVE",
"393 281 CURVE",
"433 254 LINE",
"465 234 OFFCURVE",
"487 217 OFFCURVE",
"497 203 CURVE SMOOTH",
"506 189 OFFCURVE",
"511 176 OFFCURVE",
"511 162 CURVE SMOOTH",
"511 122 OFFCURVE",
"471 100 OFFCURVE",
"395 100 CURVE SMOOTH",
"353 100 OFFCURVE",
"309 109 OFFCURVE",
"256 129 CURVE",
"256 10 LINE",
"304 -6 OFFCURVE",
"348 -14 OFFCURVE",
"390 -14 CURVE SMOOTH",
"527 -14 OFFCURVE",
"602 47 OFFCURVE",
"602 159 CURVE SMOOTH",
"602 224 OFFCURVE",
"582 260 OFFCURVE",
"475 329 CURVE SMOOTH",
"447 347 LINE SMOOTH",
"404 375 OFFCURVE",
"387 399 OFFCURVE",
"387 430 CURVE SMOOTH",
"387 493 OFFCURVE",
"444 532 OFFCURVE",
"542 537 CURVE",
"542 683 OFFCURVE",
"468 760 OFFCURVE",
"332 760 CURVE SMOOTH",
"190 760 OFFCURVE",
"109 686 OFFCURVE",
"109 555 CURVE",
"80 0 LINE"
);
}
);
width = 682;
},
{
layerId = "BBDB329E-CE83-4304-A6B1-53EA5ACC004E";
paths = (
{
closed = 1;
nodes = (
"243 -27 LINE",
"218 552 LINE",
"229 646 OFFCURVE",
"259 678 OFFCURVE",
"330 678 CURVE SMOOTH",
"396 678 OFFCURVE",
"417 668 OFFCURVE",
"449 600 CURVE",
"347 577 OFFCURVE",
"301 521 OFFCURVE",
"301 420 CURVE SMOOTH",
"301 355 OFFCURVE",
"344 299 OFFCURVE",
"374 261 CURVE",
"418 231 LINE",
"449 212 OFFCURVE",
"467 198 OFFCURVE",
"475 188 CURVE",
"482 177 OFFCURVE",
"484 170 OFFCURVE",
"484 162 CURVE SMOOTH",
"484 141 OFFCURVE",
"457 127 OFFCURVE",
"395 127 CURVE SMOOTH",
"347 127 OFFCURVE",
"296 140 OFFCURVE",
"229 169 CURVE",
"229 -9 LINE",
"287 -31 OFFCURVE",
"340 -41 OFFCURVE",
"390 -41 CURVE SMOOTH",
"542 -41 OFFCURVE",
"629 32 OFFCURVE",
"629 159 CURVE SMOOTH",
"629 239 OFFCURVE",
"597 282 OFFCURVE",
"490 352 CURVE SMOOTH",
"462 370 LINE SMOOTH",
"426 393 OFFCURVE",
"414 409 OFFCURVE",
"414 430 CURVE SMOOTH",
"414 476 OFFCURVE",
"459 506 OFFCURVE",
"543 510 CURVE",
"569 537 LINE",
"569 697 OFFCURVE",
"484 787 OFFCURVE",
"332 787 CURVE SMOOTH",
"175 787 OFFCURVE",
"82 701 OFFCURVE",
"82 556 CURVE",
"52 -27 LINE"
);
}
);
width = 682;
}
);
unicode = 00DF;
},
{
glyphname = longs;
lastChange = "2019-10-13 20:37:26 +0000";
layers = (
{
anchors = (
{
name = t;
position = "{392, 291}";
}
);
layerId = "BA196CD0-EE58-4274-B8DF-4393D3617A29";
paths = (
{
closed = 1;
nodes = (
"286 0 LINE",
"271 458 LINE",
"267 490 OFFCURVE",
"265 520 OFFCURVE",
"265 547 CURVE SMOOTH",
"265 664 OFFCURVE",
"303 732 OFFCURVE",
"368 732 CURVE SMOOTH",
"392 732 OFFCURVE",
"419 723 OFFCURVE",
"450 704 CURVE",
"450 779 LINE",
"419 800 OFFCURVE",
"386 810 OFFCURVE",
"355 810 CURVE SMOOTH",
"258 810 OFFCURVE",
"171 715 OFFCURVE",
"171 547 CURVE",
"171 458 LINE",
"156 0 LINE"
);
}
);
width = 520;
},
{
anchors = (
{
name = t;
position = "{437, 291}";
}
);
layerId = "BBDB329E-CE83-4304-A6B1-53EA5ACC004E";
paths = (
{
closed = 1;
nodes = (
"304 3 LINE",
"295 287 LINE",
"281 370 OFFCURVE",
"275 436 OFFCURVE",
"275 489 CURVE SMOOTH",
"275 631 OFFCURVE",
"319 677 OFFCURVE",
"381 677 CURVE SMOOTH",
"403 677 OFFCURVE",
"428 671 OFFCURVE",
"454 661 CURVE",
"464 790 LINE",
"400 808 OFFCURVE",
"346 818 OFFCURVE",
"303 818 CURVE SMOOTH",
"193 818 OFFCURVE",
"145 755 OFFCURVE",
"134 604 CURVE",
"133 461 LINE",
"118 3 LINE"
);
}
);
width = 600;
}
);
unicode = 017F;
},
{
color = 7;
glyphname = t;
lastChange = "2019-10-14 17:09:05 +0000";
layers = (
{
anchors = (
{
name = _t;
position = "{170, 295}";
},
{
name = bottom;
position = "{415, -28}";
},
{
name = caron;
position = "{474, 616}";
},
{
name = center;
position = "{340, 341}";
},
{
name = circumflexbelowcomb;
position = "{396, 0}";
},
{
name = curl;
position = "{545, 584}";
},
{
name = top;
position = "{364, 708}";
},
{
name = top_hook;
position = "{350, 639}";
},
{
name = topright;
position = "{639, 500}";
}
);
hints = (
{
horizontal = 1;
origin = "{0, 14}";
target = "{0, 6}";
type = TTStem;
options = 4;
},
{
horizontal = 1;
origin = "{1, 3}";
target = "{1, 2}";
type = TTStem;
options = 4;
}
);
layerId = "BA196CD0-EE58-4274-B8DF-4393D3617A29";
paths = (
{
closed = 1;
nodes = (
"345 0 OFFCURVE",
"521 0 OFFCURVE",
"558 2 CURVE",
"539 130 LINE",
"380 134 OFFCURVE",
"377 132 OFFCURVE",
"380 221 CURVE SMOOTH",
"399 737 LINE",
"295 677 LINE",
"270 371 OFFCURVE",
"260 74 OFFCURVE",
"260 50 CURVE SMOOTH",
"260 43 OFFCURVE",
"264 0 OFFCURVE",
"298 0 CURVE SMOOTH"
);
},
{
closed = 1;
nodes = (
"559 480 LINE",
"541 547 LINE",
"182 547 LINE",
"153 480 LINE"
);
}
);
width = 712;
},
{
anchors = (
{
name = _t;
position = "{170, 295}";
},
{
name = bottom;
position = "{471, -164}";
},
{
name = caron;
position = "{514, 616}";
},
{
name = center;
position = "{380, 318}";
},
{
name = circumflexbelowcomb;
position = "{430, -41}";
},
{
name = curl;
position = "{559, 618}";
},
{
name = top;
position = "{404, 770}";
},
{
name = top_hook;
position = "{390, 692}";
},
{
name = topright;
position = "{679, 500}";
}
);
layerId = "BBDB329E-CE83-4304-A6B1-53EA5ACC004E";
paths = (
{
closed = 1;
nodes = (
"600 155 LINE",
"494 154 OFFCURVE",
"451 155 OFFCURVE",
"437 155 CURVE",
"459 764 LINE",
"312 704 LINE",
"287 382 OFFCURVE",
"290 100 OFFCURVE",
"289 74 CURVE SMOOTH",
"288 27 OFFCURVE",
"293 4 OFFCURVE",
"341 0 CURVE SMOOTH",
"352 -1 OFFCURVE",
"475 0 OFFCURVE",
"627 0 CURVE"
);
},
{
closed = 1;
nodes = (
"635 441 LINE",
"603 562 LINE",
"205 562 LINE",
"153 441 LINE"
);
}
);
width = 788;
}
);
unicode = 0074;
},
{
glyphname = tccurl;
lastChange = "2019-10-04 23:57:39 +0000";
layers = (
{
components = (
{
name = t;
transform = "{1, 0, 0, 1, 22, 0}";
},
{
name = ccurl;
transform = "{1, 0, 0, 1, 376, -3}";
}
);
layerId = "BA196CD0-EE58-4274-B8DF-4393D3617A29";
paths = (
{
closed = 1;
nodes = (
"401 480 LINE",
"579 480 LINE",
"659 547 LINE",
"411 547 LINE"
);
}
);
width = 1059;
},
{
components = (
{
name = t;
transform = "{1, 0, 0, 1, 62, 0}";
},
{
name = ccurl;
transform = "{1, 0, 0, 1, 504, 11}";
}
);
layerId = "BBDB329E-CE83-4304-A6B1-53EA5ACC004E";
paths = (
{
closed = 1;
nodes = (
"377 0 LINE",
"709 0 LINE",
"600 155 LINE",
"402 155 LINE"
);
}
);
width = 1214;
}
);
unicode = 02A8;
},
{
glyphname = tesh;
lastChange = "2019-09-18 15:31:57 +0000";
layers = (
{
components = (
{
name = t;
transform = "{1, 0, 0.03492, 1, -19, 0}";
},
{
name = esh;
transform = "{0.97435, 0.22503, -0.22503, 0.97435, 233, -67}";
}
);
hints = (
{
horizontal = 1;
origin = "{0, 0}";
target = "{0, 3}";
type = TTStem;
options = 4;
}
);
layerId = "BA196CD0-EE58-4274-B8DF-4393D3617A29";
paths = (
{
closed = 1;
nodes = (
"445 479 LINE",
"595 479 LINE",
"595 545 LINE",
"445 545 LINE"
);
}
);
width = 921;
},
{
components = (
{
name = t;
transform = "{1, 0, 0.03492, 1, -19, 0}";
},
{
name = esh;
transform = "{0.97435, 0.22503, -0.22503, 0.97435, 233, -67}";
}
);
layerId = "BBDB329E-CE83-4304-A6B1-53EA5ACC004E";
paths = (
{
closed = 1;
nodes = (
"376 440 LINE",
"580 440 LINE",
"580 560 LINE",
"376 560 LINE"
);
}
);
width = 921;
}
);
unicode = 02A7;
},
{
glyphname = tretroflexhook;
lastChange = "2019-09-05 19:28:17 +0000";
layers = (
{
anchors = (
{
name = bottom;
position = "{338, 0}";
},
{
name = caron;
position = "{376, 616}";
},
{
name = center;
position = "{242, 341}";
},
{
name = circumflexbelowcomb;
position = "{347, -25}";
},
{
name = curl;
position = "{447, 584}";
},
{
name = top;
position = "{254, 661}";
},
{
name = top_hook;
position = "{252, 639}";
},
{
name = topright;
position = "{541, 500}";
}
);
hints = (
{
horizontal = 1;
origin = "{1, 10}";
target = "{1, 2}";
type = TTStem;
options = 4;
},
{
horizontal = 1;
origin = "{0, 0}";
target = "{0, 3}";
type = TTStem;
options = 4;
}
);
layerId = "BA196CD0-EE58-4274-B8DF-4393D3617A29";
paths = (
{
closed = 1;
nodes = (
"80 548 LINE",
"486 548 LINE",
"468 615 LINE",
"109 615 LINE"
);
},
{
closed = 1;
nodes = (
"404 11 OFFCURVE",
"333 11 OFFCURVE",
"282 11 CURVE",
"316 737 LINE",
"222 737 LINE",
"197 499 OFFCURVE",
"162 -66 OFFCURVE",
"162 -90 CURVE SMOOTH",
"162 -97 OFFCURVE",
"166 -140 OFFCURVE",
"200 -140 CURVE SMOOTH",
"247 -140 OFFCURVE",
"393 -140 OFFCURVE",
"430 -138 CURVE",
"422 10 LINE"
);
}
);
width = 566;
},
{
anchors = (
{
name = bottom;
position = "{338, 0}";
},
{
name = caron;
position = "{376, 616}";
},
{
name = center;
position = "{242, 341}";
},
{
name = circumflexbelowcomb;
position = "{347, -25}";
},
{
name = curl;
position = "{447, 584}";
},
{
name = top;
position = "{254, 661}";
},
{
name = top_hook;
position = "{252, 639}";
},
{
name = topright;
position = "{541, 500}";
}
);
layerId = "BBDB329E-CE83-4304-A6B1-53EA5ACC004E";
paths = (
{
closed = 1;
nodes = (
"39 521 LINE",
"521 521 LINE",
"489 642 LINE",
"91 642 LINE"
);
},
{
closed = 1;
nodes = (
"408 38 OFFCURVE",
"356 38 OFFCURVE",
"310 38 CURVE",
"344 764 LINE",
"198 764 LINE",
"173 542 OFFCURVE",
"135 -64 OFFCURVE",
"135 -90 CURVE SMOOTH",
"135 -131 OFFCURVE",
"161 -167 OFFCURVE",
"200 -167 CURVE",
"158 -167 OFFCURVE",
"195 -167 OFFCURVE",
"459 -168 CURVE",
"448 36 LINE"
);
}
);
width = 566;
}
);
unicode = 0288;
},
{
glyphname = ts;
lastChange = "2019-10-04 14:13:35 +0000";
layers = (
{
components = (
{
alignment = -1;
name = s;
transform = "{1, 0, 0, 1.05709, 357, 11}";
},
{
alignment = -1;
name = t;
transform = "{0.93149, 0, 0, 1, 5, 0}";
}
);
layerId = "BA196CD0-EE58-4274-B8DF-4393D3617A29";
paths = (
{
closed = 1;
nodes = (
"162 481 LINE",
"520 481 LINE",
"520 546 LINE",
"162 549 LINE"
);
}
);
width = 986;
},
{
components = (
{
alignment = -1;
name = s;
transform = "{1, 0, 0, 1.05709, 357, 6}";
},
{
alignment = -1;
name = t;
transform = "{0.93149, 0, 0, 1, 5, 0}";
}
);
layerId = "BBDB329E-CE83-4304-A6B1-53EA5ACC004E";
paths = (
{
closed = 1;
nodes = (
"166 441 LINE",
"578 443 LINE",
"578 560 LINE",
"166 563 LINE"
);
}
);
width = 986;
}
);
unicode = 02A6;
},
{
color = 7;
glyphname = u;
lastChange = "2019-10-14 17:09:05 +0000";
layers = (
{
anchors = (
{
name = bottom;
position = "{391, -68}";
},
{
name = bottomleft;
position = "{147, 7}";
},
{
name = center;
position = "{404, 356}";
},
{
name = horn;
position = "{644, 456}";
},
{
name = ogonek;
position = "{585, 5}";
},
{
name = top;
position = "{387, 630}";
},
{
name = topright;
position = "{702, 500}";
}
);
hints = (
{
horizontal = 1;
origin = "{0, 19}";
target = "{0, 10}";
type = TTStem;
options = 4;
},
{
horizontal = 1;
origin = "{0, 3}";
target = "{0, 10}";
type = TTStem;
options = 4;
}
);
layerId = "BA196CD0-EE58-4274-B8DF-4393D3617A29";
paths = (
{
closed = 1;
nodes = (
"424 -16 OFFCURVE",
"508 -6 OFFCURVE",
"542 84 CURVE",
"538 0 LINE",
"647 0 LINE",
"627 560 LINE",
"528 560 LINE",
"521 305 LINE SMOOTH",
"518 189 OFFCURVE",
"513 162 OFFCURVE",
"386 161 CURVE SMOOTH",
"269 160 OFFCURVE",
"277 188 OFFCURVE",
"269 297 CURVE SMOOTH",
"249 560 LINE",
"153 560 LINE",
"174 216 LINE SMOOTH",
"186 27 OFFCURVE",
"243 -16 OFFCURVE",
"366 -16 CURVE SMOOTH"
);
}
);
width = 800;
},
{
anchors = (
{
name = bottom;
position = "{429, -239}";
},
{
name = bottomleft;
position = "{175, -5}";
},
{
name = center;
position = "{427, 356}";
},
{
name = horn;
position = "{673, 521}";
},
{
name = ogonek;
position = "{614, 5}";
},
{
name = top;
position = "{433, 666}";
},
{
name = topright;
position = "{731, 500}";
}
);
layerId = "BBDB329E-CE83-4304-A6B1-53EA5ACC004E";
paths = (
{
closed = 1;
nodes = (
"460 -17 OFFCURVE",
"506 -6 OFFCURVE",
"540 19 CURVE",
"539 0 LINE",
"704 0 LINE",
"682 574 LINE",
"541 574 LINE",
"530 317 LINE",
"521 167 OFFCURVE",
"482 159 OFFCURVE",
"416 167 CURVE SMOOTH",
"335 177 OFFCURVE",
"313 199 OFFCURVE",
"305 299 CURVE SMOOTH",
"282 574 LINE",
"153 574 LINE",
"176 214 LINE SMOOTH",
"186 52 OFFCURVE",
"245 -17 OFFCURVE",
"395 -17 CURVE SMOOTH"
);
}
);
width = 857;
}
);
unicode = 0075;
},
{
color = 7;
glyphname = v;
lastChange = "2019-10-14 17:09:05 +0000";
layers = (
{
anchors = (
{
name = bottom;
position = "{450, 0}";
},
{
name = top;
position = "{486, 592}";
}
);
hints = (
{
horizontal = 1;
origin = "{0, 8}";
type = Anchor;
options = 4;
},
{
horizontal = 1;
origin = "{0, 8}";
target = "{0, 4}";
type = TTStem;
options = 4;
}
);
layerId = "BA196CD0-EE58-4274-B8DF-4393D3617A29";
paths = (
{
closed = 1;
nodes = (
"547 0 LINE",
"567 144 LINE",
"747 547 LINE",
"652 547 LINE",
"460 146 LINE",
"248 547 LINE",
"153 547 LINE",
"335 144 LINE",
"363 0 LINE"
);
}
);
width = 900;
},
{
anchors = (
{
name = bottom;
position = "{492, 0}";
},
{
name = top;
position = "{492, 659}";
}
);
layerId = "BBDB329E-CE83-4304-A6B1-53EA5ACC004E";
paths = (
{
closed = 1;
nodes = (
"613 -1 LINE",
"635 136 LINE",
"831 574 LINE",
"677 574 LINE",
"501 206 LINE",
"306 574 LINE",
"153 574 LINE",
"351 136 LINE",
"383 -1 LINE"
);
}
);
width = 984;
}
);
unicode = 0076;
},
{
glyphname = vhook;
lastChange = "2019-09-05 19:28:17 +0000";
layers = (
{
anchors = (
{
name = _vhook;
position = "{410, 456}";
},
{
name = bottom;
position = "{356, 0}";
},
{
name = horn;
position = "{520, 446}";
},
{
name = ogonek;
position = "{349, -48}";
},
{
name = top;
position = "{343, 506}";
},
{
name = topright;
position = "{608, 500}";
}
);
hints = (
{
horizontal = 1;
origin = "{0, 2}";
target = "{0, 15}";
type = TTStem;
options = 4;
},
{
horizontal = 1;
origin = "{0, 9}";
target = "{0, 8}";
type = TTStem;
options = 4;
}
);
layerId = "BA196CD0-EE58-4274-B8DF-4393D3617A29";
paths = (
{
closed = 1;
nodes = (
"80 27 OFFCURVE",
"170 -16 OFFCURVE",
"293 -16 CURVE SMOOTH",
"499 -16 OFFCURVE",
"480 161 OFFCURVE",
"480 258 CURVE SMOOTH",
"480 469 OFFCURVE",
"498 570 OFFCURVE",
"309 570 CURVE",
"309 495 LINE",
"402 495 OFFCURVE",
"391 410 OFFCURVE",
"391 354 CURVE SMOOTH",
"391 197 OFFCURVE",
"390 140 OFFCURVE",
"293 140 CURVE SMOOTH",
"212 140 OFFCURVE",
"165 140 OFFCURVE",
"165 297 CURVE SMOOTH",
"165 547 LINE",
"80 547 LINE",
"80 216 LINE SMOOTH"
);
}
);
width = 560;
},
{
anchors = (
{
name = _vhook;
position = "{410, 456}";
},
{
name = bottom;
position = "{356, 0}";
},
{
name = horn;
position = "{520, 446}";
},
{
name = ogonek;
position = "{349, -48}";
},
{
name = top;
position = "{343, 506}";
},
{
name = topright;
position = "{608, 500}";
}
);
layerId = "BBDB329E-CE83-4304-A6B1-53EA5ACC004E";
paths = (
{
closed = 1;
nodes = (
"53 38 OFFCURVE",
"129 -43 OFFCURVE",
"293 -43 CURVE SMOOTH",
"529 -43 OFFCURVE",
"507 162 OFFCURVE",
"507 258 CURVE SMOOTH",
"507 475 OFFCURVE",
"532 607 OFFCURVE",
"282 596 CURVE",
"282 467 LINE",
"357 471 OFFCURVE",
"364 466 OFFCURVE",
"364 354 CURVE SMOOTH",
"364 183 OFFCURVE",
"357 167 OFFCURVE",
"293 167 CURVE SMOOTH",
"212 167 OFFCURVE",
"192 167 OFFCURVE",
"192 297 CURVE SMOOTH",
"192 574 LINE",
"53 574 LINE",
"53 216 LINE SMOOTH"
);
}
);
width = 560;
}
);
unicode = 028B;
},
{
color = 7;
glyphname = w;
lastChange = "2019-10-14 17:09:05 +0000";
layers = (
{
anchors = (
{
name = bottom;
position = "{520, 0}";
},
{
name = top;
position = "{520, 663}";
},
{
name = top_hook;
position = "{973, 289}";
}
);
hints = (
{
horizontal = 1;
origin = "{0, 12}";
type = Anchor;
options = 4;
}
);
layerId = "BA196CD0-EE58-4274-B8DF-4393D3617A29";
paths = (
{
closed = 1;
nodes = (
"417 0 LINE",
"520 169 LINE",
"619 0 LINE",
"744 0 LINE",
"887 547 LINE",
"767 547 LINE",
"685 208 LINE",
"551 393 LINE",
"489 393 LINE",
"355 208 LINE",
"273 547 LINE",
"153 547 LINE",
"296 0 LINE"
);
}
);
width = 1040;
},
{
anchors = (
{
name = bottom;
position = "{555, 0}";
},
{
name = top;
position = "{555, 741}";
},
{
name = top_hook;
position = "{987, 311}";
}
);
layerId = "BBDB329E-CE83-4304-A6B1-53EA5ACC004E";
paths = (
{
closed = 1;
nodes = (
"468 -27 LINE",
"555 132 LINE",
"638 -27 LINE",
"800 -27 LINE",
"957 574 LINE",
"802 574 LINE",
"703 263 LINE",
"601 450 LINE",
"509 450 LINE",
"397 263 LINE",
"308 574 LINE",
"153 574 LINE",
"310 -27 LINE"
);
}
);
width = 1110;
}
);
unicode = 0077;
},
{
color = 7;
glyphname = x;
lastChange = "2019-10-14 17:09:05 +0000";
layers = (
{
anchors = (
{
name = bottom;
position = "{459, 0}";
},
{
name = top;
position = "{459, 500}";
}
);
hints = (
{
horizontal = 1;
origin = "{0, 3}";
type = Anchor;
options = 4;
}
);
layerId = "BA196CD0-EE58-4274-B8DF-4393D3617A29";
paths = (
{
closed = 1;
nodes = (
"302 0 LINE",
"717 560 LINE",
"606 560 LINE",
"153 0 LINE"
);
},
{
closed = 1;
nodes = (
"738 0 LINE",
"341 560 LINE",
"225 560 LINE",
"588 0 LINE"
);
}
);
width = 891;
},
{
anchors = (
{
name = bottom;
position = "{491, 13}";
},
{
name = top;
position = "{503, 500}";
}
);
layerId = "BBDB329E-CE83-4304-A6B1-53EA5ACC004E";
paths = (
{
closed = 1;
nodes = (
"614 -1 LINE",
"828 -1 LINE",
"390 564 LINE",
"225 564 LINE"
);
},
{
closed = 1;
nodes = (
"153 -1 LINE",
"368 -1 LINE",
"797 564 LINE",
"636 564 LINE"
);
}
);
width = 981;
}
);
leftKerningGroup = Round;
unicode = 0078;
},
{
color = 7;
glyphname = y;
lastChange = "2019-10-14 17:09:05 +0000";
layers = (
{
anchors = (
{
name = bottom;
position = "{434, 0}";
},
{
name = dotbelow;
position = "{617, -109}";
},
{
name = top;
position = "{430, 714}";
},
{
name = top_hook;
position = "{746, 319}";
}
);
hints = (
{
horizontal = 1;
origin = "{0, 14}";
target = "{0, 13}";
type = TTStem;
options = 4;
}
);
layerId = "BA196CD0-EE58-4274-B8DF-4393D3617A29";
paths = (
{
closed = 1;
nodes = (
"265 -258 LINE SMOOTH",
"345 -258 OFFCURVE",
"509 -193 OFFCURVE",
"546 -34 CURVE SMOOTH",
"685 560 LINE",
"589 560 LINE",
"472 179 LINE",
"248 560 LINE",
"153 560 LINE",
"401 53 LINE SMOOTH",
"451 -50 OFFCURVE",
"323 -129 OFFCURVE",
"246 -129 CURVE SMOOTH",
"183 -129 LINE",
"183 -258 LINE"
);
}
);
width = 838;
},
{
anchors = (
{
name = bottom;
position = "{468, -17}";
},
{
name = dotbelow;
position = "{724, -40}";
},
{
name = top;
position = "{485, 787}";
},
{
name = top_hook;
position = "{795, 319}";
}
);
layerId = "BBDB329E-CE83-4304-A6B1-53EA5ACC004E";
paths = (
{
closed = 1;
nodes = (
"620 562 LINE",
"513 219 LINE",
"311 562 LINE",
"153 562 LINE",
"416 30 LINE SMOOTH",
"456 -50 OFFCURVE",
"361 -112 OFFCURVE",
"295 -112 CURVE SMOOTH",
"205 -112 LINE",
"205 -285 LINE",
"314 -285 LINE SMOOTH",
"435 -285 OFFCURVE",
"525 -210 OFFCURVE",
"556 -113 CURVE SMOOTH",
"772 562 LINE"
);
}
);
width = 925;
}
);
unicode = 0079;
},
{
color = 7;
glyphname = z;
lastChange = "2019-10-14 17:09:05 +0000";
layers = (
{
anchors = (
{
name = _right_el;
position = "{256, 539}";
},
{
name = bottom;
position = "{396, -74}";
},
{
name = bottomhook;
position = "{545, 27}";
},
{
name = center;
position = "{409, 288}";
},
{
name = top;
position = "{422, 627}";
}
);
hints = (
{
horizontal = 1;
origin = "{0, 9}";
target = "{0, 2}";
type = TTStem;
options = 4;
},
{
horizontal = 1;
origin = "{0, 6}";
target = "{0, 5}";
type = TTStem;
options = 4;
}
);
layerId = "BA196CD0-EE58-4274-B8DF-4393D3617A29";
paths = (
{
closed = 1;
nodes = (
"654 0 LINE",
"597 121 LINE",
"332 121 LINE",
"664 470 LINE",
"651 560 LINE",
"237 560 LINE",
"237 464 LINE",
"528 464 LINE",
"177 131 LINE",
"153 0 LINE"
);
}
);
width = 817;
},
{
anchors = (
{
name = _right_el;
position = "{288, 539}";
},
{
name = bottom;
position = "{450, -182}";
},
{
name = bottomhook;
position = "{577, 27}";
},
{
name = center;
position = "{441, 288}";
},
{
name = top;
position = "{468, 682}";
}
);
layerId = "BBDB329E-CE83-4304-A6B1-53EA5ACC004E";
paths = (
{
closed = 1;
nodes = (
"518 455 LINE",
"184 145 LINE",
"153 -1 LINE",
"729 -1 LINE",
"646 148 LINE",
"408 148 LINE",
"725 473 LINE",
"705 576 LINE",
"247 576 LINE",
"247 455 LINE"
);
}
);
width = 882;
}
);
unicode = 007A;
},
{
glyphname = zcurl;
lastChange = "2019-09-05 19:28:17 +0000";
layers = (
{
anchors = (
{
name = _right_el;
position = "{204, 514}";
},
{
name = bottom;
position = "{336, 0}";
},
{
name = center;
position = "{336, 288}";
},
{
name = top;
position = "{349, 547}";
}
);
hints = (
{
horizontal = 1;
origin = "{0, 2}";
target = "{0, 17}";
type = TTStem;
options = 4;
},
{
horizontal = 1;
place = "{175.24, 86.41}";
type = TTStem;
options = 4;
},
{
horizontal = 1;
origin = "{0, 21}";
target = "{0, 20}";
type = TTStem;
options = 4;
}
);
layerId = "BA196CD0-EE58-4274-B8DF-4393D3617A29";
paths = (
{
closed = 1;
nodes = (
"482 482 LINE",
"104 131 LINE",
"80 0 LINE",
"509 0 LINE SMOOTH",
"641 0 OFFCURVE",
"707 219 OFFCURVE",
"569 255 CURVE SMOOTH",
"433 291 OFFCURVE",
"383 181 OFFCURVE",
"383 -193 CURVE",
"482 -193 LINE",
"482 175 OFFCURVE",
"517 192 OFFCURVE",
"545 169 CURVE SMOOTH",
"557 159 OFFCURVE",
"572 121 OFFCURVE",
"479 121 CURVE SMOOTH",
"239 121 LINE",
"591 482 LINE",
"578 549 LINE",
"169 549 LINE",
"169 482 LINE"
);
}
);
width = 726;
},
{
anchors = (
{
name = _right_el;
position = "{204, 514}";
},
{
name = bottom;
position = "{336, 0}";
},
{
name = center;
position = "{336, 288}";
},
{
name = top;
position = "{349, 547}";
}
);
layerId = "BBDB329E-CE83-4304-A6B1-53EA5ACC004E";
paths = (
{
closed = 1;
nodes = (
"413 455 LINE",
"79 145 LINE",
"48 -27 LINE",
"509 -27 LINE SMOOTH",
"679 -27 OFFCURVE",
"739 239 OFFCURVE",
"576 281 CURVE SMOOTH",
"410 325 OFFCURVE",
"353 186 OFFCURVE",
"356 -220 CURVE",
"509 -220 LINE",
"507 -24 OFFCURVE",
"527 149 OFFCURVE",
"528 148 CURVE",
"527 149 OFFCURVE",
"482 148 OFFCURVE",
"479 148 CURVE SMOOTH",
"303 148 LINE",
"620 473 LINE",
"600 576 LINE",
"142 576 LINE",
"142 455 LINE"
);
}
);
width = 726;
}
);
unicode = 0291;
},
{
glyphname = zretroflexhook;
lastChange = "2019-10-12 21:21:17 +0000";
layers = (
{
components = (
{
name = z;
},
{
name = od_hook;
transform = "{1, 0, 0, 1, 445, -322}";
}
);
hints = (
{
horizontal = 1;
origin = "{0, 0}";
target = "{0, 3}";
type = TTStem;
options = 4;
}
);
layerId = "BA196CD0-EE58-4274-B8DF-4393D3617A29";
paths = (
{
closed = 1;
nodes = (
"524 0 LINE",
"665 6 LINE",
"671 142 LINE",
"485 121 LINE"
);
}
);
width = 679;
},
{
components = (
{
name = z;
},
{
name = od_hook;
transform = "{0.99619, -0.08716, 0.08716, 0.99619, 449, -296}";
}
);
layerId = "BBDB329E-CE83-4304-A6B1-53EA5ACC004E";
paths = (
{
closed = 1;
nodes = (
"495 0 LINE",
"724 13 LINE",
"742 164 LINE",
"448 148 LINE"
);
}
);
width = 679;
}
);
unicode = 0290;
},
{
color = 7;
glyphname = a.ss01;
lastChange = "2019-09-05 19:28:17 +0000";
layers = (
{
anchors = (
{
name = bottom;
position = "{342, 0}";
},
{
name = ogonek;
position = "{503, 29}";
},
{
name = top;
position = "{331, 577}";
}
);
background = {
components = (
{
alignment = -1;
name = "";
transform = "{1, 0, 0, 1, 9, 150}";
},
{
alignment = -1;
name = "";
transform = "{1, 0, 0, 1, 9, 200}";
},
{
alignment = -1;
name = "";
transform = "{1, 0, 0, 1, 59, 50}";
},
{
alignment = -1;
name = "";
transform = "{1, 0, 0, 1, 59, 100}";
},
{
alignment = -1;
name = "";
transform = "{1, 0, 0, 1, 59, 150}";
},
{
alignment = -1;
name = "";
transform = "{1, 0, 0, 1, 59, 200}";
},
{
alignment = -1;
name = "";
transform = "{1, 0, 0, 1, 59, 250}";
},
{
alignment = -1;
name = "";
transform = "{1, 0, 0, 1, 59, 300}";
},
{
alignment = -1;
name = "";
transform = "{1, 0, 0, 1, 59, 350}";
},
{
alignment = -1;
name = "";
transform = "{1, 0, 0, 1, 109, 0}";
},
{
alignment = -1;
name = "";
transform = "{1, 0, 0, 1, 109, 50}";
},
{
alignment = -1;
name = "";
transform = "{1, 0, 0, 1, 109, 100}";
},
{
alignment = -1;
name = "";
transform = "{1, 0, 0, 1, 109, 400}";
},
{
alignment = -1;
name = "";
transform = "{1, 0, 0, 1, 159, 0}";
},
{
alignment = -1;
name = "";
transform = "{1, 0, 0, 1, 159, 50}";
},
{
alignment = -1;
name = "";
transform = "{1, 0, 0, 1, 159, 100}";
},
{
alignment = -1;
name = "";
transform = "{1, 0, 0, 1, 159, 450}";
},
{
alignment = -1;
name = "";
transform = "{1, 0, 0, 1, 209, 0}";
},
{
alignment = -1;
name = "";
transform = "{1, 0, 0, 1, 209, 50}";
},
{
alignment = -1;
name = "";
transform = "{1, 0, 0, 1, 209, 100}";
},
{
alignment = -1;
name = "";
transform = "{1, 0, 0, 1, 209, 450}";
},
{
alignment = -1;
name = "";
transform = "{1, 0, 0, 1, 259, 0}";
},
{
alignment = -1;
name = "";
transform = "{1, 0, 0, 1, 259, 50}";
},
{
alignment = -1;
name = "";
transform = "{1, 0, 0, 1, 259, 100}";
},
{
alignment = -1;
name = "";
transform = "{1, 0, 0, 1, 259, 450}";
},
{
alignment = -1;
name = "";
transform = "{1, 0, 0, 1, 309, 0}";
},
{
alignment = -1;
name = "";
transform = "{1, 0, 0, 1, 309, 50}";
},
{
alignment = -1;
name = "";
transform = "{1, 0, 0, 1, 309, 100}";
},
{
alignment = -1;
name = "";
transform = "{1, 0, 0, 1, 309, 450}";
},
{
alignment = -1;
name = "";
transform = "{1, 0, 0, 1, 359, 0}";
},
{
alignment = -1;
name = "";
transform = "{1, 0, 0, 1, 359, 50}";
},
{
alignment = -1;
name = "";
transform = "{1, 0, 0, 1, 359, 100}";
},
{
alignment = -1;
name = "";
transform = "{1, 0, 0, 1, 359, 450}";
},
{
alignment = -1;
name = "";
transform = "{1, 0, 0, 1, 409, 50}";
},
{
alignment = -1;
name = "";
transform = "{1, 0, 0, 1, 409, 100}";
},
{
alignment = -1;
name = "";
transform = "{1, 0, 0, 1, 409, 150}";
},
{
alignment = -1;
name = "";
transform = "{1, 0, 0, 1, 409, 200}";
},
{
alignment = -1;
name = "";
transform = "{1, 0, 0, 1, 409, 250}";
},
{
alignment = -1;
name = "";
transform = "{1, 0, 0, 1, 409, 300}";
},
{
alignment = -1;
name = "";
transform = "{1, 0, 0, 1, 409, 350}";
},
{
alignment = -1;
name = "";
transform = "{1, 0, 0, 1, 409, 400}";
},
{
alignment = -1;
name = "";
transform = "{1, 0, 0, 1, 409, 450}";
},
{
alignment = -1;
name = "";
transform = "{1, 0, 0, 1, 409, 500}";
},
{
alignment = -1;
name = "";
transform = "{1, 0, 0, 1, 459, 0}";
},
{
alignment = -1;
name = "";
transform = "{1, 0, 0, 1, 459, 50}";
},
{
alignment = -1;
name = "";
transform = "{1, 0, 0, 1, 459, 100}";
},
{
alignment = -1;
name = "";
transform = "{1, 0, 0, 1, 459, 150}";
},
{
alignment = -1;
name = "";
transform = "{1, 0, 0, 1, 459, 200}";
},
{
alignment = -1;
name = "";
transform = "{1, 0, 0, 1, 459, 250}";
},
{
alignment = -1;
name = "";
transform = "{1, 0, 0, 1, 459, 300}";
},
{
alignment = -1;
name = "";
transform = "{1, 0, 0, 1, 459, 350}";
}
);
paths = (
{
closed = 1;
nodes = (
"418 525 LINE",
"469 525 LINE",
"536 0 LINE",
"446 0 LINE",
"446 82 LINE",
"408 17 OFFCURVE",
"336 -14 OFFCURVE",
"256 -14 CURVE SMOOTH",
"94 -14 OFFCURVE",
"-6 105 OFFCURVE",
"39 273 CURVE SMOOTH",
"78 419 OFFCURVE",
"165 525 OFFCURVE",
"256 525 CURVE SMOOTH",
"327 525 OFFCURVE",
"394 504 OFFCURVE",
"430 446 CURVE"
);
},
{
closed = 1;
nodes = (
"71 175 OFFCURVE",
"94 136 OFFCURVE",
"244 138 CURVE SMOOTH",
"425 140 OFFCURVE",
"429 170 OFFCURVE",
"429 299 CURVE SMOOTH",
"429 448 OFFCURVE",
"322 476 OFFCURVE",
"255 476 CURVE",
"194 476 OFFCURVE",
"135 434 OFFCURVE",
"101 296 CURVE SMOOTH"
);
}
);
};
hints = (
{
horizontal = 1;
origin = "{1, 14}";
target = "{0, 9}";
type = TTStem;
options = 4;
},
{
horizontal = 1;
origin = "{0, 0}";
target = "{1, 20}";
type = TTStem;
options = 4;
},
{
horizontal = 1;
origin = "{1, 27}";
target = "{1, 40}";
type = TTStem;
options = 4;
},
{
horizontal = 1;
origin = "{1, 34}";
type = Anchor;
options = 4;
},
{
horizontal = 1;
origin = "{1, 4}";
type = Anchor;
options = 4;
},
{
horizontal = 1;
place = "{53.98, 68.02}";
type = TTStem;
options = 4;
}
);
layerId = "BA196CD0-EE58-4274-B8DF-4393D3617A29";
paths = (
{
closed = 1;
nodes = (
"297 276 LINE SMOOTH",
"187 276 OFFCURVE",
"153 252 OFFCURVE",
"148 196 CURVE SMOOTH",
"147 186 OFFCURVE",
"147 178 OFFCURVE",
"151 167 CURVE SMOOTH",
"164 126 OFFCURVE",
"204 122 OFFCURVE",
"257 122 CURVE SMOOTH",
"338 122 OFFCURVE",
"370 141 OFFCURVE",
"370 256 CURVE SMOOTH",
"370 252 LINE SMOOTH",
"370 268 OFFCURVE",
"361 276 OFFCURVE",
"348 276 CURVE SMOOTH"
);
},
{
closed = 1;
nodes = (
"496 24 LINE SMOOTH",
"496 9 OFFCURVE",
"496 21 OFFCURVE",
"496 0 CURVE",
"415 0 LINE",
"415 13 OFFCURVE",
"415 8 OFFCURVE",
"415 24 CURVE SMOOTH",
"415 35 LINE SMOOTH",
"415 56 OFFCURVE",
"405 60 OFFCURVE",
"390 45 CURVE SMOOTH",
"355 6 OFFCURVE",
"308 -14 OFFCURVE",
"244 -14 CURVE SMOOTH",
"145 -14 OFFCURVE",
"80 53 OFFCURVE",
"80 157 CURVE SMOOTH",
"80 279 OFFCURVE",
"154 342 OFFCURVE",
"301 342 CURVE SMOOTH",
"393 342 LINE SMOOTH",
"407 342 OFFCURVE",
"415 345 OFFCURVE",
"415 350 CURVE SMOOTH",
"415 433 OFFCURVE",
"370 482 OFFCURVE",
"275 489 CURVE",
"228 489 OFFCURVE",
"183 478 OFFCURVE",
"142 458 CURVE SMOOTH",
"127 450 OFFCURVE",
"129 452 OFFCURVE",
"116 441 CURVE",
"116 516 LINE",
"119 517 OFFCURVE",
"122 519 OFFCURVE",
"134 524 CURVE SMOOTH",
"186 545 OFFCURVE",
"236 554 OFFCURVE",
"283 554 CURVE SMOOTH",
"426 554 OFFCURVE",
"496 474 OFFCURVE",
"496 309 CURVE SMOOTH"
);
}
);
width = 576;
},
{
anchors = (
{
name = bottom;
position = "{382, 0}";
},
{
name = ogonek;
position = "{543, 29}";
},
{
name = top;
position = "{371, 577}";
}
);
background = {
components = (
{
alignment = -1;
name = "";
transform = "{1, 0, 0, 1, 49, 150}";
},
{
alignment = -1;
name = "";
transform = "{1, 0, 0, 1, 49, 200}";
},
{
alignment = -1;
name = "";
transform = "{1, 0, 0, 1, 99, 50}";
},
{
alignment = -1;
name = "";
transform = "{1, 0, 0, 1, 99, 100}";
},
{
alignment = -1;
name = "";
transform = "{1, 0, 0, 1, 99, 150}";
},
{
alignment = -1;
name = "";
transform = "{1, 0, 0, 1, 99, 200}";
},
{
alignment = -1;
name = "";
transform = "{1, 0, 0, 1, 99, 250}";
},
{
alignment = -1;
name = "";
transform = "{1, 0, 0, 1, 99, 300}";
},
{
alignment = -1;
name = "";
transform = "{1, 0, 0, 1, 99, 350}";
},
{
alignment = -1;
name = "";
transform = "{1, 0, 0, 1, 149, 0}";
},
{
alignment = -1;
name = "";
transform = "{1, 0, 0, 1, 149, 50}";
},
{
alignment = -1;
name = "";
transform = "{1, 0, 0, 1, 149, 100}";
},
{
alignment = -1;
name = "";
transform = "{1, 0, 0, 1, 149, 400}";
},
{
alignment = -1;
name = "";
transform = "{1, 0, 0, 1, 199, 0}";
},
{
alignment = -1;
name = "";
transform = "{1, 0, 0, 1, 199, 50}";
},
{
alignment = -1;
name = "";
transform = "{1, 0, 0, 1, 199, 100}";
},
{
alignment = -1;
name = "";
transform = "{1, 0, 0, 1, 199, 450}";
},
{
alignment = -1;
name = "";
transform = "{1, 0, 0, 1, 249, 0}";
},
{
alignment = -1;
name = "";
transform = "{1, 0, 0, 1, 249, 50}";
},
{
alignment = -1;
name = "";
transform = "{1, 0, 0, 1, 249, 100}";
},
{
alignment = -1;
name = "";
transform = "{1, 0, 0, 1, 249, 450}";
},
{
alignment = -1;
name = "";
transform = "{1, 0, 0, 1, 299, 0}";
},
{
alignment = -1;
name = "";
transform = "{1, 0, 0, 1, 299, 50}";
},
{
alignment = -1;
name = "";
transform = "{1, 0, 0, 1, 299, 100}";
},
{
alignment = -1;
name = "";
transform = "{1, 0, 0, 1, 299, 450}";
},
{
alignment = -1;
name = "";
transform = "{1, 0, 0, 1, 349, 0}";
},
{
alignment = -1;
name = "";
transform = "{1, 0, 0, 1, 349, 50}";
},
{
alignment = -1;
name = "";
transform = "{1, 0, 0, 1, 349, 100}";
},
{
alignment = -1;
name = "";
transform = "{1, 0, 0, 1, 349, 450}";
},
{
alignment = -1;
name = "";
transform = "{1, 0, 0, 1, 399, 0}";
},
{
alignment = -1;
name = "";
transform = "{1, 0, 0, 1, 399, 50}";
},
{
alignment = -1;
name = "";
transform = "{1, 0, 0, 1, 399, 100}";
},
{
alignment = -1;
name = "";
transform = "{1, 0, 0, 1, 399, 450}";
},
{
alignment = -1;
name = "";
transform = "{1, 0, 0, 1, 449, 50}";
},
{
alignment = -1;
name = "";
transform = "{1, 0, 0, 1, 449, 100}";
},
{
alignment = -1;
name = "";
transform = "{1, 0, 0, 1, 449, 150}";
},
{
alignment = -1;
name = "";
transform = "{1, 0, 0, 1, 449, 200}";
},
{
alignment = -1;
name = "";
transform = "{1, 0, 0, 1, 449, 250}";
},
{
alignment = -1;
name = "";
transform = "{1, 0, 0, 1, 449, 300}";
},
{
alignment = -1;
name = "";
transform = "{1, 0, 0, 1, 449, 350}";
},
{
alignment = -1;
name = "";
transform = "{1, 0, 0, 1, 449, 400}";
},
{
alignment = -1;
name = "";
transform = "{1, 0, 0, 1, 449, 450}";
},
{
alignment = -1;
name = "";
transform = "{1, 0, 0, 1, 449, 500}";
},
{
alignment = -1;
name = "";
transform = "{1, 0, 0, 1, 499, 0}";
},
{
alignment = -1;
name = "";
transform = "{1, 0, 0, 1, 499, 50}";
},
{
alignment = -1;
name = "";
transform = "{1, 0, 0, 1, 499, 100}";
},
{
alignment = -1;
name = "";
transform = "{1, 0, 0, 1, 499, 150}";
},
{
alignment = -1;
name = "";
transform = "{1, 0, 0, 1, 499, 200}";
},
{
alignment = -1;
name = "";
transform = "{1, 0, 0, 1, 499, 250}";
},
{
alignment = -1;
name = "";
transform = "{1, 0, 0, 1, 499, 300}";
},
{
alignment = -1;
name = "";
transform = "{1, 0, 0, 1, 499, 350}";
}
);
paths = (
{
closed = 1;
nodes = (
"458 525 LINE",
"509 525 LINE",
"576 0 LINE",
"486 0 LINE",
"486 82 LINE",
"448 17 OFFCURVE",
"376 -14 OFFCURVE",
"296 -14 CURVE SMOOTH",
"134 -14 OFFCURVE",
"34 105 OFFCURVE",
"79 273 CURVE SMOOTH",
"118 419 OFFCURVE",
"205 525 OFFCURVE",
"296 525 CURVE SMOOTH",
"367 525 OFFCURVE",
"434 504 OFFCURVE",
"470 446 CURVE"
);
},
{
closed = 1;
nodes = (
"111 175 OFFCURVE",
"134 136 OFFCURVE",
"284 138 CURVE SMOOTH",
"465 140 OFFCURVE",
"469 170 OFFCURVE",
"469 299 CURVE SMOOTH",
"469 448 OFFCURVE",
"362 476 OFFCURVE",
"295 476 CURVE",
"234 476 OFFCURVE",
"175 434 OFFCURVE",
"141 296 CURVE SMOOTH"
);
}
);
};
layerId = "BBDB329E-CE83-4304-A6B1-53EA5ACC004E";
paths = (
{
closed = 1;
nodes = (
"388 249 OFFCURVE",
"383 254 OFFCURVE",
"383 252 CURVE",
"437 252 LINE",
"432 207 LINE",
"388 143 OFFCURVE",
"369 149 OFFCURVE",
"297 149 CURVE SMOOTH",
"231 149 OFFCURVE",
"219 157 OFFCURVE",
"214 185 CURVE",
"214 187 OFFCURVE",
"215 190 OFFCURVE",
"215 193 CURVE",
"219 235 OFFCURVE",
"244 249 OFFCURVE",
"337 249 CURVE SMOOTH",
"388 249 LINE"
);
},
{
closed = 1;
nodes = (
"536 466 OFFCURVE",
"466 554 OFFCURVE",
"323 554 CURVE SMOOTH",
"276 554 OFFCURVE",
"226 549 OFFCURVE",
"174 527 CURVE SMOOTH",
"162 522 OFFCURVE",
"159 520 OFFCURVE",
"156 519 CURVE",
"156 433 LINE",
"169 444 OFFCURVE",
"167 442 OFFCURVE",
"182 450 CURVE",
"223 470 OFFCURVE",
"259 481 OFFCURVE",
"306 481 CURVE",
"401 474 OFFCURVE",
"435 425 OFFCURVE",
"435 350 CURVE SMOOTH",
"435 345 OFFCURVE",
"418 342 OFFCURVE",
"404 342 CURVE SMOOTH",
"312 342 LINE SMOOTH",
"165 342 OFFCURVE",
"120 279 OFFCURVE",
"120 157 CURVE SMOOTH",
"120 53 OFFCURVE",
"185 -14 OFFCURVE",
"284 -14 CURVE SMOOTH",
"348 -14 OFFCURVE",
"395 6 OFFCURVE",
"430 45 CURVE",
"445 60 OFFCURVE",
"455 56 OFFCURVE",
"455 35 CURVE SMOOTH",
"455 24 LINE SMOOTH",
"455 8 OFFCURVE",
"455 13 OFFCURVE",
"455 0 CURVE",
"536 0 LINE",
"536 21 OFFCURVE",
"536 9 OFFCURVE",
"536 24 CURVE SMOOTH",
"536 309 LINE SMOOTH"
);
}
);
width = 656;
}
);
leftKerningGroup = Round;
},
{
glyphname = f_f;
lastChange = "2019-10-16 22:45:25 +0000";
layers = (
{
components = (
{
alignment = -1;
name = f;
transform = "{1, 0, 0, 1, -72, 0}";
},
{
alignment = -1;
name = f;
transform = "{1, 0, 0, 1, 394, 1}";
}
);
layerId = "BA196CD0-EE58-4274-B8DF-4393D3617A29";
paths = (
{
closed = 1;
nodes = (
"202 459 LINE",
"688 457 LINE",
"693 549 LINE",
"216 551 LINE"
);
}
);
width = 925;
},
{
components = (
{
name = fb00;
}
);
layerId = "BBDB329E-CE83-4304-A6B1-53EA5ACC004E";
width = 968;
}
);
},
{
glyphname = "Be-cy";
lastChange = "2019-09-16 23:38:16 +0000";
layers = (
{
hints = (
{
horizontal = 1;
origin = "{1, 10}";
target = "{1, 2}";
type = TTStem;
options = 4;
},
{
horizontal = 1;
origin = "{0, 6}";
target = "{0, 8}";
type = TTStem;
options = 4;
}
);
layerId = "BA196CD0-EE58-4274-B8DF-4393D3617A29";
paths = (
{
closed = 1;
nodes = (
"327 0 LINE SMOOTH",
"575 0 OFFCURVE",
"575 218 QCURVE SMOOTH",
"575 327 OFFCURVE",
"513 386 QCURVE SMOOTH",
"449 446 OFFCURVE",
"327 446 QCURVE SMOOTH",
"204 447 LINE",
"196 660 LINE",
"541 660 LINE",
"574 729 LINE",
"80 729 LINE",
"110 0 LINE"
);
},
{
closed = 1;
nodes = (
"213 142 LINE",
"207 376 LINE",
"337 380 LINE SMOOTH",
"411 380 OFFCURVE",
"451 344 QCURVE SMOOTH",
"491 308 OFFCURVE",
"491 242 QCURVE SMOOTH",
"491 200 OFFCURVE",
"451 172 QCURVE SMOOTH",
"408 141 OFFCURVE",
"337 141 QCURVE SMOOTH"
);
}
);
width = 655;
},
{
layerId = "BBDB329E-CE83-4304-A6B1-53EA5ACC004E";
paths = (
{
closed = 1;
nodes = (
"393 171 OFFCURVE",
"426 194 QCURVE SMOOTH",
"456 215 OFFCURVE",
"456 247 QCURVE SMOOTH",
"456 296 OFFCURVE",
"426 323 QCURVE SMOOTH",
"396 350 OFFCURVE",
"340 350 QCURVE SMOOTH",
"242 347 LINE",
"247 171 LINE",
"340 171 LINE SMOOTH"
);
},
{
closed = 1;
nodes = (
"498 626 LINE",
"239 626 LINE",
"245 466 LINE",
"337 465 LINE SMOOTH",
"421 451 OFFCURVE",
"477 420 QCURVE SMOOTH",
"575 366 OFFCURVE",
"575 218 QCURVE SMOOTH",
"575 1 OFFCURVE",
"327 0 QCURVE SMOOTH",
"110 0 LINE",
"80 729 LINE",
"574 729 LINE"
);
}
);
width = 655;
}
);
note = uni0411;
unicode = 0411;
},
{
glyphname = "Ve-cy";
lastChange = "2019-09-05 19:28:18 +0000";
layers = (
{
hints = (
{
horizontal = 1;
origin = "{0, 13}";
target = "{2, 8}";
type = TTStem;
options = 4;
},
{
horizontal = 1;
origin = "{2, 9}";
target = "{1, 6}";
type = TTStem;
options = 4;
},
{
horizontal = 1;
origin = "{1, 7}";
target = "{0, 12}";
type = TTStem;
options = 4;
}
);
layerId = "BA196CD0-EE58-4274-B8DF-4393D3617A29";
paths = (
{
closed = 1;
nodes = (
"466 0 OFFCURVE",
"536 53 QCURVE SMOOTH",
"607 107 OFFCURVE",
"607 204 QCURVE SMOOTH",
"607 363 OFFCURVE",
"420 393 QCURVE",
"543 413 OFFCURVE",
"543 549 QCURVE SMOOTH",
"543 635 OFFCURVE",
"482 682 QCURVE SMOOTH",
"421 729 OFFCURVE",
"308 729 QCURVE SMOOTH",
"80 729 LINE",
"80 0 LINE",
"342 0 LINE SMOOTH"
);
},
{
closed = 1;
nodes = (
"395 663 OFFCURVE",
"433 628 QCURVE SMOOTH",
"468 595 OFFCURVE",
"468 538 QCURVE SMOOTH",
"468 428 OFFCURVE",
"325 428 QCURVE SMOOTH",
"179 428 LINE",
"179 663 LINE",
"325 663 LINE SMOOTH"
);
},
{
closed = 1;
nodes = (
"415 348 OFFCURVE",
"455 316 QCURVE SMOOTH",
"493 284 OFFCURVE",
"493 259 QCURVE SMOOTH",
"493 193 OFFCURVE",
"455 168 QCURVE SMOOTH",
"420 145 OFFCURVE",
"337 145 QCURVE SMOOTH",
"179 145 LINE",
"179 348 LINE",
"337 348 LINE SMOOTH"
);
}
);
width = 687;
},
{
layerId = "BBDB329E-CE83-4304-A6B1-53EA5ACC004E";
paths = (
{
closed = 1;
nodes = (
"486 -15 OFFCURVE",
"554 41 QCURVE SMOOTH",
"616 92 OFFCURVE",
"611 201 QCURVE SMOOTH",
"604 364 OFFCURVE",
"420 393 QCURVE",
"565 413 OFFCURVE",
"565 549 QCURVE SMOOTH",
"578 641 OFFCURVE",
"495 688 QCURVE SMOOTH",
"434 735 OFFCURVE",
"308 729 QCURVE SMOOTH",
"80 729 LINE",
"80 0 LINE",
"342 0 LINE SMOOTH"
);
},
{
closed = 1;
nodes = (
"389 652 OFFCURVE",
"423 621 QCURVE SMOOTH",
"455 591 OFFCURVE",
"455 539 QCURVE SMOOTH",
"455 469 OFFCURVE",
"325 469 QCURVE SMOOTH",
"192 469 LINE",
"192 652 LINE",
"325 652 LINE SMOOTH"
);
},
{
closed = 1;
nodes = (
"408 332 OFFCURVE",
"444 303 QCURVE SMOOTH",
"479 274 OFFCURVE",
"479 258 QCURVE SMOOTH",
"479 198 OFFCURVE",
"444 175 QCURVE SMOOTH",
"412 154 OFFCURVE",
"337 154 QCURVE SMOOTH",
"193 154 LINE",
"193 332 LINE",
"337 332 LINE SMOOTH"
);
}
);
width = 687;
}
);
note = uni0412;
unicode = 0412;
},
{
glyphname = "Ge-cy";
lastChange = "2019-10-16 12:28:12 +0000";
layers = (
{
anchors = (
{
name = bottomright;
position = "{635, 0}";
},
{
name = center;
position = "{305, 434}";
},
{
name = top;
position = "{328, 850}";
}
);
hints = (
{
horizontal = 1;
origin = "{0, 5}";
type = Anchor;
options = 4;
},
{
horizontal = 1;
origin = "{0, 1}";
target = "{0, 4}";
type = TTStem;
options = 4;
}
);
layerId = "BA196CD0-EE58-4274-B8DF-4393D3617A29";
paths = (
{
closed = 1;
nodes = (
"232 0 LINE",
"198 648 LINE",
"575 648 LINE",
"565 729 LINE",
"94 729 LINE",
"80 0 LINE"
);
}
);
width = 655;
},
{
anchors = (
{
name = center;
position = "{271, 437}";
},
{
name = top;
position = "{350, 872}";
}
);
layerId = "BBDB329E-CE83-4304-A6B1-53EA5ACC004E";
paths = (
{
closed = 1;
nodes = (
"589 756 LINE",
"68 756 LINE",
"52 -27 LINE",
"260 -27 LINE",
"226 621 LINE",
"606 621 LINE"
);
}
);
width = 655;
}
);
note = uni0413;
unicode = 0413;
},
{
glyphname = "Gheupturn-cy";
lastChange = "2019-09-05 19:28:18 +0000";
layers = (
{
components = (
{
name = "Ge-cy";
}
);
hints = (
{
horizontal = 1;
origin = "{0, 0}";
target = "{0, 3}";
type = TTStem;
options = 4;
}
);
layerId = "BA196CD0-EE58-4274-B8DF-4393D3617A29";
paths = (
{
closed = 1;
nodes = (
"489 648 LINE",
"575 648 LINE",
"575 821 LINE",
"489 821 LINE"
);
}
);
width = 655;
},
{
components = (
{
name = "Ge-cy";
}
);
layerId = "BBDB329E-CE83-4304-A6B1-53EA5ACC004E";
paths = (
{
closed = 1;
nodes = (
"462 621 LINE",
"602 621 LINE",
"602 848 LINE",
"462 848 LINE"
);
}
);
width = 655;
}
);
unicode = 0490;
},
{
glyphname = "De-cy";
lastChange = "2019-09-02 15:01:06 +0000";
layers = (
{
layerId = "BA196CD0-EE58-4274-B8DF-4393D3617A29";
paths = (
{
closed = 1;
nodes = (
"660 726 LINE",
"254 725 LINE",
"230 236 LINE",
"196 192 LINE",
"140 114 LINE",
"80 114 LINE",
"130 -95 LINE",
"235 -95 LINE",
"218 4 LINE",
"627 4 LINE",
"602 -95 LINE",
"712 -95 LINE",
"756 114 LINE",
"681 114 LINE",
"660 638 LINE"
);
},
{
closed = 1;
nodes = (
"324 224 LINE",
"342 638 LINE",
"565 638 LINE",
"558 113 LINE",
"275 114 LINE"
);
}
);
width = 836;
},
{
layerId = "BBDB329E-CE83-4304-A6B1-53EA5ACC004E";
paths = (
{
closed = 1;
nodes = (
"687 753 LINE",
"228 752 LINE",
"203 246 LINE",
"174 208 LINE",
"126 141 LINE",
"46 141 LINE",
"109 -122 LINE",
"267 -122 LINE",
"250 -23 LINE",
"592 -23 LINE",
"567 -122 LINE",
"734 -122 LINE",
"789 141 LINE",
"707 141 LINE",
"687 639 LINE"
);
},
{
closed = 1;
nodes = (
"351 218 LINE",
"368 611 LINE",
"538 611 LINE",
"531 140 LINE",
"317 141 LINE"
);
}
);
width = 836;
}
);
note = uni0414;
unicode = 0414;
},
{
glyphname = "Ie-cy";
lastChange = "2019-10-17 20:22:28 +0000";
layers = (
{
anchors = (
{
name = top;
position = "{319, 785}";
}
);
hints = (
{
horizontal = 1;
origin = "{0, 9}";
target = "{0, 0}";
type = TTStem;
options = 4;
},
{
horizontal = 1;
origin = "{0, 1}";
target = "{0, 4}";
type = TTStem;
options = 4;
},
{
horizontal = 1;
origin = "{0, 5}";
target = "{0, 8}";
type = TTStem;
options = 4;
}
);
layerId = "BA196CD0-EE58-4274-B8DF-4393D3617A29";
paths = (
{
closed = 1;
nodes = (
"179 151 LINE",
"179 347 LINE",
"526 347 LINE",
"526 430 LINE",
"179 430 LINE",
"179 646 LINE",
"541 646 LINE",
"541 729 LINE",
"80 729 LINE",
"80 0 LINE",
"550 0 LINE",
"550 151 LINE"
);
}
);
width = 630;
},
{
anchors = (
{
name = top;
position = "{429, 956}";
}
);
components = (
{
name = E;
transform = "{0.96811, 0, 0, 0.96811, 0, 0}";
}
);
layerId = "BBDB329E-CE83-4304-A6B1-53EA5ACC004E";
width = 890;
}
);
note = uni0415;
unicode = 0415;
},
{
glyphname = "Io-cy";
lastChange = "2019-10-12 00:48:07 +0000";
layers = (
{
hints = (
{
horizontal = 1;
origin = "{2, 9}";
target = "{2, 0}";
type = TTStem;
options = 4;
},
{
horizontal = 1;
origin = "{2, 1}";
target = "{2, 4}";
type = TTStem;
options = 4;
},
{
horizontal = 1;
origin = "{2, 5}";
target = "{2, 8}";
type = TTStem;
options = 4;
},
{
horizontal = 1;
origin = "{1, 1}";
target = "{1, 0}";
type = TTStem;
options = 4;
}
);
layerId = "BA196CD0-EE58-4274-B8DF-4393D3617A29";
paths = (
{
closed = 1;
nodes = (
"410 937 LINE",
"405 833 LINE",
"495 833 LINE",
"490 937 LINE"
);
},
{
closed = 1;
nodes = (
"147 937 LINE",
"142 833 LINE",
"232 833 LINE",
"227 937 LINE"
);
},
{
closed = 1;
nodes = (
"179 151 LINE",
"179 347 LINE",
"526 347 LINE",
"526 430 LINE",
"179 430 LINE",
"179 646 LINE",
"541 646 LINE",
"541 729 LINE",
"80 729 LINE",
"80 0 LINE",
"550 0 LINE",
"550 151 LINE"
);
}
);
width = 630;
},
{
components = (
{
name = E;
},
{
name = dieresis;
transform = "{1, 0, 0, 1, 192, 401}";
}
);
layerId = "BBDB329E-CE83-4304-A6B1-53EA5ACC004E";
width = 919;
}
);
note = uni0401;
unicode = 0401;
},
{
glyphname = "Ze-cy";
lastChange = "2019-09-18 15:35:38 +0000";
layers = (
{
anchors = (
{
name = top;
position = "{304, 800}";
}
);
hints = (
{
horizontal = 1;
origin = "{0, 30}";
target = "{0, 25}";
type = TTStem;
options = 4;
},
{
horizontal = 1;
place = "{360.5, 78.5}";
type = TTStem;
options = 4;
},
{
horizontal = 1;
origin = "{0, 7}";
type = Anchor;
options = 4;
},
{
horizontal = 1;
origin = "{0, 10}";
target = "{0, 5}";
type = TTStem;
options = 4;
}
);
layerId = "BA196CD0-EE58-4274-B8DF-4393D3617A29";
paths = (
{
closed = 1;
nodes = (
"543 427 OFFCURVE",
"543 553 QCURVE SMOOTH",
"543 640 OFFCURVE",
"478 691 QCURVE SMOOTH",
"412 742 OFFCURVE",
"300 742 QCURVE",
"213 742 OFFCURVE",
"102 711 QCURVE SMOOTH",
"101 634 LINE",
"202 654 OFFCURVE",
"297 654 QCURVE SMOOTH",
"443 654 OFFCURVE",
"443 540 QCURVE SMOOTH",
"443 442 OFFCURVE",
"295 440 QCURVE",
"171 438 LINE",
"179 362 LINE",
"291 359 LINE SMOOTH",
"370 358 OFFCURVE",
"417 322 QCURVE SMOOTH",
"462 288 OFFCURVE",
"462 236 QCURVE SMOOTH",
"462 194 OFFCURVE",
"419 158 QCURVE SMOOTH",
"370 116 OFFCURVE",
"279 116 QCURVE SMOOTH",
"183 116 OFFCURVE",
"80 176 QCURVE",
"80 22 LINE",
"184 -14 OFFCURVE",
"275 -14 QCURVE SMOOTH",
"560 -14 OFFCURVE",
"560 222 QCURVE SMOOTH",
"560 293 OFFCURVE",
"520 340 QCURVE SMOOTH",
"479 388 OFFCURVE",
"410 393 QCURVE"
);
}
);
width = 640;
},
{
anchors = (
{
name = top;
position = "{291, 980}";
}
);
layerId = "BBDB329E-CE83-4304-A6B1-53EA5ACC004E";
paths = (
{
closed = 1;
nodes = (
"543 427 OFFCURVE",
"543 553 QCURVE SMOOTH",
"543 640 OFFCURVE",
"478 691 QCURVE SMOOTH",
"412 742 OFFCURVE",
"300 742 QCURVE",
"189 731 OFFCURVE",
"102 711 QCURVE",
"104 599 LINE",
"205 619 OFFCURVE",
"300 619 QCURVE SMOOTH",
"412 619 OFFCURVE",
"408 540 QCURVE SMOOTH",
"404 462 OFFCURVE",
"295 460 QCURVE",
"171 458 LINE",
"179 342 LINE",
"291 339 LINE SMOOTH",
"352 337 OFFCURVE",
"379 317 QCURVE SMOOTH",
"415 290 OFFCURVE",
"400 226 QCURVE SMOOTH",
"395 195 OFFCURVE",
"362 178 QCURVE SMOOTH",
"335 164 OFFCURVE",
"279 160 QCURVE SMOOTH",
"182 153 OFFCURVE",
"80 220 QCURVE",
"80 22 LINE",
"184 -14 OFFCURVE",
"275 -14 QCURVE SMOOTH",
"560 -14 OFFCURVE",
"560 222 QCURVE SMOOTH",
"560 293 OFFCURVE",
"520 340 QCURVE SMOOTH",
"479 388 OFFCURVE",
"410 393 QCURVE"
);
}
);
width = 640;
}
);
note = uni0417;
unicode = 0417;
},
{
glyphname = "Em-cy";
lastChange = "2019-09-05 19:28:18 +0000";
layers = (
{
hints = (
{
horizontal = 1;
origin = "{0, 10}";
type = Anchor;
options = 4;
},
{
horizontal = 1;
origin = "{0, 12}";
target = "{0, 9}";
type = TTStem;
options = 4;
}
);
layerId = "BA196CD0-EE58-4274-B8DF-4393D3617A29";
paths = (
{
closed = 1;
nodes = (
"364 116 LINE",
"483 116 LINE",
"661 640 LINE",
"641 0 LINE",
"767 0 LINE",
"752 729 LINE",
"615 729 LINE",
"423 296 LINE",
"242 729 LINE",
"95 729 LINE",
"80 0 LINE",
"205 0 LINE",
"186 640 LINE"
);
}
);
width = 847;
},
{
layerId = "BBDB329E-CE83-4304-A6B1-53EA5ACC004E";
paths = (
{
closed = 1;
nodes = (
"160 631 LINE",
"345 89 LINE",
"502 89 LINE",
"687 631 LINE",
"634 641 LINE",
"613 -27 LINE",
"795 -27 LINE",
"778 756 LINE",
"597 756 LINE",
"424 364 LINE",
"260 756 LINE",
"69 756 LINE",
"52 -27 LINE",
"233 -27 LINE",
"213 641 LINE"
);
}
);
width = 847;
}
);
note = uni041C;
unicode = 041C;
},
{
glyphname = "Pe-cy";
lastChange = "2019-09-05 19:28:18 +0000";
layers = (
{
hints = (
{
horizontal = 1;
origin = "{0, 2}";
type = Anchor;
options = 4;
}
);
layerId = "BA196CD0-EE58-4274-B8DF-4393D3617A29";
paths = (
{
closed = 1;
nodes = (
"587 726 LINE",
"84 729 LINE",
"80 0 LINE",
"200 0 LINE",
"188 642 LINE",
"491 642 LINE",
"480 0 LINE",
"600 0 LINE",
"587 642 LINE"
);
}
);
width = 680;
},
{
layerId = "BBDB329E-CE83-4304-A6B1-53EA5ACC004E";
paths = (
{
closed = 1;
nodes = (
"614 753 LINE",
"57 756 LINE",
"53 -27 LINE",
"228 -27 LINE",
"216 615 LINE",
"464 615 LINE",
"453 -27 LINE",
"628 -27 LINE",
"614 642 LINE"
);
}
);
width = 680;
}
);
note = uni041F;
unicode = 041F;
},
{
glyphname = "Ef-cy";
lastChange = "2019-09-05 19:28:18 +0000";
layers = (
{
hints = (
{
horizontal = 1;
origin = "{0, 17}";
type = Anchor;
options = 4;
},
{
horizontal = 1;
origin = "{0, 15}";
target = "{1, 1}";
type = TTStem;
options = 4;
},
{
horizontal = 1;
place = "{672.5, 53.5}";
type = TTStem;
options = 4;
}
);
layerId = "BA196CD0-EE58-4274-B8DF-4393D3617A29";
paths = (
{
closed = 1;
nodes = (
"498 0 LINE",
"489 280 LINE",
"544 280 LINE SMOOTH",
"666 280 OFFCURVE",
"730 340 QCURVE SMOOTH",
"792 399 OFFCURVE",
"792 508 QCURVE SMOOTH",
"792 729 OFFCURVE",
"547 728 QCURVE SMOOTH",
"328 726 LINE SMOOTH",
"80 726 OFFCURVE",
"80 508 QCURVE SMOOTH",
"80 399 OFFCURVE",
"143 340 QCURVE SMOOTH",
"206 280 OFFCURVE",
"328 280 QCURVE SMOOTH",
"371 280 LINE",
"362 0 LINE"
);
},
{
closed = 1;
nodes = (
"345 407 OFFCURVE",
"308 410 QCURVE",
"230 411 OFFCURVE",
"186 451 QCURVE SMOOTH",
"147 487 OFFCURVE",
"149 539 QCURVE SMOOTH",
"150 590 OFFCURVE",
"190 625 QCURVE SMOOTH",
"233 664 OFFCURVE",
"303 673 QCURVE",
"375 672 LINE",
"371 409 LINE"
);
},
{
closed = 1;
nodes = (
"485 672 LINE",
"554 672 LINE",
"708 662 OFFCURVE",
"708 547 QCURVE SMOOTH",
"708 410 OFFCURVE",
"554 410 QCURVE SMOOTH",
"489 410 LINE"
);
}
);
width = 872;
},
{
layerId = "BBDB329E-CE83-4304-A6B1-53EA5ACC004E";
paths = (
{
closed = 1;
nodes = (
"533 0 LINE",
"524 280 LINE",
"579 280 LINE SMOOTH",
"701 280 OFFCURVE",
"730 340 QCURVE SMOOTH",
"792 399 OFFCURVE",
"792 508 QCURVE SMOOTH",
"792 729 OFFCURVE",
"547 728 QCURVE SMOOTH",
"328 726 LINE SMOOTH",
"80 726 OFFCURVE",
"80 508 QCURVE SMOOTH",
"80 399 OFFCURVE",
"143 340 QCURVE SMOOTH",
"172 280 OFFCURVE",
"294 280 QCURVE SMOOTH",
"337 280 LINE",
"328 0 LINE"
);
},
{
closed = 1;
nodes = (
"324 440 OFFCURVE",
"297 442 QCURVE",
"238 443 OFFCURVE",
"205 473 QCURVE SMOOTH",
"176 500 OFFCURVE",
"177 539 QCURVE SMOOTH",
"178 578 OFFCURVE",
"208 604 QCURVE SMOOTH",
"240 633 OFFCURVE",
"293 640 QCURVE",
"347 639 LINE",
"344 442 LINE"
);
},
{
closed = 1;
nodes = (
"513 639 LINE",
"565 639 LINE",
"680 632 OFFCURVE",
"680 546 QCURVE SMOOTH",
"680 443 OFFCURVE",
"565 443 QCURVE SMOOTH",
"516 443 LINE"
);
}
);
width = 872;
}
);
note = uni0424;
unicode = 0424;
},
{
glyphname = "Che-cy";
lastChange = "2019-09-05 19:28:18 +0000";
layers = (
{
anchors = (
{
name = top;
position = "{334, 812}";
}
);
hints = (
{
horizontal = 1;
origin = "{0, 6}";
type = Anchor;
options = 4;
},
{
horizontal = 1;
origin = "{0, 3}";
target = "{0, 14}";
type = TTStem;
options = 4;
}
);
layerId = "BA196CD0-EE58-4274-B8DF-4393D3617A29";
paths = (
{
closed = 1;
nodes = (
"80 317 OFFCURVE",
"132 256 QCURVE SMOOTH",
"184 196 OFFCURVE",
"279 196 QCURVE SMOOTH",
"412 196 OFFCURVE",
"465 278 QCURVE",
"458 0 LINE",
"583 0 LINE",
"563 730 LINE",
"480 730 LINE",
"468 477 LINE SMOOTH",
"467 398 OFFCURVE",
"423 354 QCURVE SMOOTH",
"381 312 OFFCURVE",
"309 312 QCURVE SMOOTH",
"245 312 OFFCURVE",
"212 339 QCURVE SMOOTH",
"171 373 OFFCURVE",
"170 459 QCURVE SMOOTH",
"165 730 LINE",
"85 730 LINE",
"80 430 LINE SMOOTH"
);
}
);
width = 663;
},
{
layerId = "BBDB329E-CE83-4304-A6B1-53EA5ACC004E";
paths = (
{
closed = 1;
nodes = (
"70 317 OFFCURVE",
"132 256 QCURVE SMOOTH",
"184 196 OFFCURVE",
"279 196 QCURVE SMOOTH",
"412 196 OFFCURVE",
"465 278 QCURVE",
"458 0 LINE",
"596 0 LINE",
"576 730 LINE",
"455 730 LINE",
"444 500 LINE SMOOTH",
"441 428 OFFCURVE",
"403 388 QCURVE SMOOTH",
"366 349 OFFCURVE",
"310 350 QCURVE SMOOTH",
"252 351 OFFCURVE",
"222 375 QCURVE SMOOTH",
"170 405 OFFCURVE",
"184 484 QCURVE SMOOTH",
"226 727 LINE",
"106 734 LINE",
"80 430 LINE SMOOTH"
);
}
);
width = 663;
}
);
note = uni0427;
unicode = 0427;
},
{
glyphname = "Tse-cy";
lastChange = "2019-09-05 19:28:18 +0000";
layers = (
{
hints = (
{
horizontal = 1;
place = "{0, 112}";
type = TTStem;
options = 4;
},
{
horizontal = 1;
place = "{0, 117}";
type = TTStem;
options = 4;
}
);
layerId = "BA196CD0-EE58-4274-B8DF-4393D3617A29";
paths = (
{
closed = 1;
nodes = (
"80 0 LINE",
"532 0 LINE",
"492 -144 LINE",
"602 -144 LINE",
"640 118 LINE",
"568 116 LINE",
"553 729 LINE",
"477 729 LINE",
"455 113 LINE",
"191 111 LINE",
"178 728 LINE",
"90 728 LINE"
);
}
);
width = 720;
},
{
layerId = "BBDB329E-CE83-4304-A6B1-53EA5ACC004E";
paths = (
{
closed = 1;
nodes = (
"53 -27 LINE",
"496 -27 LINE",
"456 -171 LINE",
"625 -171 LINE",
"671 146 LINE",
"594 144 LINE",
"579 756 LINE",
"451 756 LINE",
"429 140 LINE",
"217 138 LINE",
"204 755 LINE",
"63 755 LINE"
);
}
);
width = 720;
}
);
note = uni0426;
unicode = 0426;
},
{
glyphname = "Sha-cy";
lastChange = "2019-09-05 19:28:18 +0000";
layers = (
{
hints = (
{
horizontal = 1;
origin = "{0, 1}";
target = "{0, 10}";
type = TTStem;
options = 4;
},
{
horizontal = 1;
origin = "{0, 8}";
type = Anchor;
options = 4;
}
);
layerId = "BA196CD0-EE58-4274-B8DF-4393D3617A29";
paths = (
{
closed = 1;
nodes = (
"80 726 LINE",
"85 0 LINE",
"730 0 LINE",
"725 726 LINE",
"629 726 LINE",
"647 109 LINE",
"468 110 LINE",
"475 702 LINE",
"367 702 LINE",
"385 110 LINE",
"183 110 LINE",
"192 726 LINE"
);
}
);
width = 810;
},
{
layerId = "BBDB329E-CE83-4304-A6B1-53EA5ACC004E";
paths = (
{
closed = 1;
nodes = (
"53 753 LINE",
"58 -27 LINE",
"757 -27 LINE",
"752 753 LINE",
"601 753 LINE",
"619 136 LINE",
"495 137 LINE",
"502 729 LINE",
"339 729 LINE",
"357 137 LINE",
"210 137 LINE",
"219 753 LINE"
);
}
);
width = 810;
}
);
note = uni0428;
unicode = 0428;
},
{
glyphname = "Shcha-cy";
lastChange = "2019-09-05 19:28:18 +0000";
layers = (
{
hints = (
{
horizontal = 1;
origin = "{0, 12}";
type = Anchor;
options = 4;
}
);
layerId = "BA196CD0-EE58-4274-B8DF-4393D3617A29";
paths = (
{
closed = 1;
nodes = (
"80 726 LINE",
"85 0 LINE",
"704 0 LINE",
"667 -152 LINE",
"777 -152 LINE",
"825 104 LINE",
"729 122 LINE",
"725 726 LINE",
"629 726 LINE",
"645 121 LINE",
"468 120 LINE",
"475 702 LINE",
"367 702 LINE",
"385 120 LINE",
"172 121 LINE",
"192 726 LINE"
);
}
);
width = 905;
},
{
layerId = "BBDB329E-CE83-4304-A6B1-53EA5ACC004E";
paths = (
{
closed = 1;
nodes = (
"53 753 LINE",
"58 -27 LINE",
"670 -27 LINE",
"633 -179 LINE",
"799 -179 LINE",
"857 126 LINE",
"756 144 LINE",
"752 753 LINE",
"601 753 LINE",
"617 148 LINE",
"495 147 LINE",
"502 729 LINE",
"339 729 LINE",
"357 147 LINE",
"200 148 LINE",
"220 753 LINE"
);
}
);
width = 905;
}
);
note = uni0429;
unicode = 0429;
},
{
glyphname = "Dzhe-cy";
lastChange = "2019-09-05 19:28:18 +0000";
layers = (
{
hints = (
{
horizontal = 1;
origin = "{0, 0}";
target = "{1, 2}";
type = TTStem;
options = 4;
},
{
horizontal = 1;
origin = "{0, 3}";
type = Anchor;
options = 4;
}
);
layerId = "BA196CD0-EE58-4274-B8DF-4393D3617A29";
paths = (
{
closed = 1;
nodes = (
"80 0 LINE",
"627 0 LINE",
"627 700 LINE",
"80 700 LINE"
);
},
{
closed = 1;
nodes = (
"524 700 LINE",
"524 98 LINE",
"186 98 LINE",
"186 700 LINE"
);
},
{
closed = 1;
nodes = (
"312 -188 LINE",
"395 -188 LINE",
"395 0 LINE",
"312 0 LINE"
);
}
);
width = 707;
},
{
layerId = "BBDB329E-CE83-4304-A6B1-53EA5ACC004E";
paths = (
{
closed = 1;
nodes = (
"0 -27 LINE",
"601 -27 LINE",
"601 727 LINE",
"0 727 LINE"
);
},
{
closed = 1;
nodes = (
"444 727 LINE",
"444 125 LINE",
"160 125 LINE",
"160 727 LINE"
);
},
{
closed = 1;
nodes = (
"232 -215 LINE",
"369 -215 LINE",
"369 27 LINE",
"232 27 LINE"
);
}
);
width = 600;
}
);
unicode = 040F;
},
{
glyphname = "Softsign-cy";
lastChange = "2019-09-05 19:28:18 +0000";
layers = (
{
hints = (
{
horizontal = 1;
origin = "{0, 10}";
target = "{1, 10}";
type = TTStem;
options = 4;
},
{
horizontal = 1;
origin = "{1, 0}";
target = "{0, 7}";
type = TTStem;
options = 4;
}
);
layerId = "BA196CD0-EE58-4274-B8DF-4393D3617A29";
paths = (
{
closed = 1;
nodes = (
"297 0 LINE SMOOTH",
"545 0 OFFCURVE",
"545 218 QCURVE SMOOTH",
"545 327 OFFCURVE",
"483 386 QCURVE SMOOTH",
"419 446 OFFCURVE",
"297 446 QCURVE SMOOTH",
"178 446 LINE",
"168 729 LINE",
"90 729 LINE",
"80 0 LINE"
);
},
{
closed = 1;
nodes = (
"177 378 LINE",
"311 378 LINE SMOOTH",
"383 378 OFFCURVE",
"422 336 QCURVE SMOOTH",
"459 296 OFFCURVE",
"459 228 QCURVE SMOOTH",
"459 191 OFFCURVE",
"419 162 QCURVE SMOOTH",
"374 130 OFFCURVE",
"305 130 QCURVE SMOOTH",
"181 130 LINE"
);
}
);
width = 625;
},
{
layerId = "BBDB329E-CE83-4304-A6B1-53EA5ACC004E";
paths = (
{
closed = 1;
nodes = (
"297 0 LINE SMOOTH",
"545 0 OFFCURVE",
"545 218 QCURVE SMOOTH",
"545 327 OFFCURVE",
"483 386 QCURVE SMOOTH",
"419 446 OFFCURVE",
"297 446 QCURVE SMOOTH",
"178 446 LINE",
"168 729 LINE",
"60 729 LINE",
"50 0 LINE"
);
},
{
closed = 1;
nodes = (
"182 327 LINE",
"283 327 LINE SMOOTH",
"337 327 OFFCURVE",
"366 296 QCURVE SMOOTH",
"394 266 OFFCURVE",
"394 214 QCURVE SMOOTH",
"394 187 OFFCURVE",
"364 165 QCURVE SMOOTH",
"330 141 OFFCURVE",
"278 141 QCURVE SMOOTH",
"185 141 LINE"
);
}
);
width = 625;
}
);
note = uni042C;
unicode = 042C;
},
{
glyphname = "Lje-cy";
lastChange = "2019-09-05 19:28:18 +0000";
layers = (
{
anchors = (
{
name = _bottom_hook;
position = "{243, 584}";
},
{
name = center;
position = "{435, 349}";
}
);
components = (
{
name = "Softsign-cy";
transform = "{1, 0, 0, 1, 457, 0}";
}
);
hints = (
{
horizontal = 1;
origin = "{1, 18}";
target = "{1, 17}";
type = TTStem;
options = 4;
},
{
horizontal = 1;
origin = "{0, 0}";
target = "{0, 3}";
type = TTStem;
options = 4;
}
);
layerId = "BA196CD0-EE58-4274-B8DF-4393D3617A29";
paths = (
{
closed = 1;
nodes = (
"202 653 LINE",
"625 653 LINE",
"625 729 LINE",
"202 729 LINE"
);
},
{
closed = 1;
nodes = (
"206 -18 OFFCURVE",
"245 -20 OFFCURVE",
"252 101 CURVE SMOOTH",
"266 339 OFFCURVE",
"270 412 OFFCURVE",
"283 653 CURVE",
"276 664 OFFCURVE",
"256 669 OFFCURVE",
"244 669 CURVE SMOOTH",
"232 669 OFFCURVE",
"211 663 OFFCURVE",
"203 653 CURVE",
"206 432 OFFCURVE",
"178 175 OFFCURVE",
"169 120 CURVE SMOOTH",
"163 83 OFFCURVE",
"166 69 OFFCURVE",
"98 69 CURVE",
"80 -17 LINE"
);
}
);
width = 1082;
},
{
anchors = (
{
name = _bottom_hook;
position = "{2, 584}";
},
{
name = center;
position = "{194, 349}";
}
);
components = (
{
name = "Softsign-cy";
transform = "{1, 0, 0, 1, 216, 0}";
}
);
layerId = "BBDB329E-CE83-4304-A6B1-53EA5ACC004E";
paths = (
{
closed = 1;
nodes = (
"-66 626 LINE",
"411 626 LINE",
"411 756 LINE",
"-66 756 LINE"
);
},
{
closed = 1;
nodes = (
"-47 -43 OFFCURVE",
"29 -61 OFFCURVE",
"38 99 CURVE SMOOTH",
"52 337 OFFCURVE",
"56 411 OFFCURVE",
"69 652 CURVE",
"65 667 LINE",
"53 685 OFFCURVE",
"27 696 OFFCURVE",
"3 696 CURVE SMOOTH",
"-28 696 OFFCURVE",
"-70 675 OFFCURVE",
"-65 650 CURVE",
"-62 431 OFFCURVE",
"-90 178 OFFCURVE",
"-99 124 CURVE SMOOTH",
"-107 75 OFFCURVE",
"-108 102 OFFCURVE",
"-165 94 CURVE",
"-194 -44 LINE"
);
}
);
width = 600;
}
);
unicode = 0409;
},
{
glyphname = "Nje-cy";
lastChange = "2019-09-05 19:28:18 +0000";
layers = (
{
anchors = (
{
name = _bottom_hook;
position = "{198, 584}";
},
{
name = center;
position = "{391, 349}";
}
);
components = (
{
name = "Softsign-cy";
transform = "{1, 0, 0, 1, 413, 0}";
}
);
hints = (
{
horizontal = 1;
origin = "{1, 0}";
type = Anchor;
options = 4;
},
{
horizontal = 1;
origin = "{0, 0}";
target = "{0, 3}";
type = TTStem;
options = 4;
}
);
layerId = "BA196CD0-EE58-4274-B8DF-4393D3617A29";
paths = (
{
closed = 1;
nodes = (
"157 368 LINE",
"581 368 LINE",
"581 444 LINE",
"157 444 LINE"
);
},
{
closed = 1;
nodes = (
"80 0 LINE",
"166 0 LINE",
"166 735 LINE",
"80 735 LINE"
);
}
);
width = 1038;
},
{
anchors = (
{
name = _bottom_hook;
position = "{-21, 584}";
},
{
name = center;
position = "{172, 349}";
}
);
components = (
{
name = "Softsign-cy";
transform = "{1, 0, 0, 1, 194, 0}";
}
);
layerId = "BBDB329E-CE83-4304-A6B1-53EA5ACC004E";
paths = (
{
closed = 1;
nodes = (
"-89 341 LINE",
"389 341 LINE",
"389 471 LINE",
"-89 471 LINE"
);
},
{
closed = 1;
nodes = (
"-166 -27 LINE",
"-26 -27 LINE",
"-26 762 LINE",
"-166 762 LINE"
);
}
);
width = 600;
}
);
unicode = 040A;
},
{
glyphname = "E-cy";
lastChange = "2019-09-05 19:28:18 +0000";
layers = (
{
anchors = (
{
name = bottom;
position = "{418, -54}";
},
{
name = center;
position = "{418, 387}";
},
{
name = horn;
position = "{689, 547}";
},
{
name = ogonek;
position = "{748, 10}";
},
{
name = top;
position = "{414, 842}";
},
{
name = topleft;
position = "{25, 700}";
},
{
name = topright;
position = "{810, 700}";
}
);
components = (
{
name = hyphen;
transform = "{1, 0, 0, 1, 7, 91}";
}
);
hints = (
{
horizontal = 1;
origin = "{0, 22}";
target = "{0, 3}";
type = TTStem;
options = 4;
},
{
horizontal = 1;
origin = "{0, 9}";
target = "{0, 16}";
type = TTStem;
options = 4;
}
);
layerId = "BA196CD0-EE58-4274-B8DF-4393D3617A29";
paths = (
{
closed = 1;
nodes = (
"598 219 LINE",
"557 185 OFFCURVE",
"495 173 OFFCURVE",
"418 173 CURVE SMOOTH",
"275 173 OFFCURVE",
"184 213 OFFCURVE",
"184 364 CURVE SMOOTH",
"184 548 OFFCURVE",
"275 672 OFFCURVE",
"418 672 CURVE SMOOTH",
"515 672 OFFCURVE",
"588 615 OFFCURVE",
"624 521 CURVE",
"731 521 LINE",
"684 659 OFFCURVE",
"571 742 OFFCURVE",
"418 742 CURVE SMOOTH",
"213 742 OFFCURVE",
"80 594 OFFCURVE",
"80 364 CURVE SMOOTH",
"80 54 OFFCURVE",
"185 -12 OFFCURVE",
"418 -14 CURVE SMOOTH",
"627 -16 OFFCURVE",
"720 31 OFFCURVE",
"746 219 CURVE"
);
}
);
width = 826;
},
{
anchors = (
{
name = bottom;
position = "{423, -54}";
},
{
name = center;
position = "{423, 387}";
},
{
name = horn;
position = "{694, 547}";
},
{
name = ogonek;
position = "{753, 10}";
},
{
name = top;
position = "{419, 842}";
},
{
name = topleft;
position = "{30, 700}";
},
{
name = topright;
position = "{815, 700}";
}
);
components = (
{
name = hyphen;
transform = "{1, 0, 0, 1, 72, 91}";
}
);
layerId = "BBDB329E-CE83-4304-A6B1-53EA5ACC004E";
paths = (
{
closed = 1;
nodes = (
"593 246 LINE",
"560 214 OFFCURVE",
"508 200 OFFCURVE",
"423 200 CURVE SMOOTH",
"273 200 OFFCURVE",
"216 246 OFFCURVE",
"216 364 CURVE SMOOTH",
"216 536 OFFCURVE",
"298 645 OFFCURVE",
"423 645 CURVE SMOOTH",
"512 645 OFFCURVE",
"579 591 OFFCURVE",
"610 494 CURVE",
"772 494 LINE",
"729 667 OFFCURVE",
"597 769 OFFCURVE",
"423 769 CURVE SMOOTH",
"202 769 OFFCURVE",
"58 608 OFFCURVE",
"58 364 CURVE SMOOTH",
"58 64 OFFCURVE",
"151 -39 OFFCURVE",
"423 -41 CURVE SMOOTH",
"670 -43 OFFCURVE",
"760 30 OFFCURVE",
"781 246 CURVE"
);
}
);
width = 835;
}
);
unicode = 0404;
},
